<svg width="733" height="161" viewBox="0 0 733 161" fill="none" xmlns="http://www.w3.org/2000/svg">
<path d="M7.06 91C6.35 91.14 5.67 90.78 5.11 90.37C5.34 89.88 5.71 89.11 6.03 88.62C6.56 87.83 7.59 87.36 7.93 86.46C7.53 85.87 -1.53 85.05 1.52 82.36C2.12 81.83 2.93 81.62 3.56 81.01C4.11 80.47 4.56 79.95 5.17 79.49C6.75 78.29 8.69 77.87 10.42 76.98C9.68 77.14 7.76 76.76 7.51 76.03C7.14 74.92 9.07 74.41 7.29 73.98C5.37 73.52 1.6 74.58 0.589996 72.15C1.84 71.22 3.23 70.45 4.68 69.87C5.91 69.38 6.89 68.71 8.07 68.12C9.62 67.35 10.66 67.13 11.37 65.45C11.96 64.05 12.94 63.25 12.49 61.67C10.07 62.58 7.26 63.66 4.61 62.9C4.64 62.23 6.77 61.6 7.27 61.32C8.42 60.67 9.24 59.82 10.18 58.89C11.7 57.38 14.25 55.02 13.49 52.59C13.2 52.53 12.91 52.47 12.62 52.42C12.44 51.59 13.68 51.42 13.53 50.58C12.42 50.3 11.22 50.71 10.11 50.43C10.01 49.43 11.75 48.38 12.4 47.71C14.44 45.6 15.96 42.94 17.57 40.5C18.78 40.69 18.49 40.84 19.59 41.77C20.01 42.12 20.12 43.04 20.34 43.53C20.83 44.64 21.51 45.39 22.32 46.26C23.8 47.86 24.69 49.22 26.48 50.41C27.67 51.2 27.74 51.23 26.58 52.12C26.08 52.5 25.64 53.09 25.1 53.41C24.39 53.83 23.64 53.74 22.91 54C21.3 54.57 22.45 55.15 23.58 55.65C24.18 55.91 26.08 55.85 26.15 56.5C26.21 57.03 24.09 57.96 23.76 58.66C24.23 59.07 25.02 59.17 25.58 59.5C26.29 59.9 26.79 60.3 27.59 60.53C28.16 60.69 28.6 60.49 28.98 61.12C29.31 61.67 29.1 62.54 28.86 63.02C28.62 63.48 28.04 64.03 27.59 64.28C27.14 64.54 26.14 64.55 25.83 64.99C25 66.16 27.77 65.75 28.03 66.87C27.05 67.45 26.21 68.14 25.08 68.4C24.3 68.58 23.33 68.41 23.13 69.39C24.68 70.4 26.52 70.84 28.28 71.27C29.25 71.51 31.73 71.14 32.11 71.98C32.55 72.95 32.03 74.73 31.47 75.49C30.95 76.2 30.33 76.83 29.57 77.29C29.13 77.55 28.6 77.59 28.26 78.05C29.19 77.99 31.37 77.57 32.14 77.99C33.06 78.49 32.45 80.2 32.09 81.07C31.63 82.19 30.39 83.14 29.57 84.03C29.25 84.37 28.92 85 28.58 85.26C28.23 85.53 27.71 85.48 27.62 85.92C28.52 86.21 30.82 85.5 31.21 86.5C30.65 88.12 27.15 89.79 25.58 89.53L7.06 91Z" fill="#0A2F44"/>
<path d="M60.79 6.09C60.85 5.93 60.89 5.75001 60.95 5.60001C60.71 5.69001 60.69 5.87 60.79 6.09Z" fill="#0A2F44"/>
<path d="M73.88 75.04C74.65 74.13 74.76 73.19 75.68 72.73C76.44 72.35 77.93 72.82 78.73 72.81C81.74 72.75 89.81 70.97 89.44 64.76C88.83 64.22 87.59 63.35 86.89 63.25C85.14 62.99 84.37 65.66 82.94 66.09C81.64 66.48 81.44 65.12 80.4 64.43C79.03 63.52 77.47 64.15 76.06 63.25C73.65 61.7 71.91 58.65 70.08 55.98C69.11 54.57 68.11 53.71 66.95 52.66C66.17 51.95 64.89 51.45 64.61 50.02C65.04 49.45 66.33 50.36 66.87 50.48C68.79 50.93 70.78 50.61 72.71 50.64C75.26 50.69 78.59 50.14 80.39 47.04C79.07 46.42 77.4 47.07 76 47C74.73 46.93 73.1 46.57 72.01 45.53C71.32 44.88 70.94 43.7 70.27 43.02C69.02 41.75 67.38 41.49 66.24 39.9C65.59 38.99 65.19 37.73 64.57 36.74C64.09 35.98 63.48 35.39 63.09 34.51C64.42 33.62 65.99 34.93 67.45 33.68C68.48 32.8 69.58 30.95 69.97 29.3C69.06 29.27 68.3 30.18 67.38 29.8C66.79 28.35 67.16 26.4 66.5 25.03C66.09 24.17 65.5 24.14 64.96 23.61C63.88 22.56 63.44 21.12 62.61 19.75C63.78 19.03 65.03 19.33 65.85 17.58C64.35 16.09 62.9 13.89 62.89 11C62.89 10.57 63.15 9.66998 63.07 9.28998C62.84 8.12998 61.14 6.82 60.8 6.09C60.15 7.9 59.84 10.32 59.21 12.15C58.35 14.66 57.89 16.17 56.44 18C56.05 18.5 54.83 19.5 54.9 20.38C55.01 21.79 57.66 21.12 58.3 21.05C57.26 22.19 57.46 24.48 56.47 25.85C55.38 27.35 53.92 27.59 52.51 27.88C52.52 29.89 54.6 30.29 55.5 30.69C56.15 30.98 56.2 31.48 56.97 31.48C57.65 31.48 57.84 31.09 58.38 30.8C58.65 31.5 58.08 32.98 57.86 33.66C57.51 34.75 56.95 35.63 56.47 36.61C56.1 37.36 55.79 38.49 55.43 39.11C54.75 40.3 54.2 40.09 53.22 40.28C52.39 40.44 52.02 41.02 51.35 41.61C50.87 42.04 50 42.12 49.6 42.64C48.75 43.74 48.62 44.77 47.48 45.48C46.46 46.11 45.73 46.22 44.62 46.2C43.66 46.19 39.82 45.38 39.98 47.3C40.06 48.24 41.68 49.49 42.21 49.92C43.11 50.63 43.99 50.65 44.98 50.63C45.76 50.62 47.23 51.08 47.88 50.51C48.26 50.18 48.12 49.4 48.72 49.25C49.2 49.13 49.49 49.82 49.86 50.1C51.38 51.28 53.55 50.63 55.13 49.09C54.76 49.87 54.47 50.76 53.99 51.43C53.13 52.63 52.35 53.85 51.49 55.1C50.51 56.52 49.12 58.91 47.74 59.44C46.24 60.02 44.44 58.87 42.96 59.46C41.37 60.1 40.47 62.66 38.99 63.74C38.16 64.35 37.39 64.7 36.49 65.04C35.59 65.38 34.56 65.18 33.72 65.74C32.11 66.83 32.22 69.61 33.97 70.42C34.4 70.62 34.78 70.47 35.19 70.64C35.51 70.77 35.6 71.22 35.96 71.35C36.84 71.65 37.33 71.18 38.11 71.83C39.15 72.69 39.33 73.7 40.77 73.54C41.77 73.43 42.76 72.89 43.53 71.93C44.17 71.14 44.61 69.34 45.44 69.09C45.48 71.07 44.09 73.19 45.95 74.12C46.88 74.59 47.97 74.31 48.9 73.93C49.53 73.67 50.34 72.69 50.99 72.87C51.6 73.04 51.92 74.53 52.55 74.9C53.82 75.65 54.97 74.93 56.01 74.26C56.87 73.7 56.48 73.85 57.46 74.12C58.47 74.4 59.07 73.51 60 73.62C59.93 75.14 56.86 76.37 56.09 77.03C54.55 78.34 53.1 79.93 51.47 80.98C50.09 81.86 48.57 82.28 47.08 82.42C45.72 82.55 44.42 83.06 43.07 83.18C41.96 83.28 39.36 83.14 38.56 84.77C36.76 88.43 43.31 88.33 44.22 88.32C45.15 88.3 46.11 88.14 47.02 88.44C47.87 88.96 48.75 89.37 49.65 89.66C50.88 89.87 52.11 89.91 53.35 89.8C57.7 89.74 62.05 89.79 66.4 89.79C68.33 89.79 70.45 90.19 72.35 89.72C74.66 89.14 76.59 86.91 78.86 86.05C80.85 85.29 82.95 85.32 84.81 83.89C85.47 83.38 86.66 82.65 87.02 81.86C84.95 80.35 82.74 81.04 80.58 81.51C79.19 81.81 76.45 82.42 75.23 81.27C73.93 80.05 73.34 78.54 71.69 78.03C70.43 77.64 69.59 77.88 68.68 76.46C70.42 76.56 72.38 76.8 73.88 75.04Z" fill="#0A2F44"/>
<path d="M730.4 148.59C729.02 149.64 726.18 149.26 724.53 149.21C723.26 149.18 722.24 148.73 721.08 148.25C719.66 147.65 718.24 147.12 716.84 146.48C714.9 145.6 713.02 145.22 711.27 143.87C710.61 143.36 709.88 142 708.96 142.08C709.49 142.66 710.78 143.7 710.69 144.54C709.92 144.77 708.94 144.51 708.2 144.3C707.24 144.03 705.81 142.95 704.84 143.03C704.84 143.64 706.01 145.12 705.45 145.75C705.19 146.04 703.94 146.12 703.63 146.13C702.8 146.18 701.96 146.04 701.15 145.9C699.63 145.63 697.78 145.35 696.45 144.51C695.69 144.03 694.94 143.39 694.13 143.07C694.04 143.25 694.02 143.45 694.07 143.65L694.46 144C694.21 143.92 693.99 143.86 693.83 143.82C693.41 143.71 693.1 143.63 692.76 143.43C692.55 143.31 692.57 143.11 692.29 143.07C691.71 144.64 692.99 146.46 693.46 147.88C693.52 148.06 693.58 148.24 693.62 148.43C694.32 150.82 694.39 153.46 694.38 155.92C694.37 157.59 694.35 159.28 694.38 160.95H686.34C686.36 160.63 686.38 160.31 686.38 160C686.38 157.93 686.44 155.84 686.39 153.77C686.35 152.38 686.06 151.01 685.9 149.63C685.84 149.07 685.8 148.51 685.78 147.95C685.76 147.23 685.76 146.51 685.76 145.78C685.76 144.63 685.9 143.33 685.76 142.2C684.92 142.65 684.08 143.12 683.17 143.39C682.21 143.67 681.27 143.48 680.44 144.03C679.26 144.8 678.38 145.82 676.86 145.83C676.68 145.83 676.36 145.87 676.19 145.76C675.87 145.53 676.09 145.22 675.88 145.05C675.4 144.64 675.07 145.19 674.57 145.48C673.97 145.83 673.28 146.09 672.67 146.43C672.12 146.73 671.61 147.12 670.95 147.08C670.38 147.04 669.88 146.57 669.29 146.73C669.13 146.77 668.97 146.86 668.8 146.98C668.8 146.98 668.8 146.98 668.79 146.98C668.77 146.99 668.76 147 668.74 147.02C668.09 147.48 667.38 148.33 666.91 148.73C666.11 149.4 665.28 150.27 664.25 150.62C663.98 149.92 665.07 149.2 664.8 148.29C663.81 148.12 662.68 149.15 661.8 149.47C661.24 149.68 660.77 149.75 660.22 149.52C659.97 149.42 659.8 149.2 659.53 149.16C658.83 149.04 657.9 149.83 657.29 150.08C655.97 150.61 653.4 151.96 651.91 151.3C651.85 150.91 651.95 150.54 651.89 150.15C650.06 150.06 648.09 151.64 646.31 150.76C645.42 150.31 644.48 149.4 645.74 148.76C647.07 148.07 648.82 147.88 650.29 147.57C652.19 147.18 654.06 146.69 655.98 146.34C655.99 146.34 655.99 146.33 656 146.34C656.06 146.32 656.12 146.31 656.18 146.3C658.41 145.9 660.78 145.44 662.85 144.5C664.78 143.62 667.2 143 668.88 141.72C669.36 141.35 669.76 140.91 670.28 140.56C670.9 140.15 671.48 140 672.15 139.67C672.27 139.61 672.48 139.47 672.74 139.27C673.72 138.52 675.36 136.99 675.28 136.35C674.8 136.74 674.38 136.82 673.94 136.83C673.61 136.85 673.26 136.82 672.85 136.86C672 136.95 671.25 137.33 670.51 137.74C670.07 137.99 669.36 138.42 668.86 138.05C668.63 137.88 668.65 137.48 668.5 137.36C668.09 137.03 667.85 137.25 667.26 137.47C665.8 138.03 663.65 139.21 662.07 138.68C661.6 137.05 663.96 136.84 664.98 136.58C666.67 136.13 668.23 135.34 669.83 134.65C672.08 133.68 673.99 132.07 676.33 131.3C676.37 131.29 676.41 131.28 676.45 131.26C677.27 131.01 678.12 130.85 678.92 130.54C680.78 129.81 683.78 127.79 683.91 125.5C683.83 125.91 683.48 126.07 682.97 126.1C681.77 126.17 680.9 126.33 679.92 127.09C679.24 127.61 678.31 128.51 677.37 128.93C676.94 129.13 676.51 129.23 676.11 129.15C675.07 128.94 675.12 128.08 674.6 127.37C673.19 127.97 671.48 128.93 669.88 129.16C669.27 129.24 668.53 129.21 668.24 128.59C668.01 128.11 668.45 127.45 668.17 127C667.78 126.39 667.24 126.81 666.8 127.07C666.03 127.53 665.16 128.05 664.26 128.22C663.63 128.33 662.8 128.49 662.4 127.92C662.08 127.44 662.54 126.65 662.33 126.12C661.69 126.03 660.87 126.82 660.29 127.05C659.63 127.31 658.78 127.52 658.08 127.3C657.91 126.64 658.09 125.87 658.07 125.19C656.24 125.33 654.55 126.68 652.7 126.99C652.63 127.01 649.78 127.45 650.08 126.48C650.18 126.15 651.4 125.55 651.72 125.31C652.96 124.36 654.04 123.82 655.62 123.64C657.49 123.42 659.31 123.09 661.19 122.96C663.14 122.81 664.79 122.24 666.66 121.85C668.11 121.56 669.58 121.57 670.98 121.05C672.27 120.56 673.49 119.9 674.74 119.33C675.88 118.82 677.2 118.46 678.2 117.73C679.15 117.04 680.08 116.83 681.12 116.38C681.33 116.29 681.56 116.18 681.79 116.04C683.34 115.18 685.14 113.56 685.4 111.92C685.58 110.79 684.59 111.53 683.98 111.84C683.69 111.99 683.39 112.13 683.09 112.25C681.45 112.99 679.75 113.57 678.13 114.37C677.12 114.86 675.71 115.45 674.63 114.79C674.32 114.6 674.17 114.23 673.83 114.13C673.17 115.45 671.49 116.23 670.07 116.27C668.64 116.31 669.07 115.78 668.78 114.74C668.44 114.78 668.32 114.95 668.04 115.15C667.44 115.56 666.73 115.88 666.07 116.19C665.09 116.65 663.81 117.1 662.7 116.89C662.16 116.79 661.84 116.57 661.29 116.56C660.85 116.55 660.4 116.63 659.99 116.51C660.57 115.6 661.59 114.98 659.78 115.31C658.43 115.56 656.8 115.79 655.27 115.75C654.65 115.75 654.05 115.69 653.48 115.58C653.3 115.23 654.66 114.41 654.99 114.27C655.4 114.08 655.9 113.98 656.41 113.91C657.23 113.81 658.1 113.8 658.81 113.71C659.6 113.62 660.41 113.57 661.19 113.43C662.15 113.26 663.01 112.82 663.94 112.54C664.65 112.32 665.36 112.18 666.06 111.92C666.77 111.64 667.42 111.24 668.14 110.99C669.34 110.58 670.58 110.37 671.77 109.92C673.45 109.28 675.18 108.33 676.65 107.31C677.82 106.5 679.34 105.65 680.22 104.5C680.64 103.96 681.65 102.86 681.42 102.12C680.69 102.01 679.62 103.49 679 102.86C678.69 102.55 679.07 101.12 678.98 100.63C677.57 101.61 676.04 102.54 674.38 101.72C674.22 100.69 676.5 99.99 677.17 99.74C678.83 99.13 680.35 98.25 681.76 97.15C681.87 97.06 681.98 96.98 682.08 96.91C683.02 96.19 683.89 95.57 684.29 94.41C684.31 94.35 684.33 94.29 684.37 94.23C684.72 93.4 685.47 92.83 685.97 92.11V92.1L685.98 92.09C686.01 92.05 686.03 92.03 686.05 91.99V91.98C686.19 91.78 686.3 91.56 686.38 91.32C686.42 91.16 686.42 91 686.36 90.86C686.35 90.84 686.34 90.81 686.33 90.79C685.84 91.16 685.65 91.57 685.04 91.88C685.02 91.89 684.99 91.9 684.96 91.91H684.95C684.81 91.98 684.6 92.07 684.36 92.15C684.17 92.19 683.98 92.24 683.79 92.31C683.77 92.32 683.76 92.32 683.74 92.32C683.45 92.39 683.19 92.41 683.05 92.34C682.63 92.15 682.58 91.78 682.63 91.36C682.7 90.73 683 90 682.63 89.62C682.62 89.6 682.6 89.59 682.59 89.58C681.96 90.19 680.96 91.59 679.91 91.38C679.8 91.36 679.69 91.32 679.58 91.26C679.49 90.33 680.12 89.08 680.71 88.06C680.92 87.69 681.12 87.36 681.29 87.08C681.03 87.21 680.64 87.46 680.17 87.78C679.89 87.96 679.59 88.17 679.26 88.39V88.4C678.9 88.64 678.51 88.91 678.11 89.19C677.75 89.44 677.38 89.69 677 89.95C676.89 90.03 676.77 90.1 676.66 90.18C676.1 90.55 675.54 90.93 674.99 91.27C674.45 91.61 673.94 91.92 673.46 92.19C673.35 92.24 673.25 92.3 673.15 92.35C672.68 92.6 672.24 92.8 671.88 92.92C671.27 93.14 670.83 93.14 670.69 92.82C670.59 92.6 670.67 92.25 670.76 91.92C670.77 91.89 670.78 91.86 670.79 91.83C670.96 91.28 671.12 90.81 670.48 91.09C670.35 91.14 670.2 91.22 670 91.34C669.9 91.4 669.81 91.46 669.71 91.52H669.7C669.63 91.58 669.55 91.63 669.47 91.68C668.99 92 668.47 92.36 667.92 92.69C667.81 92.75 667.7 92.81 667.58 92.87C667.47 92.94 667.35 93 667.24 93.05C666.36 93.48 665.43 93.72 664.52 93.45C664.44 93.02 664.55 92.59 664.55 92.17C664.55 92.09 664.54 92.02 664.53 91.94C664.34 91.93 664.15 91.94 663.97 91.98C663.88 92 663.8 92.02 663.72 92.04C662.59 92.34 661.47 93.21 660.29 92.81C660.53 92.5 660.84 92.27 661.08 91.96C659.94 91.27 656.22 94.46 655.29 92.81C654.98 92.26 655.17 91.78 655.54 91.38L655.55 91.37C655.58 91.34 655.61 91.3 655.65 91.27C656.06 90.89 656.61 90.59 656.95 90.39C657.17 90.26 657.39 90.14 657.62 90.03C658.04 89.83 658.48 89.66 658.92 89.51C659.9 89.19 660.93 88.99 661.97 88.83C662.63 88.73 663.3 88.64 663.97 88.55C664.11 88.53 664.24 88.52 664.38 88.5H664.39C664.49 88.48 664.58 88.47 664.67 88.46C665.4 88.36 666.11 88.24 666.81 88.09C666.87 88.08 666.92 88.07 666.97 88.05C667.01 88.05 667.05 88.04 667.09 88.03C667.4 87.95 667.71 87.87 668.01 87.78C668.18 87.73 668.35 87.67 668.52 87.61C668.53 87.61 668.53 87.61 668.53 87.61C668.86 87.5 669.19 87.37 669.51 87.23C669.52 87.23 669.52 87.23 669.52 87.23C669.85 87.09 670.17 86.95 670.49 86.78C672.34 85.88 674.05 84.66 675.68 83.36C675.96 83.15 676.24 82.92 676.51 82.7C676.82 82.45 677.12 82.2 677.43 81.95C677.8 81.64 678.18 81.33 678.55 81.04C678.56 81.03 678.56 81.03 678.57 81.02C678.63 80.96 678.7 80.91 678.76 80.86C679.2 80.51 679.57 80.14 679.92 79.76V79.75L679.93 79.74C680.29 79.36 680.61 78.96 680.95 78.52C681.15 78.26 682.08 77.35 681.81 76.8C681.7 76.56 681.55 76.49 681.4 76.52C681.1 76.57 680.76 76.98 680.5 77.13C679.94 77.46 679.37 77.66 678.7 77.42V77.08C678.7 76.9 678.7 76.72 678.65 76.56C678 76.47 677.3 77.11 676.68 77.29C676.06 77.47 675.32 77.63 674.68 77.41C674.54 76.55 676.48 75.48 677.63 74.95H677.64C677.71 74.91 677.77 74.88 677.83 74.85C678.04 74.76 678.21 74.69 678.32 74.65C679.06 74.37 679.87 74.36 680.63 74.19C681 74.11 681.35 73.99 681.69 73.78C682.91 73.03 683.97 72.21 684.71 70.98C685.09 70.33 686.41 68.98 686.64 67.94V67.93C686.69 67.73 686.7 67.56 686.65 67.39C685.27 68.17 684.3 70.23 682.31 69.84C681.24 69.62 681.46 68.27 680.66 67.92C679.89 67.59 679.09 69.01 678.33 68.59C677.82 68.3 677.99 67.86 678.25 67.41C678.48 66.97 678.8 66.52 678.65 66.17C678.18 66.38 677.71 66.58 677.25 66.78C676.85 66.95 676.45 67.13 676.05 67.32C675.98 67.35 675.91 67.39 675.84 67.43H675.83C675.5 67.59 675.17 67.75 674.83 67.85C674.39 67.99 673.94 68.03 673.45 67.88C673.43 67.74 673.45 67.59 673.51 67.43C673.91 66.2 676.23 64.61 677.18 64.5C677.68 64.44 677.99 64.69 678.44 64.78C679.02 64.9 679.37 64.77 679.9 64.55C681.3 63.97 682.66 62.84 683.59 61.66C684.31 60.74 684.86 59.69 685.55 58.75C685.93 58.24 686.32 57.82 686.03 57.14C685.44 57.19 685.07 57.95 684.71 58.35C683.97 59.17 683.18 59.94 682.32 60.62C681.01 61.65 679.24 62.9 677.47 62.35C677.22 61.57 677.98 60.83 677.72 60.03C677.72 60 677.71 59.96 677.69 59.93C677.42 60 677.06 60.43 676.73 60.84C676.73 60.85 676.72 60.86 676.71 60.87C676.52 61.12 676.34 61.35 676.21 61.48C675.69 62 675.22 62.53 674.63 62.81C674.63 62.81 674.62 62.81 674.62 62.82L674.61 62.83L674.6 62.84L674.59 62.85H674.58C674.23 62.99 673.89 63.07 673.43 63C673.35 62.99 673.28 62.98 673.21 62.96C672.55 62.81 672.3 62.45 672.22 61.97C672.14 61.58 672.19 61.12 672.24 60.64C671.37 61.62 669.48 62.51 668.21 62.68C666.91 62.85 667.46 62.16 667.26 61.26C667.09 61.33 666.92 61.38 666.74 61.41H666.73C666.44 61.47 666.14 61.48 665.84 61.48C665.51 61.48 665.18 61.45 664.86 61.45C663.75 61.45 662.52 61.63 661.43 61.41C661.2 60.35 662.05 59.98 662.94 59.68C664.63 59.13 666.3 58.49 668.08 58.37C670.4 58.2 672.6 57.29 674.81 56.54C675.38 56.33 675.96 56.15 676.54 55.99C677.02 55.86 677.48 55.64 677.99 55.59C678.41 55.55 678.84 55.71 679.26 55.57C679.89 55.37 680.5 54.85 681.09 54.53C681.91 54.08 682.75 53.71 683.58 53.27C684.75 52.66 686.6 51.79 686.04 50.08C685.35 50.18 684.98 50.69 684.22 50.68C683.51 50.67 683.26 50.43 682.9 49.79C681.99 50.22 681.38 50.67 680.24 50.7C679.72 50.71 678.62 50.65 678.37 50.15C679.86 49.41 681.4 48.79 682.87 48.03C684.1 47.39 684.7 46.71 685.61 45.63C686.49 44.57 687.75 43.33 688.16 41.98C688.22 41.77 688.39 41.03 688.17 40.87C687.88 40.66 687.59 41 687.36 41.11C687.2 40.65 687.43 40.14 687.25 39.71C686.26 40.14 685.37 40.75 684.24 40.47C684.13 39.92 685.7 38.69 686.14 38.36C686.76 37.88 687.62 37.7 688.16 37.13C689.18 36.07 688 35.18 687.87 34.15C687.22 34.57 686.81 35.09 686.11 35.46C686.05 35.49 685.99 35.52 685.93 35.55C685.18 35.89 684.66 35.93 683.88 35.91C683.55 35.9 683.18 36.03 682.98 35.74C682.7 35.32 683.62 34.62 683.83 34.43C684.06 34.23 684.32 34.03 684.57 33.83C684.9 33.57 685.22 33.29 685.45 32.96C685.72 32.57 685.74 32 686.05 31.65C686.33 31.33 686.68 31.21 686.99 30.93C688.14 29.85 689.34 27.82 689.76 26.31C690.12 25 690.36 23.67 690.62 22.34C690.7 21.9 690.65 21.54 690.68 21.12C690.73 20.38 691.08 19.69 691.3 18.97C692.33 18.66 692.12 22.72 692.29 23.36C692.51 24.25 692.99 25.02 693.29 25.89C693.6 26.77 694.01 27.65 694.37 28.51C694.68 29.24 696.59 31.58 696.22 32.35C695.75 33.33 693.47 31.77 693.11 31.39C693.08 32.13 694.34 32.91 694.42 33.67C694.44 33.81 694.42 33.94 694.34 34.08C694.06 34.56 693.05 34.37 692.6 34.37C691.83 34.35 691.69 34.22 691.6 34.97C691.47 36.16 691.92 37.2 692.52 38.21C692.95 38.95 694.48 39.67 694.66 40.46C693.83 40.72 692.9 40.43 692.13 40.28C691.12 40.08 691.17 40.65 691.53 41.44C691.86 42.19 692.18 42.84 692.76 43.38C693.28 43.85 694 44.14 694.5 44.56C694.71 44.74 694.82 44.97 694.99 45.15C695.2 45.36 695.38 45.38 695.62 45.59C696.12 46.03 696.39 46.35 697 46.64C697.46 46.86 698.49 47 698.83 47.32C699.17 47.65 699.36 48.17 699.83 48.54C698.29 48.48 696.86 48.37 695.4 47.95C696.1 48.65 698.88 50.22 697.5 51.39C696.97 51.84 695.3 51.71 694.69 51.56C693.74 51.33 692.9 50.48 691.92 50.37C690.87 50.51 692.95 53.21 693.15 53.41C693.79 54.02 694.5 54.55 695.25 55.01C696.16 55.59 697.12 56.08 698.09 56.54C700.44 57.65 703.04 58.71 705.57 59.31C706.27 59.47 706.97 59.7 707.63 59.99C708.22 60.25 708.67 60.85 709.22 61.08C709.28 61.1 709.35 61.12 709.44 61.12C709.84 61.14 710.49 60.99 710.66 61.2C710.67 61.21 710.67 61.23 710.67 61.24C710.75 61.49 710.39 62.39 710.34 62.63C709.97 62.68 709.65 62.79 709.33 62.87C709.32 62.87 709.32 62.88 709.31 62.88C709.05 62.95 708.79 63.01 708.49 63.02C708.37 63.02 708.24 63.02 708.1 63C707.43 62.92 706.79 62.55 706.13 62.41C706.09 62.59 706.06 62.76 706.04 62.94C705.5 63.24 704.43 62.94 703.89 62.78C703.53 62.67 703 62.15 702.69 62.11C702.3 62.05 701.86 62.36 701.44 62.39C700.45 62.47 699.61 62.3 698.69 61.96C697.79 61.62 696.95 61.2 696.07 60.84C695.39 60.56 694.74 60.49 694.11 60.25C694.04 60.77 694.76 61.27 695.11 61.6C695.87 62.3 696.86 62.7 697.78 63.16C699.31 63.91 700.74 64.84 702.23 65.61C702.63 65.82 703.73 66.29 704.11 66.79C704.25 66.97 704.29 67.15 704.19 67.32C703.88 67.84 702.98 67.61 702.49 67.62C701.37 67.63 700.7 67.46 699.83 67.05C699.83 67.05 699.83 67.05 699.82 67.05C699.66 66.97 699.5 66.89 699.32 66.8C699.38 66.88 699.45 66.97 699.53 67.06C699.7 67.27 699.88 67.5 699.91 67.76C700.02 68.62 699.4 68.45 698.82 68.56C698.17 68.69 697.51 69.08 696.83 68.79C696.3 68.56 696.09 67.98 695.4 68.27C695.85 68.89 696.33 69.5 696.81 70.08C697.59 71 699.12 71.58 700.1 72.24C700.67 72.62 701.12 73.11 701.78 73.39C701.96 73.47 702.3 73.55 702.61 73.69C702.98 73.84 703.32 74.05 703.34 74.38C703.38 75.09 702.62 75.06 701.85 74.98C700.86 74.89 699.84 74.71 700.45 75.92C700.58 76.18 700.73 76.4 700.91 76.6C701.31 77.06 701.83 77.38 702.37 77.75C702.76 78.02 703.73 78.48 704.26 78.94C704.38 79.02 704.47 79.12 704.54 79.21C704.57 79.25 704.59 79.28 704.61 79.32C704.55 79.49 704.4 79.6 704.19 79.66C704.02 79.72 703.81 79.73 703.57 79.72H703.56C702.71 79.7 701.62 79.37 701.25 79.24C700.73 79.04 700.19 78.9 699.66 78.75C699.35 78.66 699.04 78.57 698.73 78.46C698.22 78.28 697.74 77.89 697.16 78.12C697.1 78.72 697.99 79.08 698.39 79.38C698.63 79.56 698.8 79.76 698.96 79.96C699.21 80.28 699.41 80.6 699.74 80.85C700.22 81.2 700.81 81.46 701.32 81.77C701.52 81.89 701.68 82.03 701.84 82.2C702.11 82.45 702.35 82.74 702.62 83.02C702.75 83.15 702.9 83.28 703.05 83.4C703.2 83.52 703.36 83.63 703.52 83.74C704.39 84.29 705.43 84.66 706.39 84.88C706.88 84.99 707.28 85.29 707.7 85.55C707.84 85.63 707.99 85.71 708.14 85.78C708.71 86.03 709.33 86.18 709.92 86.4H709.93C710.17 86.48 710.41 86.58 710.63 86.69C711.94 87.36 713.33 87.89 714.68 88.55C714.71 88.57 714.75 88.58 714.78 88.59C716.09 89.2 717.57 89.41 718.82 90.02C718.84 90.03 718.86 90.04 718.88 90.05C719.28 90.25 720.82 90.93 719.97 91.57C719.9 91.63 719.78 91.66 719.65 91.69C719.08 91.78 718.1 91.62 717.76 91.63C717.35 91.63 716.87 91.67 716.42 91.65C716.42 91.65 716.41 91.65 716.4 91.65C716.11 91.64 715.82 91.6 715.56 91.51C715.52 91.5 715.48 91.48 715.45 91.47C715.57 91.56 715.63 91.7 715.59 91.88C714.03 92.31 711.91 91.61 710.5 90.99C710.05 90.72 709.57 90.5 709.08 90.33C708.95 90.39 708.85 90.48 708.8 90.62C708.77 90.63 708.74 90.64 708.72 90.65C707.97 90.87 707.42 91.11 706.62 91C706.54 90.99 706.45 90.98 706.36 90.96C706.23 90.93 706.1 90.9 705.98 90.85C705.96 90.85 705.94 90.84 705.91 90.83H705.9C705.73 90.76 705.57 90.69 705.41 90.62C705.17 90.52 704.94 90.42 704.67 90.38C704.48 90.35 704.3 90.33 704.11 90.32C703.73 90.3 703.36 90.31 702.97 90.31H702.96C702.56 90.3 702.14 90.28 701.74 90.18C701.69 90.17 701.64 90.15 701.59 90.13C701.13 90.01 700.72 89.81 700.32 89.6C700.03 89.45 699.75 89.3 699.44 89.16C699.36 89.13 699.28 89.09 699.2 89.06C699.05 89 698.9 88.93 698.75 88.85C698.64 88.8 698.52 88.74 698.41 88.68C697.72 88.32 697.01 87.92 696.23 87.93C696.14 87.93 695.13 88.58 695.05 88.6C694.84 89.32 694.89 89.96 695.16 90.53C695.27 90.78 695.42 91.01 695.61 91.23C695.82 91.48 695.98 91.76 696.15 92.03C696.24 92.17 696.33 92.3 696.43 92.42C696.45 92.47 696.49 92.51 696.52 92.55C696.94 93.07 697.55 93.22 698.05 93.62C698.1 93.66 698.19 93.73 698.3 93.81C698.48 93.95 698.73 94.14 698.96 94.34C699.41 94.73 699.8 95.16 699.54 95.35C699.45 95.42 699.23 95.39 698.97 95.3C698.62 95.19 698.2 94.99 697.91 94.84C697.76 94.77 697.65 94.71 697.6 94.69C697.43 94.61 695.78 93.56 695.78 93.49C695.3 93.5 695.19 93.65 695.29 94.25C695.39 94.83 695.92 95.48 696.42 95.97C696.59 96.13 696.75 96.27 696.89 96.39C696.99 96.48 697.1 96.56 697.21 96.63C697.81 97.11 698.46 97.5 699.1 97.89C699.38 98.06 699.65 98.23 699.92 98.4C700.19 98.57 700.4 98.8 700.67 98.99L700.7 99.02C700.71 99.02 700.71 99.03 700.72 99.03C701.03 99.23 701.38 99.28 701.73 99.34C701.95 99.38 702.17 99.42 702.38 99.5C702.83 99.68 703.28 99.86 703.74 100.03C704.39 100.28 705.05 100.49 705.72 100.6C705.75 100.9 705.7 101.31 705.97 101.49C705.42 101.34 704.73 101.73 704.17 101.77C703.69 101.81 703.25 101.76 702.82 101.66C702.95 101.88 702.95 102.13 702.75 102.34C702.48 102.63 701 102.43 700.6 102.41C700.1 102.38 699.78 102.35 699.36 102.12C698.85 103.31 700.63 104.14 701.39 104.71C702.71 105.7 704.13 106.23 705.61 106.9C707.04 107.54 708.55 108.15 710.08 108.55C711.99 109.07 713.97 109.33 715.88 109.87C715.91 109.88 715.95 109.89 715.98 109.9C716.68 110.08 717.4 110.04 718.08 110.27C718.83 110.53 719.52 110.79 720.3 110.94C721.84 111.23 723.34 111.64 724.86 111.95C725.6 112.1 727.47 112.49 726.26 113.33C724.99 114.2 722.26 114.03 720.94 113.44C721.14 113.6 721.61 114.14 721.53 114.43C721.34 115.07 719.54 114.72 719.12 114.64C718.75 114.56 718.39 114.47 718.02 114.37C717.82 114.39 717.75 114.5 717.8 114.71C717.75 115.01 717.56 115.12 717.23 115.04C716.84 115.03 716.46 115.02 716.08 115.02C715.03 115.01 713.93 115.13 712.89 115.03C712.29 114.98 711.68 114.84 711.07 114.7C710.73 114.62 710.39 114.55 710.05 114.49C709.07 114.32 708.36 113.85 707.45 113.46C707.11 113.32 706.73 113.22 706.38 113.08C706.46 113.27 706.44 113.53 706.37 113.74C705.52 114.03 704.7 113.76 703.87 113.51C703.37 113.35 702.88 113.19 702.38 113.17C701.25 113.11 700.15 113.25 699.03 113.03C697.7 112.77 696.81 112.16 695.68 111.54C695.29 111.33 695.16 111.36 694.69 111.33C694.24 111.31 693.92 111.14 693.5 111.05C692.82 112.84 696.27 114.1 697.23 114.94C698.1 115.71 699.16 116.34 700.28 116.84C701.44 117.36 702.66 117.74 703.82 118.02C705.23 118.37 706.66 118.63 708.07 119.03C709.31 119.39 710.61 119.4 711.88 119.64C713.23 119.89 714.6 119.92 715.93 120.25C716.26 120.34 718.35 120.47 718.4 120.79C716.87 121.26 715.11 121.19 713.52 121.16C714.56 121.55 715.44 122.15 716.54 122.41C717.78 122.7 719.07 123.04 720.24 123.49C720.89 123.74 723.18 124.13 721.92 124.88C720.58 125.69 718.38 125.56 716.92 125.46C717.34 125.6 717.98 125.9 718.14 126.35C714.56 127.62 710.53 125.52 707.14 124.34C707.83 124.65 708.64 125.4 708.48 126.05C707.43 126.25 706.23 126.13 705.23 125.76C706.31 126.38 704.54 126.73 704.14 126.75C702.3 126.83 700.3 126.47 698.54 125.92C697.94 125.74 697.56 125.42 697 125.16C696.5 124.93 695.94 124.9 695.44 124.69C694.84 124.44 693.92 123.36 693.23 123.35H693.14C693.14 123.36 693.15 123.38 693.15 123.39C693.26 123.84 694 124.27 694.35 124.56C695.09 125.16 695.92 125.61 696.68 126.17C698.53 127.54 700.42 128.82 702.69 129.35C705.28 129.96 707.97 130.56 710.5 131.4C711.88 131.86 713.58 132.45 714.7 133.44C713.84 133.69 712.43 133.5 711.63 133.43C711.01 133.37 710.36 133.34 709.73 133.26C709.78 133.37 709.8 133.46 709.83 133.57C709.91 133.86 709.74 134.12 709.88 134.43C709.99 134.67 710.2 134.88 710.44 135.06C710.69 135.25 710.99 135.41 711.22 135.56C712.58 136.46 713.94 137.36 715.32 138.24C717.71 139.74 720.32 140.53 723 141.26C722.79 142.01 719.96 141.81 719.44 141.81C718.2 141.8 716.95 141.85 715.71 141.79C716.37 142.02 716.73 142.46 717.43 142.64C719.04 143.07 720.29 143.91 721.79 144.61C723.9 145.61 725.99 146.19 728.23 146.81C728.99 147.03 730.51 147.54 730.4 148.59Z" fill="#0A2F44"/>
<path d="M126.91 150.95C125.14 151.83 123.16 150.26 121.34 150.34C121.28 150.73 121.38 151.1 121.32 151.49C119.83 152.16 117.26 150.8 115.94 150.28C115.32 150.03 114.4 149.24 113.7 149.36C113.43 149.4 113.25 149.62 113.01 149.72C112.45 149.95 111.98 149.87 111.43 149.67C110.55 149.35 109.41 148.31 108.43 148.49C108.15 149.39 109.24 150.11 108.97 150.82C107.94 150.47 107.12 149.6 106.31 148.92C105.71 148.42 104.71 147.15 103.93 146.93C103.35 146.77 102.85 147.24 102.27 147.28C101.62 147.32 101.1 146.93 100.56 146.63C99.94 146.29 99.26 146.03 98.66 145.68C98.15 145.39 97.83 144.84 97.34 145.24C97.14 145.41 97.36 145.73 97.04 145.95C96.87 146.07 96.55 146.03 96.36 146.03C94.84 146.02 93.97 145 92.79 144.22C91.96 143.68 91.01 143.87 90.06 143.58C89.15 143.31 88.3 142.84 87.47 142.39C87.33 143.52 87.46 144.83 87.47 145.97C87.47 147.28 87.48 148.53 87.32 149.83C87.16 151.2 86.87 152.58 86.84 153.97C86.78 156.04 86.85 158.13 86.85 160.2C86.85 160.44 86.86 160.7 86.87 160.95H78.85C78.88 159.33 78.85 157.73 78.85 156.12C78.84 153.46 78.92 150.6 79.76 148.08C80.24 146.66 81.51 144.84 80.94 143.26C80.66 143.3 80.68 143.5 80.47 143.62C80.13 143.82 79.81 143.9 79.4 144.01C79.24 144.05 79.02 144.11 78.77 144.19L79.15 143.85C79.2 143.64 79.18 143.45 79.09 143.26C78.29 143.59 77.53 144.23 76.77 144.71C75.45 145.55 73.6 145.82 72.08 146.09C71.27 146.24 70.42 146.38 69.6 146.33C69.29 146.31 68.04 146.24 67.77 145.94C67.22 145.32 68.39 143.84 68.39 143.23C68.36 143.23 68.33 143.22 68.3 143.22C67.34 143.2 65.95 144.24 65.03 144.5C64.29 144.71 63.31 144.97 62.53 144.74C62.45 143.9 63.74 142.86 64.27 142.28C63.35 142.2 62.61 143.56 61.95 144.07C60.21 145.42 58.33 145.8 56.38 146.68C54.98 147.31 53.56 147.85 52.14 148.44C51.89 148.54 51.65 148.65 51.4 148.75C51.4 148.75 51.4 148.75 51.39 148.75C50.53 149.1 49.68 149.38 48.7 149.41C47.19 149.45 44.71 149.76 43.24 149.04H43.23C43.08 148.97 42.95 148.88 42.82 148.79C42.72 147.74 44.23 147.22 44.99 147.01C47.23 146.39 49.32 145.8 51.44 144.81C52.94 144.1 54.19 143.27 55.79 142.84C56.49 142.66 56.86 142.22 57.52 141.98C56.28 142.05 55.03 142 53.78 142.01C53.27 142.01 50.43 142.21 50.23 141.46C52.91 140.73 55.52 139.93 57.9 138.43C59.29 137.56 60.65 136.66 62.01 135.76C62.46 135.46 63.12 135.14 63.34 134.62C63.48 134.31 63.32 134.05 63.4 133.77C63.44 133.65 63.45 133.56 63.51 133.45C62.87 133.54 62.22 133.57 61.6 133.62C60.8 133.69 59.39 133.89 58.53 133.64C59.64 132.65 61.35 132.06 62.73 131.6C65.25 130.76 67.95 130.15 70.53 129.55C72.81 129.01 74.7 127.74 76.55 126.37C77.31 125.8 78.14 125.36 78.87 124.76C79.07 124.59 79.4 124.38 79.66 124.14H79.67C79.88 123.95 80.04 123.75 80.08 123.55C79.71 123.5 79.26 123.81 78.82 124.15H78.81C78.44 124.45 78.07 124.77 77.79 124.89C77.28 125.1 76.73 125.12 76.23 125.36C75.67 125.62 75.28 125.93 74.69 126.12C72.92 126.66 70.93 127.02 69.08 126.94C68.69 126.93 66.92 126.58 68 125.95C67 126.33 65.8 126.45 64.75 126.25C64.59 125.63 65.31 124.93 65.97 124.58C62.61 125.76 58.63 127.8 55.09 126.55C55.25 126.1 55.88 125.8 56.31 125.66C54.85 125.76 52.65 125.89 51.31 125.08C50.71 124.72 50.91 124.44 51.36 124.22H51.37C51.86 123.98 52.65 123.81 52.99 123.68C54.16 123.23 55.44 122.89 56.69 122.6C57.78 122.35 58.67 121.75 59.7 121.36C58.12 121.39 56.36 121.45 54.83 120.99C54.88 120.67 56.96 120.53 57.29 120.45C58.62 120.11 59.99 120.08 61.34 119.83C62.61 119.6 63.91 119.58 65.16 119.23C66.56 118.82 67.99 118.56 69.41 118.22C71.68 117.67 74.23 116.71 76 115.14C76.96 114.29 80.41 113.03 79.72 111.25C79.3 111.34 78.99 111.51 78.54 111.53C78.07 111.55 77.94 111.52 77.55 111.74C76.42 112.36 75.53 112.97 74.2 113.23C73.07 113.45 71.98 113.3 70.85 113.36C69.54 113.43 68.22 114.4 66.86 113.94C66.79 113.72 66.77 113.45 66.85 113.27C66.5 113.41 66.12 113.51 65.78 113.66C64.87 114.05 64.16 114.52 63.17 114.68C62.24 114.84 61.28 115.15 60.34 115.23C59.29 115.32 58.2 115.21 57.15 115.22C56.77 115.22 56.38 115.23 56 115.24C55.67 115.31 55.48 115.2 55.43 114.91C55.48 114.7 55.4 114.58 55.2 114.56C54.84 114.66 54.47 114.76 54.11 114.84C53.68 114.92 51.89 115.27 51.7 114.62C51.62 114.34 52.08 113.8 52.29 113.64C50.97 114.23 48.23 114.4 46.97 113.53C45.75 112.69 47.63 112.3 48.36 112.15C49.88 111.83 51.39 111.43 52.93 111.14C53.71 110.99 54.4 110.73 55.14 110.47C55.86 110.22 56.61 110.28 57.35 110.07C59.25 109.53 61.23 109.27 63.15 108.75C64.67 108.34 66.18 107.74 67.61 107.09C69.1 106.42 70.52 105.9 71.84 104.91C72.6 104.34 74.37 103.51 73.86 102.32C73.44 102.54 73.13 102.58 72.63 102.6C72.23 102.62 70.74 102.83 70.48 102.54C70.28 102.32 70.28 102.07 70.41 101.85C69.98 101.96 69.54 102.01 69.06 101.97C68.49 101.93 67.8 101.53 67.25 101.69C67.53 101.51 67.48 101.1 67.5 100.79C68.65 100.6 69.75 100.13 70.84 99.7C71.39 99.49 72.02 99.55 72.52 99.21C72.81 99.02 73.03 98.77 73.31 98.59C74.3 97.96 75.41 97.37 76.33 96.59C76.92 96.09 77.81 95.21 77.94 94.45C78.04 93.85 77.93 93.69 77.44 93.69C77.44 93.76 75.8 94.8 75.62 94.89C75.42 94.98 73.97 95.76 73.68 95.55C73.23 95.2 74.84 94.09 75.18 93.82C75.68 93.42 76.29 93.26 76.71 92.75C77.05 92.34 77.26 91.85 77.61 91.43C78.25 90.67 78.48 89.82 78.18 88.79C78.09 88.78 77.09 88.13 77 88.13C75.91 88.12 74.98 88.87 74.03 89.26C73.15 89.61 72.42 90.15 71.49 90.38C70.51 90.62 69.51 90.41 68.55 90.58C67.95 90.68 67.49 91.03 66.86 91.16C65.88 91.37 65.3 91.07 64.42 90.81C64.37 90.68 64.28 90.58 64.15 90.53C63.65 90.7 63.18 90.92 62.73 91.19C61.32 91.81 59.2 92.51 57.63 92.08C57.59 91.89 57.66 91.76 57.78 91.66C57.08 91.94 56.19 91.83 55.47 91.82C55.05 91.82 53.66 92.07 53.26 91.77C52.41 91.12 53.95 90.44 54.34 90.25C54.74 90.05 55.16 89.9 55.59 89.76H55.65C56.63 89.43 57.6 89.19 58.54 88.74C59.89 88.09 61.28 87.56 62.6 86.89C63.38 86.49 64.28 86.33 65.09 85.97C65.7 85.71 66.18 85.23 66.84 85.07C68.16 84.76 69.64 84.2 70.6 83.22C71.04 82.77 71.37 82.31 71.91 81.97C72.41 81.65 73.01 81.4 73.48 81.04C73.8 80.8 74 80.5 74.24 80.19C74.41 79.97 74.59 79.76 74.84 79.57C75.24 79.27 76.13 78.92 76.07 78.31C75.49 78.09 75.01 78.48 74.49 78.66C74.08 78.81 73.67 78.92 73.26 79.04C72.83 79.16 72.4 79.28 71.98 79.44C71.4 79.65 68.91 80.38 68.62 79.51C68.87 78.98 70.34 78.3 70.86 77.95C70.91 77.91 70.97 77.88 71.02 77.84C71.73 77.37 72.37 76.93 72.78 76.12C72.82 76.04 72.85 75.97 72.88 75.9V75.89C72.89 75.86 72.9 75.84 72.91 75.81C73.13 75.14 72.63 75.08 71.97 75.13C71.34 75.17 70.57 75.32 70.17 75.12C69.98 75.03 69.87 74.86 69.88 74.58C69.92 73.97 71.04 73.77 71.45 73.59C71.54 73.55 71.63 73.51 71.71 73.45C71.8 73.41 71.89 73.35 71.98 73.29C72.38 73.02 72.73 72.7 73.13 72.43C73.51 72.18 73.98 71.93 74.46 71.67C75.19 71.27 75.94 70.84 76.41 70.27C76.72 69.91 77.03 69.53 77.32 69.14C77.38 69.08 77.42 69.04 77.46 68.97L77.47 68.96V68.94C77.59 68.79 77.71 68.63 77.82 68.47C77.69 68.41 77.58 68.39 77.48 68.39C77.04 68.38 76.83 68.8 76.4 68.99C75.72 69.28 75.06 68.88 74.41 68.76C74.18 68.72 73.95 68.72 73.76 68.68C73.45 68.62 73.25 68.48 73.32 67.96C73.35 67.7 73.54 67.46 73.71 67.25C73.78 67.16 73.85 67.07 73.91 66.99C73.84 67.02 73.78 67.06 73.72 67.09C73.24 67.33 72.84 67.5 72.43 67.62C72.18 67.69 71.93 67.74 71.65 67.77C71.38 67.8 71.08 67.82 70.74 67.81C70.61 67.81 70.44 67.83 70.27 67.84H70.26C69.79 67.88 69.26 67.89 69.04 67.52C68.65 66.86 70.34 66.14 70.94 65.84C70.96 65.83 70.98 65.82 71 65.81C71.15 65.73 71.31 65.65 71.46 65.56C72.11 65.21 72.76 64.83 73.4 64.46C73.58 64.35 73.77 64.25 73.95 64.15C74.06 64.08 74.17 64.02 74.28 63.95C74.66 63.75 75.05 63.54 75.44 63.35C75.51 63.32 75.58 63.28 75.65 63.25H75.66C75.74 63.21 75.82 63.17 75.9 63.13C76.69 62.76 77.48 62.38 78.11 61.79C78.15 61.75 78.19 61.72 78.24 61.68C78.61 61.35 79.17 60.91 79.11 60.45C78.49 60.69 77.83 60.76 77.15 61.04C76.87 61.15 76.6 61.27 76.32 61.39H76.31C75.76 61.64 75.22 61.89 74.65 62.11C74.61 62.12 74.58 62.14 74.54 62.15C74.45 62.19 74.35 62.22 74.26 62.24C74.13 62.29 74.01 62.33 73.89 62.36C73.42 62.5 72.96 62.59 72.47 62.6C72.25 62.61 72.02 62.61 71.78 62.59C71.72 62.58 71.65 62.57 71.59 62.56C71.24 62.47 70.87 62.26 70.54 62.3C70.23 62.35 69.69 62.87 69.34 62.97C68.8 63.13 67.73 63.43 67.19 63.14C67.19 63.13 67.19 63.12 67.18 63.11V63.1C67.17 62.93 67.14 62.78 67.1 62.61C66.99 62.63 66.89 62.66 66.78 62.69C66.23 62.86 65.69 63.13 65.12 63.2C64.77 63.24 64.47 63.21 64.18 63.14C63.76 63.06 63.37 62.9 62.88 62.83C62.83 62.57 62.43 61.58 62.57 61.4C62.77 61.14 63.69 61.41 64 61.28C64.11 61.24 64.21 61.18 64.31 61.11C64.73 60.83 65.11 60.4 65.59 60.19C65.75 60.12 65.91 60.05 66.08 59.99C66.6 59.79 67.13 59.63 67.66 59.5C67.85 59.46 68.03 59.41 68.22 59.35C68.35 59.33 68.47 59.29 68.6 59.25C68.6 59.25 68.6 59.25 68.61 59.25C69.61 58.98 70.61 58.64 71.6 58.25C72.17 58.04 72.73 57.81 73.28 57.58H73.29C73.92 57.3 74.54 57.02 75.14 56.74C75.35 56.64 75.55 56.54 75.76 56.44C75.8 56.42 75.82 56.41 75.86 56.39H75.87C75.88 56.38 75.9 56.37 75.91 56.36C77.4 55.62 78.86 54.76 80.07 53.6C80.28 53.41 82.35 50.7 81.31 50.57C80.33 50.68 79.49 51.52 78.54 51.75C78.25 51.82 77.73 51.89 77.21 51.9C76.84 51.9 76.46 51.87 76.16 51.8C75.98 51.75 75.83 51.68 75.72 51.59C75.29 51.22 75.26 50.81 75.46 50.4C75.89 49.51 77.35 48.62 77.83 48.14C76.36 48.57 74.93 48.68 73.39 48.74C73.87 48.37 74.06 47.85 74.4 47.52C74.65 47.27 75.33 47.12 75.83 46.98H75.85C76 46.93 76.12 46.89 76.22 46.84C76.83 46.55 77.11 46.22 77.61 45.79C77.85 45.58 78.03 45.56 78.24 45.34C78.41 45.17 78.51 44.94 78.73 44.75C79.22 44.34 79.94 44.04 80.46 43.57C81.05 43.04 81.37 42.38 81.7 41.64C82.06 40.84 82.1 40.28 81.09 40.48C80.33 40.63 79.4 40.91 78.56 40.66C78.75 39.86 80.27 39.15 80.71 38.41C80.76 38.33 80.8 38.25 80.84 38.18C81.37 37.24 81.75 36.27 81.62 35.17C81.54 34.42 81.39 34.55 80.62 34.56C80.17 34.57 79.16 34.76 78.89 34.27C78.38 33.4 80.15 32.46 80.11 31.58C79.75 31.96 77.47 33.53 77 32.55C76.63 31.78 78.55 29.44 78.85 28.71C79.22 27.85 79.63 26.96 79.93 26.08C80.23 25.22 80.71 24.44 80.94 23.55C81.1 22.92 80.9 18.86 81.93 19.17C82.15 19.89 82.5 20.57 82.55 21.31C82.58 21.74 82.53 22.1 82.61 22.53C82.86 23.87 83.1 25.2 83.46 26.5C83.89 28.02 85.09 30.05 86.24 31.12C86.55 31.41 86.89 31.52 87.17 31.84C87.48 32.19 87.5 32.77 87.77 33.16C88.19 33.75 88.86 34.16 89.4 34.63C89.55 34.76 90.06 35.16 90.23 35.53C90.31 35.68 90.32 35.82 90.24 35.94C90.04 36.22 89.67 36.1 89.35 36.1C89.03 36.11 88.75 36.11 88.49 36.08C88.48 36.08 88.48 36.08 88.48 36.08C88.1 36.04 87.74 35.95 87.3 35.75C86.48 35.38 86.06 34.8 85.36 34.35C85.23 35.27 84.27 36.09 84.84 37.02C84.89 37.12 84.97 37.23 85.07 37.33C85.61 37.89 86.46 38.08 87.09 38.56C87.52 38.89 89.1 40.12 88.98 40.67C87.85 40.94 86.97 40.34 85.98 39.9C85.79 40.34 86.02 40.84 85.86 41.3C85.64 41.2 85.35 40.86 85.06 41.07C84.84 41.22 85.01 41.97 85.07 42.17C85.48 43.52 86.73 44.77 87.62 45.82C88.52 46.9 89.12 47.58 90.36 48.23C91.82 48.98 93.36 49.61 94.85 50.35C94.6 50.85 93.5 50.91 92.99 50.89C91.85 50.86 91.24 50.41 90.32 49.98C89.97 50.63 89.72 50.87 89 50.88C88.24 50.89 87.88 50.37 87.19 50.28C86.63 51.99 88.48 52.86 89.65 53.47C90.47 53.9 91.32 54.28 92.14 54.73C92.72 55.05 93.33 55.56 93.97 55.77C94.39 55.91 94.81 55.75 95.24 55.79C95.74 55.83 96.21 56.06 96.69 56.19C96.75 56.21 96.82 56.22 96.88 56.24V56.25C97.56 56.43 98.24 56.66 98.91 56.89C99.29 57.03 99.66 57.16 100.04 57.29C100.82 57.57 101.6 57.84 102.39 58.07H102.4C102.58 58.11 102.76 58.16 102.94 58.2C103.3 58.29 103.66 58.37 104.02 58.42C104.39 58.49 104.77 58.53 105.15 58.56C106.09 58.63 107.01 58.84 107.92 59.11C107.93 59.12 107.94 59.12 107.96 59.12C108.18 59.19 108.41 59.26 108.64 59.33C109.19 59.51 109.73 59.7 110.28 59.88C110.39 59.92 110.5 59.96 110.61 59.99C111.32 60.26 111.92 60.63 111.83 61.45C111.82 61.5 111.81 61.55 111.8 61.6C111.73 61.61 111.66 61.63 111.59 61.64C111.24 61.7 110.86 61.71 110.49 61.71C109.78 61.71 109.05 61.64 108.37 61.65C108.17 61.65 107.96 61.66 107.75 61.66C107.48 61.67 107.2 61.68 106.93 61.66C106.6 61.64 106.27 61.58 105.96 61.46C105.77 62.35 106.31 63.05 105.02 62.88C104.95 62.87 104.88 62.86 104.8 62.83H104.79C103.71 62.64 102.29 61.98 101.39 61.22C101.37 61.21 101.35 61.19 101.33 61.17C101.2 61.07 101.09 60.95 100.99 60.84C101.01 61.05 101.03 61.26 101.04 61.46C101.06 61.75 101.05 62.02 101 62.25C100.98 62.33 100.96 62.41 100.93 62.48C100.78 62.84 100.45 63.11 99.8 63.2C99.61 63.23 99.44 63.23 99.28 63.2C99.11 63.19 98.96 63.15 98.82 63.09C98.65 63.04 98.49 62.96 98.34 62.87C97.86 62.56 97.45 62.11 97.02 61.68C96.88 61.55 96.69 61.29 96.48 61.03C96.16 60.63 95.8 60.2 95.54 60.13C95.18 60.97 96.02 61.73 95.76 62.54C95.07 62.76 94.39 62.7 93.73 62.49C93.65 62.47 93.58 62.44 93.5 62.42C93 62.23 92.52 61.96 92.06 61.66C91.65 61.39 91.26 61.1 90.91 60.82C90.05 60.14 89.25 59.36 88.52 58.55C88.15 58.14 87.78 57.39 87.19 57.34C86.91 58.02 87.3 58.43 87.68 58.95C88.37 59.88 88.92 60.94 89.64 61.85C90.12 62.46 90.71 63.06 91.36 63.57C91.75 63.88 92.17 64.16 92.6 64.39C92.84 64.52 93.08 64.64 93.32 64.74C93.39 64.77 93.45 64.79 93.51 64.82C93.83 64.94 94.1 65.02 94.42 65.02C94.53 65.02 94.65 65.01 94.79 64.98C95.24 64.88 95.55 64.64 96.05 64.69H96.06C96.36 64.73 96.79 64.91 97.25 65.18C97.56 65.36 97.89 65.58 98.2 65.82C98.29 65.89 98.38 65.96 98.46 66.04C98.57 66.12 98.68 66.22 98.77 66.31C99.39 66.9 99.84 67.55 99.78 68.07C99.32 68.22 98.9 68.19 98.49 68.08C98.4 68.05 98.3 68.02 98.2 67.98C97.85 67.86 97.52 67.68 97.17 67.52C96.76 67.32 96.35 67.14 95.95 66.96C95.83 66.91 95.71 66.86 95.59 66.8C95.54 66.79 95.49 66.77 95.45 66.74H95.44C95.23 66.65 95.02 66.56 94.81 66.46C94.73 66.43 94.66 66.4 94.58 66.36C94.52 66.51 94.53 66.68 94.6 66.86C94.67 67.05 94.79 67.26 94.9 67.47C95.19 67.97 95.45 68.47 94.9 68.78C94.67 68.91 94.44 68.87 94.21 68.76C94.08 68.7 93.95 68.62 93.82 68.54C93.45 68.3 93.08 68.02 92.71 68.08C92.66 68.08 92.62 68.1 92.57 68.12C92.25 68.26 92.09 68.55 91.95 68.87C91.87 69.07 91.78 69.28 91.67 69.46C91.51 69.73 91.3 69.96 90.91 70.03C90.25 70.16 89.7 70.03 89.22 69.75C88.82 69.53 88.47 69.22 88.12 68.9C87.74 68.54 87.38 68.16 86.98 67.85C86.98 67.85 86.98 67.85 86.97 67.85C86.84 67.75 86.71 67.66 86.57 67.58C86.54 67.68 86.53 67.79 86.55 67.91C86.55 68.05 86.58 68.18 86.64 68.33V68.34C86.78 68.77 87.07 69.23 87.39 69.66C87.77 70.19 88.19 70.68 88.43 71.03C88.46 71.08 88.49 71.13 88.52 71.17C88.87 71.76 89.28 72.25 89.76 72.69C90.29 73.17 90.89 73.58 91.54 73.98C92.58 74.62 93.81 74.43 94.91 74.85C95.59 75.11 98.73 76.51 98.54 77.61C97.91 77.82 97.17 77.67 96.55 77.49C95.93 77.31 95.22 76.67 94.57 76.76C94.5 77.02 94.54 77.34 94.52 77.61C93.86 77.85 93.29 77.65 92.72 77.32C92.34 77.1 91.76 76.29 91.41 77C91.15 77.54 92.07 78.46 92.27 78.71C92.97 79.61 93.6 80.34 94.46 81.05C97.73 83.73 101.09 86.72 105.22 87.97C105.47 88.05 105.73 88.12 105.99 88.18C109.38 89.01 113.2 88.79 116.28 90.59C116.99 91 118.6 91.84 117.94 93.01C117.01 94.65 113.29 91.46 112.15 92.16C112.39 92.47 112.7 92.69 112.94 93C111.48 93.5 110.11 92.05 108.7 92.14C108.62 92.64 108.8 93.14 108.7 93.64C106.85 94.21 104.95 92.64 103.48 91.7C103.39 91.65 103.31 91.59 103.22 91.54C101.39 90.43 102.86 92.32 102.54 93.02C101.81 94.6 93.75 88.21 91.94 87.28C92.57 88.33 93.76 90.2 93.64 91.45C92.49 92.1 91.34 90.44 90.64 89.77C89.92 90.38 91.25 92.03 90.18 92.53C89.78 92.72 88.53 92.26 88.19 92.08C87.58 91.77 87.39 91.36 86.89 90.98C86.81 91.15 86.79 91.33 86.85 91.51C87.24 92.74 88.51 93.39 88.94 94.61C89.39 95.9 90.4 96.52 91.47 97.35C92.88 98.45 94.4 99.33 96.06 99.94C96.55 100.12 97.89 100.54 98.52 101.16C98.76 101.39 98.89 101.64 98.85 101.92C98.53 102.08 98.2 102.17 97.88 102.21C96.59 102.37 95.37 101.61 94.24 100.82C94.16 101.32 94.53 102.74 94.23 103.06C93.61 103.68 92.54 102.21 91.8 102.31C91.57 103.05 92.58 104.15 93 104.7C93.44 105.27 94.04 105.76 94.67 106.22C95.31 106.68 95.99 107.1 96.58 107.51C98.05 108.52 99.78 109.47 101.46 110.12C102.64 110.57 103.89 110.78 105.08 111.19C105.8 111.44 106.46 111.84 107.17 112.11C107.86 112.38 108.58 112.52 109.29 112.73C110.22 113.02 111.07 113.45 112.03 113.63C112.81 113.77 113.63 113.82 114.42 113.91C115.58 114.04 117.17 113.99 118.24 114.47C118.56 114.61 119.93 115.43 119.74 115.78C117.79 116.16 115.35 115.86 113.44 115.51C111.64 115.18 112.66 115.8 113.23 116.71C112.82 116.83 112.37 116.74 111.94 116.75C111.38 116.77 111.06 116.99 110.53 117.09C109.42 117.29 108.14 116.85 107.16 116.39C106.5 116.08 105.78 115.76 105.19 115.34C104.9 115.14 104.78 114.98 104.45 114.93C104.16 115.98 104.58 116.51 103.15 116.46C101.74 116.42 100.06 115.65 99.39 114.33C99.06 114.43 98.91 114.8 98.59 114.99C97.51 115.64 96.11 115.06 95.1 114.56C93.19 113.63 91.15 112.99 89.25 112.03C89.05 111.93 88.81 111.79 88.58 111.67C88.11 111.44 87.7 111.36 87.82 112.12C87.84 112.28 87.88 112.43 87.94 112.59C88.5 114.31 90.6 115.93 92.11 116.58C93.15 117.02 94.08 117.23 95.03 117.93C96.03 118.66 97.35 119.01 98.48 119.53C99.74 120.1 100.96 120.76 102.25 121.24C103.65 121.77 105.12 121.75 106.57 122.05C107.8 122.3 108.93 122.63 110.11 122.87C110.12 122.87 110.12 122.87 110.12 122.87C110.74 123 111.37 123.1 112.04 123.15C113.92 123.29 115.73 123.62 117.6 123.83C117.92 123.87 118.23 123.92 118.51 124C119.64 124.25 120.52 124.74 121.51 125.5C121.82 125.74 123.05 126.34 123.15 126.68C123.44 127.65 120.6 127.2 120.52 127.19C119.23 126.97 118.02 126.25 116.78 125.79H116.77C116.23 125.58 115.7 125.43 115.15 125.39C115.13 126.06 115.31 126.84 115.15 127.5C114.44 127.71 113.59 127.51 112.93 127.25C112.36 127.02 111.54 126.23 110.9 126.32C110.69 126.84 111.15 127.64 110.82 128.12C110.43 128.69 109.6 128.53 108.97 128.41C108.07 128.25 107.19 127.73 106.42 127.27C105.99 127.01 105.45 126.58 105.06 127.19C104.78 127.65 105.21 128.31 104.99 128.78C104.69 129.4 103.96 129.44 103.35 129.35C101.75 129.13 100.03 128.17 98.63 127.56C98.11 128.28 98.16 129.14 97.12 129.35C95.84 129.61 94.29 128.05 93.31 127.29C92.33 126.53 91.46 126.36 90.25 126.29C89.75 126.26 89.4 126.11 89.32 125.7C89.46 128 92.44 130 94.3 130.73C95.14 131.06 96.04 131.22 96.89 131.5C99.24 132.26 101.15 133.88 103.39 134.84C105 135.53 106.55 136.32 108.25 136.77C109.26 137.04 111.62 137.25 111.15 138.87C109.58 139.41 107.42 138.23 105.96 137.67C105.38 137.44 105.14 137.23 104.73 137.56C104.57 137.68 104.6 138.08 104.37 138.25C103.86 138.61 103.15 138.18 102.71 137.93C101.98 137.52 101.23 137.15 100.38 137.06C99.42 136.96 98.78 137.23 97.94 136.55C97.85 137.36 100.49 139.58 101.08 139.87C101.75 140.19 102.33 140.35 102.95 140.76C103.46 141.1 103.86 141.55 104.35 141.92C106.03 143.2 108.44 143.82 110.37 144.69C112.45 145.64 114.82 146.1 117.05 146.5C119.04 146.86 120.96 147.36 122.94 147.77C124.41 148.07 126.15 148.27 127.49 148.95C128.75 149.59 127.81 150.51 126.91 150.95Z" fill="#0A2F44"/>
<path d="M724.73 132.39C727.44 133.13 730.14 134.88 733 135.2C728.49 135.09 723.96 135.21 719.45 135.21C716.51 135.21 713.44 135.01 710.44 135.06C709.21 135.08 707.98 135.15 706.78 135.28C703.67 135.64 700.63 135.82 697.5 136.1C695.18 136.31 692.73 137.74 690.44 137.56C691.82 134.54 695.86 132.53 696.06 128.79C694.06 128.1 690.88 130.75 689.04 131.56C686.73 132.57 682.35 134.67 679.81 133.43C680.91 131.67 683.35 130.16 685.18 129.02C687.48 127.59 689.45 125.65 691.67 124.23C692.25 123.86 692.71 123.63 693.15 123.39C693.18 123.38 693.2 123.36 693.23 123.35C693.76 123.06 694.27 122.75 694.91 122.14C696.24 120.9 696.7 119.98 697.78 118.53C698.31 117.81 699.28 117.31 700.28 116.84C702.04 116 703.93 115.25 703.87 113.51C703.87 113.15 703.77 112.74 703.56 112.28C703.2 111.48 701.66 110.9 700.84 110.1C699.52 108.79 699.64 108.52 699.27 106.71C695.63 108.06 692.16 109.13 688.15 109.12C689.53 108 691.46 107.8 692.96 106.83C693.56 106.45 693.99 105.83 694.52 105.47C694.73 105.33 695.48 105.09 695.65 104.93C696.37 104.23 696.87 103.18 697.58 102.33C698.21 101.57 698.81 101.42 699.49 100.98C699.57 100.93 699.65 100.88 699.73 100.82C700.42 100.32 701.1 99.85 701.73 99.34C702.53 98.69 703.25 97.99 703.79 97.12C703.91 96.97 704 96.81 704.09 96.64C704.13 96.57 704.16 96.51 704.19 96.44C704.73 95.33 704.74 94.3 705.2 93.22C705.24 93.12 705.3 93.02 705.35 92.93C705.66 92.43 706.14 92.03 706.42 91.52C706.51 91.36 706.58 91.19 706.62 91C706.66 90.81 706.67 90.6 706.64 90.36C706.42 90.39 706.26 90.46 706.13 90.56V90.57C706.04 90.64 705.96 90.73 705.91 90.83H705.9C705.87 90.88 705.84 90.93 705.81 90.98C705.63 91.3 705.5 91.68 705.17 91.97C705.01 92.11 704.87 92.23 704.74 92.32C704.08 92.8 703.67 92.71 702.69 92.76H702.68C702.28 92.78 701.8 92.84 701.35 92.81C701.12 92.8 700.9 92.76 700.7 92.68C700.23 92.48 700.04 91.85 699.64 91.69C699.54 91.65 699.43 91.61 699.34 91.58C699.26 91.56 699.18 91.54 699.11 91.53C698.14 91.35 697.43 91.88 696.43 92.42C696.23 92.53 696.01 92.64 695.77 92.75C695.74 92.77 695.7 92.78 695.67 92.79C695.14 93.02 694.64 93.18 694.15 93.28C693.45 93.44 692.78 93.49 692.06 93.54C691.91 93.54 691.76 93.55 691.6 93.56C691.3 93.58 691 93.6 690.68 93.62C691.15 93.42 691.58 93.14 691.99 92.83C692 92.82 692 92.82 692.01 92.82C692.74 92.26 693.42 91.59 694.2 91.09C694.29 91.02 694.38 90.97 694.47 90.91C694.69 90.78 694.92 90.65 695.16 90.53C696.23 89.96 697.39 89.47 698.3 88.76C698.34 88.73 698.38 88.7 698.41 88.68C698.91 88.33 699.04 88.46 699.44 87.91C699.54 87.77 699.61 87.57 699.66 87.34C699.72 87.11 699.77 86.87 699.83 86.64C699.88 86.46 699.93 86.3 700.01 86.17C700.1 86.01 700.19 85.87 700.29 85.76C700.86 85.06 701.48 85.11 702.18 84.52C702.64 84.13 702.9 83.77 703.05 83.4C703.3 82.81 703.29 82.18 703.48 81.32C703.64 80.6 703.89 80.11 704.19 79.66C704.3 79.51 704.42 79.36 704.54 79.21C704.66 79.06 704.79 78.91 704.93 78.75L705.08 78.57C705.16 78.47 705.25 78.37 705.33 78.27C705.59 77.95 705.81 77.61 705.99 77.27C706 77.26 706 77.26 706 77.26C706.62 76.11 706.89 74.85 707.3 73.62C707.33 73.51 707.37 73.41 707.41 73.3C707.59 72.78 707.8 72.27 708.09 71.78C707.78 72.22 707.36 72.55 706.88 72.78C706.85 72.81 706.81 72.82 706.77 72.83C705.63 73.37 704.16 73.4 702.89 73.21C702.56 73.17 702.24 73.1 701.95 73.03C701.64 70.85 703.71 70.58 704.89 69.73C704.98 69.67 705.07 69.6 705.15 69.52C706.02 68.7 706.35 67.63 706.68 66.56C706.7 66.51 706.72 66.45 706.73 66.4L706.74 66.39C707.02 65.49 707.32 64.61 707.95 63.9C708.01 63.83 708.07 63.77 708.14 63.71C708.14 63.7 708.14 63.7 708.15 63.7C708.53 63.33 708.93 63.11 709.31 62.88C709.32 62.88 709.32 62.87 709.33 62.87C709.87 62.54 710.35 62.17 710.67 61.24C710.69 61.19 710.7 61.14 710.72 61.09C711 60.21 710.94 59.17 710.89 58.19C710.89 58.18 710.89 58.18 710.89 58.17C710.87 57.81 710.85 57.46 710.85 57.12C710.84 55.15 709.8 50.07 711.66 48.65L714.07 51.86L714.11 51.91C714.11 54.08 713.84 56.39 714.49 58.48C714.97 59.99 715.92 60.95 715.58 62.53C715.31 63.82 714.92 64.38 715.04 65.21C715.1 65.62 715.27 66.1 715.65 66.77C716.38 68.06 717.36 69.1 718.62 69.85C719.52 70.38 720.6 70.46 721.31 71.31C719.97 72.24 718.15 72.86 716.56 73.1C716.39 73.12 716.14 73.12 715.85 73.11H715.84C715.53 73.09 715.18 73.06 714.81 73.04C713.75 73 712.63 73.04 712.55 73.72C712.58 73.74 712.61 73.76 712.63 73.78C712.71 73.83 712.78 73.89 712.85 73.96C713.79 74.86 713.77 76.84 714.24 77.97C714.25 78 714.26 78.02 714.27 78.05C714.7 78.99 715.34 79.83 715.95 80.68C716.47 81.41 716.97 82.15 717.31 82.98C717.45 83.34 717.57 83.71 717.69 84.09C717.79 84.46 717.89 84.84 718 85.21C718.12 85.66 718.26 86.12 718.43 86.56C718.57 86.94 718.75 87.31 718.96 87.67C719.74 88.97 720.92 89.58 722.09 90.18C722.83 90.55 723.56 90.93 724.19 91.47C724.19 91.47 724.19 91.47 724.2 91.48C724.3 91.56 724.4 91.66 724.5 91.76C724.47 91.77 724.43 91.79 724.39 91.8C724.02 91.95 723.57 92.04 723.09 92.09C722.16 92.2 721.1 92.16 720.12 92.11C719.43 92.06 718.78 92 718.25 91.97C717.68 91.93 717.06 91.81 716.42 91.65C716.42 91.65 716.41 91.65 716.4 91.65C716.12 91.57 715.83 91.49 715.54 91.4C713.15 90.7 710.55 89.69 708.63 90.42C708.66 90.5 708.69 90.58 708.72 90.65C709.55 92.76 711.78 93.75 713.36 95.2C714.29 96.05 714.56 97.32 714.84 98.53C714.88 98.68 714.91 98.82 714.95 98.96C715.22 100.03 715.58 101.02 716.52 101.59C717.66 102.27 718.38 101.85 719.42 103.02C719.59 103.2 719.74 103.38 719.89 103.55C720.64 104.43 721.22 105.15 722.36 105.81C723.86 106.67 730.62 107.35 729.62 109.8C728.31 109.93 727.01 109.32 725.71 109.16C724.3 109 722.9 109.16 721.49 109C720.5 108.89 717.99 107.69 717.02 108.3C716.49 108.63 716.17 109.21 715.98 109.9C715.64 111.12 715.72 112.67 715.8 113.67C715.27 112.98 711.72 112.57 711.09 113.31C710.71 113.75 710.79 114.23 711.07 114.7C711.41 115.3 712.07 115.86 712.48 116.25C714.64 118.32 717.59 119.3 719.85 121.34C721.57 122.88 722.65 124.64 724.69 125.82C726.05 126.6 729.99 128.37 730.39 129.94C731.1 132.81 721.74 129.84 719.86 130.48C720.02 132.09 723.54 132.07 724.73 132.39Z" fill="#0A2F44"/>
<path d="M284.38 61.38C282.77 61.08 281.27 60.27 279.74 59.73C278.03 59.13 276.53 58.08 274.83 57.46C273.71 57.05 272.49 57.03 271.4 56.5C270.75 56.19 270.19 55.71 269.53 55.41C271.87 56.06 273.7 56.53 276.18 56.53C277.97 56.53 279.73 56.54 281.45 55.98C282.23 55.73 282.83 55.48 283.67 55.46C284.44 55.43 290.02 55.88 289.32 54.58C287.2 54.28 285.18 53.77 283.13 53.17C282.06 52.86 281.15 52.58 280.04 52.49C278.79 52.39 278.12 51.98 276.95 51.61C275.12 51.03 273.36 50.49 271.5 50C269.99 49.6 268.37 49.11 267.31 48C266.92 47.59 265.44 46.5 265.37 45.98C265.26 45.11 266.6 45.55 266.89 45.58C269.14 45.81 271.39 46.34 273.66 46.41C274.99 46.45 276.51 46.54 277.76 46.01C278.28 45.79 278.68 45.26 279.17 45.07C280.28 44.64 283.17 45.43 283.45 43.56C282.34 43.13 280.45 43.4 279.23 43.24C276.98 42.93 274.02 43.53 271.9 42.74C271.14 42.46 270.54 42.04 269.97 41.47C269.28 40.77 269.08 39.79 268.49 39.08C268.79 39.08 269.08 39.05 269.34 38.98C270.14 38.79 270.59 38.36 271.31 37.97C268.97 37 265.58 36.7 264.41 34.05C265.51 33.81 267.51 34.53 268.44 33.91C269.93 32.91 267.75 32.23 266.96 31.72C265.33 30.65 265.33 29.67 264.71 27.99C264.26 26.77 263.65 26.67 262.96 24.49C262.82 24.52 262.69 24.55 262.56 24.58C262.52 25.54 261.97 25.8 261.45 26.5C260.97 27.14 260.7 27.87 260.23 28.52C259.44 29.61 258.02 30.06 257.64 31.43C259 31.83 259.96 31.12 259.1 33.01C258.59 34.13 257.97 35.08 257.27 36.01C256.82 36.62 256.21 37.99 255.49 38.41C254.41 39.04 252.41 38.84 251.61 39.91C252.62 40.25 254.49 40.14 255.58 40.03C256.45 39.94 256.98 39.7 257.61 39.14C258.04 38.76 258.18 37.88 258.91 38.04C259.09 39.24 257.24 41.91 256.47 42.51C255.2 43.51 253.33 44 251.7 44.01C249.99 44.02 249.49 44.5 248.24 45.51C246.34 47.04 243.74 46.95 241.5 47.62C242.09 50.15 248.96 47.58 250.48 47.47C251.91 47.37 252.76 48.23 254.32 48.04C255.28 47.92 256.04 47.53 256.86 47.02C257.55 46.58 258.57 45.43 259.44 45.51C259.61 47.07 258.08 49.14 256.96 50.12C254.91 51.91 252.56 52.51 249.96 53.68C248.04 54.55 248.08 54.27 246.29 54.62C246.03 54.67 245.15 54.99 244.96 55.1C243.13 56.16 244.1 57.26 245.52 57.49C244.01 57.51 242.24 58.03 241.18 58.93C242.52 59.47 245.57 59.18 246.98 58.99C249.24 58.68 251.45 57.66 253.66 57.1C254.88 56.79 255.42 57.33 256.54 57.55C257.44 57.72 258.61 57.48 259.39 57.04C259.94 56.73 260.16 56.16 260.83 56.04C259.95 57.45 258.26 58.87 257.02 59.96C254.79 61.91 252.29 62.05 249.51 62.62C246.65 63.21 243.75 63.72 240.94 64.5C239.41 64.92 238.35 65.41 236.95 66.04C236.12 66.41 235.12 66.4 234.42 67.02C234.76 68.24 240 67.52 241.07 67.42C243.77 67.17 246.4 66.18 249.1 65.97C251.02 65.82 252.31 66.94 254.13 67.05C257.22 67.24 259.96 65.98 263 65.98C268.59 66 274.42 64.83 279.95 63.99C282.36 63.63 284.79 63.33 287.21 63.06C288.12 62.96 291.7 63.05 291.97 61.59C289.72 60.69 286.76 61.82 284.38 61.38Z" fill="#0A2F44"/>
<path d="M243.65 0.199982C243.65 1.67998 243.35 2.95999 243.19 4.42999C243.03 5.99999 243.37 7.64999 243.16 9.20999C243.03 10.17 242.87 10.19 242.16 10.8C241.32 11.53 241.27 12.26 240.73 13.06C242.25 13.92 239.96 16.99 239.33 17.83C239.9 18.28 240.22 18.54 240.88 18.71C241.45 18.86 242.23 18.54 242.55 19.31C243.16 20.76 240.3 21.17 239.39 21.19C238.22 21.22 238.55 21.2 238.04 22.07C237.73 22.59 237.28 23.24 236.91 23.71C236.57 24.13 235.93 24.8 235.54 25.09C234.95 25.53 233.89 25.2 233.69 26.09C234.8 26.42 236.32 26.3 237.26 25.83C238.21 25.35 240.06 24.67 241.18 25.16C243.18 26.02 238.38 30.05 237.35 30.63C236.72 30.98 236.55 31.1 236.02 31.58C235.43 32.11 234.98 32.06 234.24 32.32C233.87 32.45 233.39 32.97 233.03 33.08C232.28 33.33 232.05 33.06 231.5 33.66C230.94 34.28 231.07 35.23 230.15 35.62C229.58 35.86 228.77 35.7 228.16 35.7C227.14 35.69 224.99 35.21 224.66 36.56C227.4 37.8 229.48 38.29 232.06 36.36C232.25 36.94 232.07 37.53 232.18 38.14C233.22 38.73 235.38 37.25 235.76 36.24C236.53 36.2 236.68 37.16 237.62 37.23C238.41 37.29 239.17 36.95 239.68 36.36C239.73 36.78 239.5 37.05 239.35 37.38C238.98 38.2 238.8 38.6 238.52 39.56C238.34 40.19 237.92 40.74 237.74 41.34C237.58 41.88 237.68 42.46 237.41 42.97C236.5 44.7 234.85 44.68 233.15 44.68C232.35 44.68 231.05 44.36 230.35 44.7C229.74 45 229.43 45.48 228.79 45.8C227.74 46.32 226.83 46.15 225.64 46.17C224.51 46.19 223.75 46.63 222.67 46.79C222.92 48.15 226.49 47.69 227.47 47.68C227.88 47.68 228.71 47.53 229.14 47.64C229.85 47.83 230.21 48.53 230.87 48.68C232.13 48.95 233.03 47.5 234.39 47.66C234.89 47.72 235.41 48.16 235.87 48.12C236.68 48.05 237.36 47.2 238.09 46.82C238.23 47.6 238.18 48.51 238.15 49.32C238.11 50.56 238.17 50.66 237.18 51.29C236.3 51.85 235.48 52.59 234.56 53.07C233.49 53.63 232.25 53.82 231.16 54.44C230.63 54.74 230.01 55.38 229.45 55.58C228.21 56.02 226.4 55.68 225.13 55.67C222.91 55.65 220.61 56.18 218.65 57.28C218.71 59.26 224.25 58.64 225.4 58.68C226.94 58.73 228.27 59.31 229.86 59.21C232.62 59.03 235.78 58.09 238.56 58.75C239.06 60.39 239.17 61.98 239.13 63.69C239.1 65.4 239.08 66.63 240.89 66.68C243.7 66.77 246.32 66.44 249.1 66.22C250.4 66.12 255.26 66.96 256.17 65.77C255.76 63.96 253.67 62.97 253.11 61.13C252.97 60.68 252.5 59.69 252.67 59.26C253.91 58.85 255.41 59.09 256.74 58.71C258.5 58.21 260.28 57.62 262.02 57.05C263.89 56.44 267.84 55.94 267.64 53.2C265.19 52.3 263.19 55.62 260.86 55.18C259.92 55 259.09 54.03 258.08 53.77C256.51 53.37 254.82 53.51 253.28 52.94C252.4 52.61 251.8 52.09 250.93 51.8C249.91 51.47 248.88 51.14 247.86 50.79C246.44 50.3 245.19 49.75 243.81 49.18C244.86 48.61 244.45 47.71 244.68 46.74C245.95 46.23 247.79 46.86 249.17 46.59C250.05 46.34 250.92 46.07 251.78 45.77C252.59 45.71 253.39 45.65 254.2 45.59C255.13 45.34 255.79 44.55 256.63 44.17C257.36 43.84 258.42 43.7 258.68 42.74C256.56 42.07 253.98 42.97 251.94 43.38C249.89 43.79 248.49 43.7 246.64 42.79C245.95 42.45 244.66 42.09 244.11 41.57C243.46 40.95 242.86 38.05 243.15 37.19C244.28 37.26 245.34 37.71 246.5 37.71C248.03 37.72 249.47 37.06 250.97 37.18C251.72 37.24 255.52 38.6 255.12 36.23C254.09 35.86 252.78 36.32 251.69 36.12C249.56 35.73 248.27 34.09 246.62 32.89C245.47 32.06 245.4 31.77 245.11 30.43C244.84 29.2 243.87 28.05 244.15 26.73C246.02 26.08 249.02 25.96 248.62 23.17C247.65 22.9 246.92 23.2 245.94 22.59C245.23 22.15 244.08 21.2 244.12 20.26C245.66 19.88 248.66 18.71 248.71 16.7C247.29 16.16 242.51 15.76 243.09 13.11C243.21 12.55 243.74 12.64 244.05 12.18C244.35 11.75 244.69 10.15 244.5 9.69998C244.21 9.67998 243.93 9.65998 243.64 9.63998V0.199982H243.65Z" fill="#0A2F44"/>
<path d="M645.62 32.4C645.62 33.88 645.32 35.16 645.16 36.63C645 38.2 645.34 39.85 645.13 41.41C645 42.37 644.84 42.39 644.13 43C643.29 43.73 643.24 44.46 642.7 45.26C644.22 46.12 641.93 49.19 641.3 50.03C641.87 50.48 642.19 50.74 642.85 50.91C643.42 51.06 644.2 50.74 644.52 51.51C645.13 52.96 642.27 53.37 641.36 53.39C640.19 53.42 640.52 53.4 640.01 54.27C639.7 54.79 639.25 55.44 638.88 55.91C638.54 56.33 637.9 57 637.51 57.29C636.92 57.73 635.86 57.4 635.66 58.29C636.77 58.62 638.29 58.5 639.23 58.03C640.18 57.55 642.03 56.87 643.15 57.36C645.15 58.22 640.35 62.25 639.32 62.83C638.69 63.18 638.52 63.3 637.99 63.78C637.4 64.31 636.95 64.26 636.21 64.52C635.84 64.65 635.36 65.17 635 65.28C634.25 65.53 634.02 65.26 633.47 65.86C632.91 66.48 633.04 67.43 632.12 67.82C631.55 68.06 630.74 67.9 630.13 67.9C629.11 67.89 626.96 67.41 626.63 68.76C629.37 70 631.45 70.49 634.03 68.56C634.22 69.14 634.04 69.73 634.15 70.34C635.19 70.93 637.35 69.45 637.73 68.44C638.5 68.4 638.65 69.36 639.59 69.43C640.38 69.49 641.14 69.15 641.66 68.56C641.71 68.98 641.48 69.25 641.32 69.58C640.95 70.4 640.77 70.8 640.49 71.76C640.31 72.39 639.89 72.94 639.71 73.54C639.55 74.08 639.65 74.66 639.38 75.17C638.47 76.9 636.82 76.88 635.12 76.88C634.32 76.88 633.02 76.56 632.32 76.9C631.71 77.2 631.4 77.68 630.76 78C629.71 78.52 628.8 78.35 627.61 78.37C626.48 78.39 625.72 78.83 624.64 78.99C624.89 80.35 628.46 79.89 629.44 79.88C629.85 79.88 630.68 79.73 631.11 79.84C631.82 80.03 632.18 80.73 632.84 80.88C634.1 81.15 635 79.7 636.36 79.86C636.86 79.92 637.38 80.36 637.84 80.32C638.65 80.25 639.33 79.4 640.06 79.02C640.2 79.8 640.15 80.71 640.12 81.52C640.08 82.76 640.14 82.86 639.15 83.49C638.27 84.05 637.45 84.79 636.53 85.27C635.46 85.83 634.22 86.02 633.13 86.64C632.6 86.94 631.98 87.58 631.42 87.78C630.18 88.22 628.37 87.88 627.1 87.87C624.88 87.85 622.58 88.38 620.62 89.48C620.68 91.46 626.22 90.84 627.37 90.88C628.91 90.93 630.24 91.51 631.83 91.41C634.59 91.23 637.75 90.29 640.53 90.95C641.03 92.59 641.14 94.18 641.1 95.89C641.07 97.6 641.05 98.83 642.86 98.88C645.67 98.97 648.29 98.64 651.07 98.42C652.37 98.32 657.23 99.16 658.15 97.97C657.74 96.16 655.65 95.17 655.09 93.33C654.95 92.88 654.48 91.89 654.65 91.46C655.89 91.05 657.39 91.29 658.72 90.91C660.48 90.41 662.26 89.82 664 89.25C665.87 88.64 669.82 88.14 669.62 85.4C667.17 84.5 665.17 87.82 662.84 87.38C661.9 87.2 661.07 86.23 660.06 85.97C658.49 85.57 656.8 85.71 655.26 85.14C654.38 84.81 653.78 84.29 652.91 84C651.89 83.67 650.86 83.34 649.84 82.99C648.42 82.5 647.17 81.95 645.79 81.38C646.84 80.81 646.43 79.91 646.66 78.94C647.94 78.43 649.77 79.06 651.15 78.79C652.03 78.54 652.9 78.27 653.76 77.97C654.57 77.91 655.37 77.85 656.18 77.79C657.11 77.54 657.77 76.75 658.61 76.37C659.34 76.04 660.4 75.9 660.66 74.94C658.54 74.27 655.96 75.17 653.92 75.58C651.87 75.99 650.47 75.9 648.62 74.99C647.93 74.65 646.64 74.29 646.09 73.77C645.44 73.15 644.84 70.25 645.13 69.39C646.26 69.46 647.32 69.91 648.48 69.91C650.01 69.92 651.45 69.26 652.95 69.38C653.7 69.44 657.5 70.8 657.1 68.43C656.07 68.06 654.76 68.52 653.67 68.32C651.54 67.93 650.25 66.29 648.6 65.09C647.45 64.26 647.38 63.97 647.08 62.63C646.81 61.4 645.84 60.25 646.12 58.93C647.99 58.28 650.99 58.16 650.59 55.37C649.62 55.1 648.89 55.4 647.91 54.79C647.2 54.35 646.05 53.4 646.09 52.46C647.63 52.08 650.63 50.91 650.68 48.9C649.26 48.36 644.48 47.96 645.06 45.31C645.18 44.75 645.71 44.84 646.02 44.38C646.32 43.95 646.66 42.35 646.47 41.9C646.18 41.88 645.9 41.86 645.61 41.84V32.4H645.62Z" fill="#0A2F44"/>
</svg>
