<svg width="71" height="75" viewBox="0 0 71 75" fill="none" xmlns="http://www.w3.org/2000/svg">
<path d="M44.7226 60.2136C42.305 65.3985 33.8219 68.2148 28.5487 66.366C26.0399 65.4874 24.0163 63.4545 21.992 61.8108C19.0616 59.447 14.9145 57.9583 12.4627 55.1381C11.1508 53.6304 9.41246 49.6895 9.58991 47.7289C9.97788 43.5345 11.9014 38.5869 14.8858 35.5476C16.0414 34.3645 17.3285 33.3679 18.4118 32.1049C23.3148 26.3409 27.9634 18.3611 35.519 15.8268C37.0079 15.3291 37.4312 15.1684 38.9662 15.7167C41.8833 16.739 44.5662 17.6025 47.3659 18.9569C50.2105 20.3331 53.5299 22.2414 53.6088 25.7067C53.7121 30.2854 54.1032 34.5705 52.7469 38.9936C51.122 44.287 50.0355 49.2978 47.6071 54.2995C46.6291 56.2591 45.6467 58.2277 44.7226 60.2136Z" fill="#0A2F44"/>
<path d="M67.164 26.1097C68.2042 24.1137 70.9268 23.094 68.395 21.6923C62.8773 18.6339 56.561 16.6882 51.25 13.2745C48.554 11.5479 46.1014 10.0067 43.2026 8.58182C40.0479 7.04314 36.8933 5.52682 33.7473 3.97016C32.1968 3.20279 30.8534 2.58096 29.1721 2.15031C28.5668 1.99974 26.4537 0.880133 25.9848 0.951842C24.7347 1.16543 25.3237 0.573735 24.705 2.23014C23.9291 4.27718 23.1848 7.26312 22.8754 9.44868C25.1174 10.9427 27.8867 11.9485 30.3045 13.1277C32.1919 14.0483 34.0636 15.1837 36.0123 15.9561C37.9519 16.7241 40.1491 16.85 41.9401 17.9683L64.5306 29.8209C64.6919 30.3113 64.7461 30.8161 64.7019 31.3174C65.3688 29.5622 66.2905 27.7865 67.164 26.1097Z" fill="#0A2F44"/>
<path d="M26.8014 23.8915C21.2602 23.4363 16.2503 26.0662 12.596 30.1139C10.5167 32.4153 8.74104 35.1207 7.39546 37.9024C6.91764 38.8821 6.58996 40.1242 6.90919 41.2033C7.27009 42.4252 8.51942 43.0345 9.72813 42.7006C11.0796 42.325 12.2437 41.1015 13.277 40.2147C14.4745 39.1966 15.6359 38.1387 16.7564 37.0274C19.0242 34.7957 21.125 32.4046 23.032 29.8634C23.7648 28.8857 25.142 27.4991 24.6993 26.1483C24.16 24.5168 22.3491 25.0132 21.2279 25.6012C18.8208 26.8637 16.7009 28.6781 15.081 30.8587C13.2935 33.269 11.7985 36.3116 11.6272 39.3544C11.5512 40.7193 11.8694 42.1428 13.0227 42.9946C13.9599 43.6964 15.2449 43.8448 16.2309 43.1463C16.4663 42.983 16.2832 42.5599 16.0026 42.679C15.1341 43.0453 14.1856 42.5493 13.6463 41.8301C13.0026 40.9599 12.9909 39.7748 13.1509 38.7625C13.496 36.5721 14.4317 34.4027 15.6973 32.5834C17.0026 30.7056 18.6637 29.0791 20.6017 27.8659C21.0507 27.5842 21.4998 27.3248 21.9761 27.101C22.2076 26.9914 22.4435 26.8727 22.6888 26.8032L23.0281 26.7462L22.9608 26.7245C22.8589 26.8195 22.8028 27.0258 22.719 27.1518C22.5516 27.4039 22.3617 27.6562 22.1853 27.9039C21.7793 28.4625 21.3644 29.0167 20.9449 29.5575C19.3507 31.6171 17.6302 33.5706 15.7924 35.4224C13.9812 37.2426 12.072 39.1041 9.96213 40.5784C9.40689 40.964 8.66751 41.2709 8.60498 40.3726C8.53302 39.4252 9.04309 38.5391 9.45999 37.73C10.6493 35.4284 12.0138 33.2011 13.6847 31.2124C16.8983 27.3836 21.6252 24.1706 26.7958 24.2225C26.9747 24.2207 26.9939 23.9074 26.8014 23.8915Z" fill="#0A2F44"/>
<path d="M35.3404 12.68C34.7018 11.8679 33.7784 10.7499 32.6937 10.5102C31.618 10.2748 30.7871 11.2714 30.0517 11.9808C28.8643 13.1151 27.6155 14.3752 26.7527 15.7791C25.7493 17.4258 25.0341 19.28 24.1925 21.0057C23.5261 22.3718 22.8732 23.7334 22.1979 25.0952C21.9085 25.6884 21.1536 26.6887 21.4781 27.3921C21.7114 27.9176 23.8426 29.0683 24.4512 29.0981C25.3997 29.1379 26.4973 25.7012 26.8699 24.9373C27.8606 22.906 28.672 20.3756 30.293 18.763C31.325 17.7421 32.5593 16.3748 33.8497 15.7136C34.6507 15.3031 35.599 14.8644 36.4603 14.6726C37.0673 14.5458 38.1269 14.0613 38.7199 14.3283L35.3404 12.68Z" fill="#0A2F44"/>
<path d="M53.1863 36.8381C54.0894 34.9866 54.9924 33.1351 55.8955 31.2835C56.6319 29.7736 57.5159 28.2577 58.1625 26.7039C58.6169 25.6126 58.0878 24.5757 58.4396 23.5123L55.4017 22.0306C55.4828 22.0924 55.5639 22.1543 55.645 22.2161C55.4421 22.9515 55.4572 23.582 55.1379 24.3052C54.7966 25.0733 54.3837 25.8288 54.0154 26.5838C53.2702 28.1117 52.2749 29.6734 51.8034 31.3015C51.4059 32.7098 50.8719 33.8957 50.2229 35.2036C49.8284 36.0125 48.8045 37.4046 48.9398 38.4274C49.0942 39.5708 50.7701 39.4425 51.6812 39.7644C52.3809 39.0598 52.7567 37.7189 53.1863 36.8381Z" fill="#0A2F44"/>
</svg>
