<svg width="750" height="173" viewBox="0 0 750 173" fill="none" xmlns="http://www.w3.org/2000/svg">
<path d="M750.25 113.38C750.16 113.37 750.08 113.36 750 113.35V162.92C748.53 162.84 747.07 162.76 745.6 162.67C733.93 161.93 722.27 161.16 710.62 160.43C708 160.26 705.39 160.1 702.78 159.95C697.12 159.6 691.46 159.27 685.8 158.98C685.8 158.98 685.8 158.98 685.79 158.98C685.78 158.97 685.78 158.97 685.76 158.97C681.51 158.74 677.26 158.52 673 158.34C672.99 158.33 672.99 158.34 672.98 158.34C660.24 157.74 647.47 157.3 634.7 157.13C612.53 156.83 590.45 158.09 568.3 158.31C546.48 158.5 524.47 156.53 502.91 153.15C501.41 152.91 499.9 152.67 498.4 152.42C493 151.51 487.6 150.6 482.2 149.68C466.54 147.01 450.89 144.31 435.2 141.93C426.21 140.57 417.21 139.32 408.18 138.25C399.37 137.21 390.55 136.33 381.69 135.69C379.83 135.56 377.98 135.43 376.12 135.32C370.77 135 365.42 134.76 360.06 134.56C351.83 134.27 343.6 134.09 335.37 133.88C332.26 133.81 329.16 133.72 326.05 133.63C305.2 133 284.35 132.43 263.49 132.21C260.87 132.19 258.25 132.17 255.63 132.15C247.2 132.1 238.76 132.03 230.31 131.99C228.38 131.97 226.45 131.97 224.52 131.95C208.33 131.89 192.13 131.95 175.97 132.35C169.23 132.53 162.5 132.84 155.77 133.19C149.57 133.51 143.38 133.89 137.18 134.27C133.83 134.47 130.47 134.68 127.12 134.87C127.12 134.87 127.12 134.87 127.11 134.87C119.6 135.31 112.09 135.7 104.56 135.95C102.06 136.03 99.55 136.09 97.04 136.13C96.92 136.14 96.8 136.14 96.67 136.14H96.66C96.39 136.14 96.1 136.15 95.82 136.15H95.81C86.69 136.29 77.54 136.22 68.37 136.22H68.36C50.75 136.23 33.13 136.53 15.78 139.15C10.5 139.95 5.25 140.77 0 141.54V4.82001C9.16 2.18001 19.2 0.570012 28.71 0.510012C32.22 0.470012 36.01 0.110025 39.56 0.430025C40.15 0.490025 40.74 0.550027 41.31 0.650027C44.79 1.23003 47.62 3.77001 50.74 5.29001C53.47 6.62001 56.24 7.79003 59.06 8.84003C63.41 10.47 67.86 11.81 72.38 13.01C74.95 13.69 77.54 14.32 80.15 14.93C94.57 18.29 108.91 21.79 122.98 26.45C123.39 26.59 123.8 26.72 124.21 26.87C132.94 29.8 141.58 33.03 150.18 36.34H150.19C155.19 38.26 160.17 40.22 165.14 42.15C168.11 43.3 170.48 44.43 173.26 45.2C174.34 45.5 175.49 45.75 176.76 45.92C181.31 46.52 185.85 46.52 190.39 46.57C193.37 46.6 196.36 46.66 199.35 46.93C200.68 47.05 202.02 47.2 203.35 47.36C203.83 47.42 204.32 47.49 204.8 47.55C210.54 48.29 216.26 49.21 222.08 49.03C222.85 49.01 223.63 48.95 224.42 48.85C224.81 48.81 225.21 48.76 225.6 48.69C226 48.64 226.4 48.57 226.81 48.49C226.98 48.47 227.16 48.43 227.33 48.39C227.37 48.39 227.41 48.38 227.46 48.36C227.47 48.37 227.48 48.36 227.49 48.35C227.77 48.3 228.05 48.24 228.33 48.18C228.64 48.12 228.96 48.05 229.28 47.97C229.67 47.88 230.06 47.79 230.45 47.68C230.86 47.58 231.26 47.47 231.67 47.36C232.43 47.15 233.18 46.93 233.93 46.7C234.63 46.48 235.33 46.27 236.01 46.05C237.19 45.67 238.34 45.28 239.44 44.91C239.69 44.83 239.94 44.74 240.19 44.66C240.44 44.57 240.68 44.49 240.92 44.41C244.48 43.21 248.06 41.73 251.67 40.47C253.58 39.79 255.5 39.18 257.42 38.71C257.79 38.61 258.14 38.53 258.49 38.47H258.5C259.12 38.36 259.71 38.3 260.38 38.31C261.07 38.32 261.75 38.36 262.42 38.4C262.42 38.4 262.43 38.4 262.44 38.4C262.98 38.43 263.5 38.46 264.03 38.49C265.09 38.53 266.16 38.55 267.29 38.45C268.79 38.31 270.28 38.12 271.77 37.91C272.51 37.81 273.26 37.69 274 37.57C274.49 37.49 274.99 37.41 275.49 37.32C276.18 37.2 276.86 37.08 277.55 36.95C278.12 36.85 278.68 36.74 279.25 36.62C279.34 36.61 279.44 36.59 279.53 36.57C279.67 36.54 279.8 36.52 279.94 36.48C280.8 36.31 281.65 36.13 282.5 35.95C283.35 35.77 284.2 35.58 285.05 35.39C286.42 35.09 287.79 34.77 289.15 34.45C291.89 33.81 294.63 33.16 297.37 32.53C298.56 32.26 299.75 31.99 300.94 31.73C302.25 31.44 303.57 31.16 304.89 30.9C305.52 30.77 306.15 30.65 306.78 30.53C307.62 30.37 308.47 30.21 309.32 30.07C309.86 29.98 310.4 29.89 310.95 29.8C311.64 29.69 312.33 29.59 313.02 29.49C313.31 29.44 313.6 29.4 313.88 29.37C314.17 29.33 314.46 29.29 314.74 29.26C314.86 29.24 314.98 29.23 315.09 29.21H315.12C315.2 29.2 315.28 29.19 315.36 29.18C315.77 29.13 316.18 29.08 316.6 29.04L318.1 28.89C319.09 28.79 320.08 28.71 321.07 28.65C322.44 28.57 323.74 28.69 325.06 28.94C325.48 29.02 325.9 29.11 326.32 29.21C333.91 31.07 341.6 32.43 349.29 33.79C351.41 34.16 353.59 34.44 355.78 34.71C360.47 35.27 365.26 35.73 369.86 36.62C371.67 36.96 373.44 37.38 375.17 37.89C377.33 38.53 379.38 39.5 381.47 40.34C381.59 40.38 381.7 40.43 381.82 40.47C381.88 40.5 381.93 40.52 381.99 40.54C382.55 40.76 383.12 40.96 383.69 41.15C386.82 42.16 390.07 42.76 393.29 43.39C393.41 43.42 393.53 43.44 393.65 43.47C394.37 43.61 395.09 43.76 395.81 43.91C395.84 43.92 395.86 43.92 395.89 43.93C396.98 44.17 398.08 44.39 399.18 44.59H399.19C399.6 44.67 400.02 44.75 400.44 44.81C400.57 44.84 400.7 44.87 400.84 44.88C401.4 44.99 401.97 45.08 402.54 45.17C402.87 45.23 403.21 45.28 403.55 45.32C403.66 45.35 403.77 45.37 403.89 45.38C404.5 45.48 405.11 45.56 405.73 45.64C416.37 47.13 427.23 47.64 437.84 49.15C438.34 49.22 438.84 49.29 439.33 49.36C440.29 49.51 441.25 49.66 442.21 49.83C443.79 50.1 445.66 50.28 447.56 50.33C447.89 50.34 448.21 50.35 448.54 50.35C448.85 50.35 449.16 50.35 449.47 50.34H449.52C450.62 50.32 451.69 50.25 452.68 50.12H452.69C452.91 50.09 453.12 50.06 453.33 50.02C453.39 50.01 453.46 50 453.52 49.99C453.57 49.98 453.63 49.97 453.68 49.96C454.01 49.9 454.34 49.84 454.66 49.76C455.45 49.57 456.22 49.34 457 49.07C457.71 48.83 458.41 48.55 459.1 48.26C459.26 48.19 459.38 48.11 459.54 48.03H459.62C459.77 47.97 459.91 47.91 460.05 47.84C460.12 47.81 460.2 47.77 460.27 47.73C460.28 47.73 460.28 47.73 460.28 47.73C460.58 47.59 460.88 47.45 461.19 47.3C461.67 47.07 462.16 46.83 462.64 46.58C463.44 46.17 464.25 45.75 465.05 45.32C465.85 44.9 466.65 44.47 467.45 44.06C467.72 43.92 467.98 43.78 468.24 43.65L469.52 43.01C469.81 42.87 470.1 42.73 470.39 42.6C470.93 42.35 471.48 42.11 472.02 41.88C472.35 41.75 472.68 41.61 473.02 41.49C476.76 40.1 480.67 39.45 484.43 38.19C484.84 38.05 485.24 37.9 485.64 37.75H485.65C485.76 37.71 485.86 37.67 485.97 37.63C486.39 37.47 486.81 37.31 487.23 37.16C487.61 37.03 487.99 36.91 488.38 36.81C488.5 36.77 488.63 36.74 488.76 36.72C489.2 36.61 489.65 36.54 490.11 36.51C490.61 36.49 491.07 36.51 491.49 36.57C493.38 36.81 494.58 37.83 496.6 38.79C501.53 41.15 506.99 42.73 512.16 44.53C514.94 45.5 517.76 46.35 520.59 46.68C523.14 46.97 525.7 46.83 528.23 45.96C528.64 45.82 529.04 45.67 529.44 45.49C529.77 45.34 530.1 45.21 530.43 45.05C535.6 42.71 540.58 39.89 545.68 37.43C546.29 37.14 546.9 36.85 547.5 36.58L548.71 36.04C549.45 35.71 550.2 35.39 550.94 35.08C551.61 34.79 552.28 34.51 552.96 34.24C553.57 33.99 554.18 33.74 554.8 33.5C556.63 32.76 558.47 32.04 560.31 31.3C561.06 31.01 561.82 30.7 562.57 30.39C566.24 28.87 569.43 26.87 572.72 24.97C573.65 24.43 574.6 23.91 575.56 23.39C577.38 22.43 577.96 21.71 580.04 22.03C581.61 22.27 583.34 23.09 585.04 23.75C585.79 24.05 586.53 24.32 587.25 24.49C590.89 25.37 594.63 26 598.42 26.44C608.75 27.67 619.45 27.57 629.6 27.57C637.7 27.59 645.9 27.93 653.99 27.63C654.59 27.61 655.19 27.57 655.79 27.53C662.02 27.11 668.17 25.8 674.41 25.42C677.08 25.26 679.75 25.33 682.44 25.38H682.45C685.58 25.45 688.71 25.48 691.81 25.07C696.68 24.45 701.56 23.91 706.42 23.18C706.65 23.15 706.87 23.11 707.1 23.08C707.7 22.98 708.29 22.89 708.89 22.79C712.83 22.15 716.74 21.5 720.65 20.75C722.36 20.42 724.08 20.07 725.79 19.69C727.57 19.31 729.36 19.03 731.14 18.72C733.08 18.38 735.02 18.01 736.92 17.41C739.32 16.65 741.69 15.83 744.07 15.03C745.96 14.39 747.84 13.76 749.75 13.18C749.83 13.15 749.92 13.13 750 13.1V25.33C750.27 25.9 750.19 26.7 750 27.5V112.83C750.08 113.01 750.16 113.2 750.25 113.38Z" fill="#00496B"/>
<path d="M572.72 24.98C567.31 32.1 561.58 39.37 559.73 48.26C559.23 50.62 558.66 53.01 557.71 55.24C556.99 56.92 555.92 58.24 554.99 59.78C553.76 61.84 553.23 64.33 552.25 66.52C550.65 70.15 548.75 73.18 545.97 76.03C543.13 78.96 539.88 81.45 537.03 84.39C534.56 86.95 532.55 89.89 530.07 92.44C526.53 96.08 522.65 99.36 519.02 102.91C513.51 108.3 508.7 114.31 503.23 119.74C501.63 121.32 500.09 122.96 498.43 124.47C497.42 125.39 496.29 126.23 495.45 127.32C495.07 125.93 497.43 123.14 497.98 122.28C501.04 117.5 504.22 112.81 507.31 108.06C511.57 101.49 514.35 94.34 517.91 87.43C519.94 83.49 520.31 79.66 520.86 75.34C521.53 70.14 522.45 64.9 524.5 60.06C525.09 58.68 525.78 57.32 526.46 55.98C527.33 54.28 528.88 52.94 529.56 51.16C530.19 49.53 530.23 47.22 530.4 45.52C530.42 45.36 530.43 45.21 530.43 45.05C535.6 42.71 540.58 39.9 545.68 37.44C551.26 34.75 556.88 32.74 562.57 30.39C566.24 28.88 569.43 26.87 572.72 24.98Z" fill="#003F5F"/>
<path d="M750 27.5C749.78 28.41 749.41 29.3 749.21 29.81C747.57 34.1 745.72 38.15 743.41 42.11C739.2 49.3 734.94 56.47 731.07 63.86C730.54 64.87 730.02 65.89 729.5 66.91C728.95 67.99 728.42 69.08 727.89 70.17C727.89 70.18 727.89 70.18 727.89 70.19C727.4 71.17 726.92 72.14 726.44 73.12C726.13 73.75 725.81 74.39 725.49 75.02C725.38 75.25 725.26 75.47 725.15 75.7C725.14 75.7 725.14 75.7 725.14 75.71C724.68 76.61 724.22 77.5 723.74 78.39L723.73 78.4C723.71 78.46 723.68 78.51 723.64 78.57C723.56 78.72 723.48 78.87 723.4 79.02C722.91 79.93 722.4 80.83 721.89 81.73C721.24 82.9 720.57 84.06 719.89 85.21C719.8 85.37 719.71 85.53 719.61 85.69C719.36 86.12 719.11 86.55 718.85 86.98C718.54 87.52 718.23 88.06 717.91 88.6C717.49 89.32 717.08 90.03 716.66 90.75C716.43 91.15 716.19 91.56 715.96 91.96C715.54 92.7 715.11 93.45 714.69 94.2C714.62 94.34 714.54 94.48 714.46 94.62C714.07 95.33 713.68 96.04 713.3 96.76C713.23 96.88 713.17 97 713.11 97.12C713.03 97.26 712.95 97.4 712.88 97.54C712.3 98.64 711.72 99.74 711.13 100.84C711.13 100.85 711.13 100.85 711.13 100.86C710.42 102.18 709.71 103.48 709.01 104.8C708.99 104.81 708.99 104.82 708.99 104.83C708.85 105.07 708.72 105.32 708.6 105.56C708.36 106 708.12 106.44 707.9 106.88C707.84 106.98 707.79 107.08 707.74 107.18C707.24 108.12 706.75 109.06 706.27 110.01C704.7 113.08 703.22 116.18 701.94 119.34C701.28 120.96 700.67 122.6 700.09 124.25C699.64 125.51 699.21 126.77 698.79 128.04C697.35 132.35 695.99 136.69 694.37 140.93C694.32 141.08 694.27 141.22 694.21 141.37C693.97 142 693.72 142.63 693.45 143.26C692.68 145.14 691.83 147 690.94 148.83C690.55 149.65 690.15 150.46 689.74 151.27C688.45 153.85 687.1 156.4 685.76 158.97C685.75 158.98 685.74 159 685.74 159.02C685.54 159.4 685.34 159.78 685.14 160.16C683.23 163.86 681.34 167.47 680.37 171.53C679.16 171.27 677.76 171.57 676.56 171.67C672.79 171.98 669.07 172.42 665.37 172.95H614.91L495 159.45C497.58 157.29 500.23 155.2 502.91 153.15C508.74 148.7 514.74 144.43 520.59 140.01C527.9 134.48 535.45 129.26 542.73 123.69C545.44 121.61 548.07 119.29 550.06 116.49C554.49 110.26 557.87 103.54 560.99 96.68C561.48 95.59 561.97 94.49 562.45 93.4C562.68 92.91 562.89 92.43 563.1 91.94C563.15 91.83 563.2 91.71 563.25 91.6C563.37 91.34 563.48 91.08 563.6 90.82C564.92 87.83 566.23 84.82 567.61 81.84C567.79 81.45 567.97 81.07 568.16 80.68C568.83 79.26 569.55 77.83 570.27 76.39C570.28 76.38 570.28 76.38 570.28 76.37C570.44 76.06 570.59 75.76 570.74 75.45C570.78 75.37 570.82 75.28 570.86 75.2C572.53 71.85 574.13 68.44 575.16 64.94C576.37 60.85 578.02 57.31 579.93 53.54C580.39 52.62 580.62 51.67 580.97 50.72C581.58 49.1 582.62 47.68 583.41 46.16C584.22 44.59 585.14 43.03 585.9 41.45C586.3 40.6 586.27 39.54 586.84 38.82C587.45 38.05 588.97 37.61 589.84 37.19C592.86 35.73 595.8 34.07 598.9 32.76C599.8 32.38 600.07 32.08 600.75 31.45C601.72 30.55 604.1 29.04 605.43 29C605.91 29.78 604.94 31.15 604.62 31.85C604.07 33.06 603.74 34.29 603.28 35.54C602.4 37.88 601.62 40.02 601 42.47C600.41 44.81 599.72 47.12 599.01 49.43C597.52 54.31 595.88 59.16 595.11 64.21C594.76 66.49 594.34 68.27 593.53 70.41C592.89 72.09 591.86 73.72 591.52 75.48C591.44 75.87 591.37 76.28 591.3 76.71C591.3 76.71 591.3 76.71 591.29 76.71C591.28 76.82 591.26 76.94 591.23 77.06C591.2 77.28 591.17 77.5 591.13 77.72C591.1 77.99 591.06 78.26 591.03 78.53C590.99 78.8 590.96 79.08 590.94 79.36C590.87 80.06 590.82 80.76 590.82 81.45C590.82 81.6 590.82 81.75 590.83 81.9C590.84 82.75 590.92 83.58 591.09 84.34C591.59 86.65 592.32 88.24 591.92 90.73C591.91 90.79 591.9 90.83 591.89 90.89V90.9C591.8 91.49 591.69 92.09 591.56 92.7C591.32 93.86 591.03 95.03 590.75 96.16C590.67 96.46 590.59 96.75 590.52 97.04C589.84 99.74 589.03 102.34 588.04 104.93C586.41 109.18 585.32 113.67 584 118.02C582.66 122.46 581.44 127.02 580.45 131.55C580.15 132.95 578.88 136.42 579.55 137.86C581.15 137.18 582.36 135.61 583.62 134.46C587.49 130.91 591.32 127.4 594.82 123.46C602.85 114.42 609.47 104.19 615.43 93.68C615.67 93.26 615.9 92.84 616.14 92.42C616.17 92.36 616.21 92.3 616.24 92.24C616.62 91.56 616.99 90.88 617.35 90.2C617.36 90.19 617.36 90.19 617.35 90.18C617.36 90.17 617.36 90.17 617.35 90.16C617.36 90.15 617.35 90.14 617.35 90.14C617.66 89.55 617.97 89.03 618.28 88.44C618.29 88.43 618.29 88.43 618.29 88.42C618.58 87.86 618.88 87.32 619.18 86.77C620.63 84.09 622.69 81.75 624.6 79.37C624.86 79.03 625.12 78.7 625.38 78.36C625.47 78.24 625.55 78.13 625.64 78.01C626.76 76.5 627.79 74.93 628.84 73.37C629.75 72.01 630.67 70.66 631.68 69.37C633.68 66.81 635.61 64.25 637.43 61.55C639.16 58.99 641.38 57.04 643.69 55.01C645.06 53.82 646.35 52.53 647.96 51.67C649.43 50.88 650.72 50.39 652 49.22C652.6 48.68 653.15 48.09 653.65 47.46C654.64 46.22 655.43 44.84 656.01 43.36C656.65 41.73 656.91 39.66 658.36 38.5C659.17 37.85 660.43 37.58 661.41 37.33C663.12 36.9 664.99 36.62 666.73 36.5C667.86 36.42 668.99 36.48 670.12 36.43C672.02 36.33 673.82 35.83 675.68 35.55C678.21 35.18 680.82 35.19 683.36 34.85C686.54 34.42 689.39 33.3 692.45 32.39C694.48 31.79 696.54 31.22 698.6 30.67C703.39 29.39 708.23 28.26 713.04 27.25C715.63 26.71 718.91 25.64 721.57 25.81C722.5 25.87 723.02 25.95 722.97 26.97C722.92 28.07 721.46 28.86 720.33 29.47H720.32C720 29.66 719.72 29.82 719.49 29.97C716.12 32.22 713.05 34.92 710.29 37.89C710.14 38.05 709.98 38.22 709.83 38.39C707.78 40.65 705.95 43.14 704.22 45.73C703.84 46.3 703.47 46.88 703.11 47.46C701.61 49.81 700.18 52.19 698.77 54.52C696.04 59.03 693.98 63.8 691.81 68.54C690.98 70.36 690.13 72.18 689.22 73.97C689.17 74.06 689.13 74.15 689.08 74.24C688.37 75.63 687.63 77 686.86 78.36C686.84 78.38 686.82 78.4 686.81 78.43C686.64 78.77 686.44 79.09 686.24 79.43C685.35 80.98 684.42 82.51 683.49 84.04V84.05C683.46 84.08 683.45 84.11 683.43 84.14C683.42 84.17 683.41 84.19 683.39 84.2C682.71 85.3 682.03 86.4 681.34 87.5C681.34 87.51 681.33 87.52 681.33 87.52C679.43 90.54 677.53 93.55 675.73 96.62C675.72 96.62 675.72 96.63 675.72 96.63C675.52 96.98 675.31 97.32 675.11 97.68C674.49 98.74 673.9 99.81 673.32 100.89C672.87 101.71 672.44 102.54 672.03 103.38C672 103.42 671.98 103.46 671.96 103.5C671.86 103.7 671.76 103.9 671.67 104.1C671.67 104.11 671.67 104.11 671.67 104.11C671.52 104.39 671.39 104.66 671.26 104.94V104.97C671.12 105.25 670.98 105.51 670.85 105.8C670.14 107.34 669.48 108.89 668.81 110.44C667.53 113.44 666.22 116.41 664.48 119.21C662.51 122.37 659.34 125.78 658.51 129.52C658.38 130.11 658.13 131.37 658.7 131.84C659.17 132.22 661.59 132.01 661.66 132.01C663.88 131.91 665.82 131.59 667.82 130.69C668.66 130.31 669.8 130.14 670.49 129.71C671.14 129.29 671.73 128.56 672.27 127.75C672.68 127.14 673.06 126.49 673.41 125.91C673.62 125.57 673.81 125.25 674 124.97C677.38 120.07 681.29 115.53 684.8 110.71C685.67 109.52 686.53 108.31 687.37 107.1C687.45 107 687.51 106.91 687.58 106.81C687.94 106.3 688.3 105.78 688.65 105.26C688.73 105.15 688.81 105.03 688.88 104.92C689.05 104.68 689.21 104.45 689.37 104.21C689.89 103.46 690.4 102.7 690.9 101.94C691.28 101.38 691.65 100.82 692.02 100.25C692.21 99.97 692.4 99.7 692.57 99.42C692.57 99.41 692.58 99.41 692.58 99.41C692.57 99.4 692.57 99.4 692.58 99.4C692.87 98.96 693.16 98.52 693.44 98.08C694.33 96.74 695.18 95.39 696.04 94.05C696.05 94.03 696.06 94.01 696.07 93.99C696.24 93.72 696.41 93.46 696.56 93.19C696.56 93.19 696.56 93.19 696.57 93.18C696.71 92.97 696.84 92.76 696.97 92.56C697.22 92.17 697.46 91.77 697.71 91.38C699.2 89 700.65 86.52 701.96 84.03C702.34 83.31 702.68 82.56 703 81.81C703.3 81.13 703.58 80.45 703.86 79.76V79.75C703.92 79.6 703.98 79.47 704.04 79.32C704.75 77.63 705.49 75.96 706.52 74.45C708.27 71.87 710.22 69.4 712.25 67.01C713.36 65.7 714.5 64.42 715.65 63.16C719.27 59.17 722.59 54.85 726.39 51.03C728.81 48.59 731.29 46.36 733.36 43.68C733.37 43.67 733.38 43.66 733.39 43.65C733.88 43.01 734.36 42.34 734.8 41.64C735.04 41.26 735.28 40.88 735.52 40.49V40.48C735.53 40.47 735.54 40.45 735.54 40.44C735.54 40.43 735.55 40.43 735.55 40.42C735.55 40.41 735.56 40.41 735.56 40.4C735.56 40.4 735.56 40.39 735.57 40.39C737.82 36.77 740.07 32.81 742.74 29.58C744.66 27.25 746.64 25.56 749.58 24.83C749.77 24.96 749.91 25.13 750 25.33C750.27 25.91 750.19 26.7 750 27.5Z" fill="#003F5F"/>
<path d="M531.14 76.06C528.65 80.8 526.41 85.72 524 90.51C523.04 92.44 521.74 94.11 520.65 95.96C518.87 98.97 517.79 102.39 516.04 105.44C515.03 107.21 513.87 108.89 512.85 110.65C512.1 111.94 511.43 112.93 510.31 113.95C506.61 117.31 502.81 120.31 499.48 124.1C497.98 125.8 496.23 127.41 494.96 129.28C493.58 131.32 492.49 133.56 491.51 135.81C489.61 140.18 486.92 143.59 484.12 147.36C483.56 148.11 482.92 148.94 482.2 149.69C481.16 150.78 479.96 151.72 478.6 152.11C476.74 152.64 474.68 152.67 472.77 153.04C469.12 153.73 465.55 154.75 461.88 155.36C455.61 156.41 449.13 157.05 442.82 156.97C441.7 156.96 440.75 156.75 439.64 156.58C437.9 156.31 436.19 156.25 434.46 155.83C433 155.47 431.58 154.98 430.06 154.94C428.52 154.9 427.07 154.96 425.54 154.71C421.37 154.02 416.79 154.47 412.57 154.44C408.69 154.42 404.74 154.81 400.89 155.27C398.67 155.53 396.13 155.54 393.99 156.27C394.54 155.41 395.75 154.63 396.53 153.9C397.64 152.87 398.75 152.09 399.69 150.9C401.18 149.02 402.56 146.99 403.96 145.04C408.36 138.93 411.22 131.32 416.51 125.86C419.52 122.75 423.36 120.09 426.75 117.41C428.51 116.02 430.63 114.99 432.28 113.5C434.57 111.44 435.94 108.17 437.46 105.52C439.17 102.56 440.58 99.44 442.22 96.44C442.96 95.09 444.01 93.78 444.48 92.31C445.19 90.1 446.03 88.17 447.03 86C448.87 82.02 450.25 77.91 451.95 73.86C453.29 70.65 454.7 67.18 455.66 63.83C456.47 61.05 456.35 58.42 456.46 55.57C456.54 53.63 457 51.8 456.99 49.85V49.06C462.47 47.17 467.65 43.48 473.01 41.49C476.75 40.1 480.66 39.45 484.42 38.19C486.33 37.55 488.08 36.64 490.1 36.51C490.6 36.48 491.06 36.5 491.48 36.56C491.46 43.9 491.34 51.21 490.86 58.56C490.57 63.15 489.86 67.66 489.48 72.24C489.2 75.54 490.74 76.29 493.19 78.19C495.32 79.84 495.16 81.98 494.91 84.46C494.53 88.23 493.78 91.75 494.03 95.55C494.25 98.93 494.61 102.22 494.51 105.61C494.47 107.16 493.48 109.44 494.07 110.91C494.68 110.95 494.93 110.5 495.34 110.12C497.92 107.73 500.14 104.96 502.57 102.42C507.69 97.04 513.26 92.08 518.05 86.38C519.96 84.11 521.31 81.5 523.12 79.17C524.32 77.62 525.4 76.02 526.51 74.4C527.31 73.25 528.32 72.21 529.05 71.02C529.37 70.5 529.5 69.96 529.96 69.55C530.55 69.04 532.25 68.6 533.03 68.92C535.2 69.81 531.65 75.09 531.14 76.06Z" fill="#003F5F"/>
<path d="M318.1 28.89C317.43 29.66 316.82 30.48 316.27 31.35C311.4 37.71 306.04 43.76 301.64 50.46C299.35 53.94 298.1 58.4 294.8 61.1C292.9 62.64 290.69 63.75 288.68 65.13C286.09 66.9 283.74 69.04 281.3 71.02C279.03 72.87 277.02 75 274.86 76.97C271.94 79.63 269.22 82.68 266 84.96C262.44 87.47 259.52 90.78 256.1 93.48C253.98 95.17 251.94 97.05 250 98.85C249.1 99.68 248.35 100.59 247.79 101.71C246.72 103.87 245.46 106.18 245.06 108.67C244.81 110.25 244.56 111.53 244 113.06C243.37 114.77 243.36 116.76 242.64 118.41C242.1 119.64 241.06 120.59 240.31 121.71C237.94 125.25 233.92 127.42 231.24 130.77C230.89 131.2 230.61 131.61 230.31 132C230.05 132.34 229.76 132.66 229.39 132.97C228.57 133.66 227.76 134.18 227 134.96C225.87 136.12 224.1 137.81 222.56 138.32C222.12 137.62 222.99 135.62 223.11 135.3C223.52 134.16 224 133.05 224.52 131.96C225.27 130.41 226.12 128.91 227.01 127.43C229.86 122.71 231.78 117.52 233.97 112.47C235.53 108.88 237.98 105.71 238.99 101.92C239.65 99.44 240.89 97.55 242.03 95.32C242.52 94.37 242.67 93.49 242.39 92.46C242.01 91.08 242.01 89.97 242 88.46C241.99 86.45 241.93 84.35 242.6 82.41C243.15 80.82 244.3 79.29 245 77.73C247.94 71.2 253.02 65.84 256.13 59.44C256.85 57.97 257.81 56.65 258.52 55.2C259.13 53.97 259.27 52.53 259.63 51.2C260.25 48.9 260.79 46.54 261.61 44.31C262.34 42.34 263.2 40.42 264.03 38.49C265.09 38.54 266.16 38.56 267.29 38.45C273.28 37.87 279.19 36.71 285.05 35.39C296 32.95 306.9 29.91 318.1 28.89Z" fill="#003F5F"/>
<path d="M347.95 100.83C347.33 101.12 346.71 101.4 346.07 101.69C343.31 102.96 340.88 104.61 338.04 105.7C334.93 106.89 332.39 108.56 329.92 110.83C328.1 112.5 326.75 114.51 325.03 116.26C323.46 117.85 321.09 120.45 318.68 120.55C320.5 117.66 321.62 113.68 322.5 110.39C323.11 108.12 323 105.88 323.03 103.56C323.06 101.86 323.34 100.05 324.07 98.49C324.3 98 324.67 97.57 324.86 97.07C325.47 95.47 325.29 93.54 325.62 91.86C326.21 88.89 326.93 85.76 328.11 82.96C330.21 77.98 333.39 73.84 336.25 69.27C339.34 64.32 342.64 59.36 346.36 54.85C348.33 52.46 350.86 50.67 352.62 48.12C349.18 49.92 346.29 52.07 343.21 54.43C339.43 57.34 335.57 60.2 332.28 63.65C329.16 66.92 326.21 70.26 323.26 73.67C321.45 75.76 320.2 78.16 318.58 80.38C316.56 83.13 314.6 85.86 312.7 88.69C311.32 90.75 310.34 92.84 309.38 95.12C308.39 97.48 307.47 98.65 305.38 100.16C302.37 102.33 298.49 103.86 295.9 106.41C295.42 106.88 295.03 107.49 294.53 107.97C291.43 110.98 287.41 113.24 284.01 115.85C278.61 120 273.28 124.25 268.04 128.6C266.5 129.88 263.65 131.54 262.53 133.43C262.58 133.44 262.64 133.46 262.69 133.47C269.58 135.09 276.47 136.71 283.36 138.33C288.43 139.52 293.5 140.72 298.57 141.91C300.77 142.43 302.96 142.94 305.16 143.46C306.12 143.69 306.97 143.86 307.82 143.79C308.01 143.77 308.13 143.58 308.45 143.58C308.72 143.58 309.05 143.87 309.29 143.97C309.9 144.22 310.4 144.44 311.07 144.43C314.51 144.39 317.96 144.25 321.35 144.81C322.44 144.99 324.42 145.28 325.52 144.86C327.31 144.17 329.24 140.49 330.38 139.17C331.55 137.82 332.92 136.68 334.14 135.37C335.77 133.62 336.91 131.48 338.42 129.63C341.6 125.73 344.73 121.79 347.92 117.89C353.63 110.92 359.37 104.07 365.93 97.92C367.77 96.2 369.63 94.17 369.55 91.51C369.5 89.66 368.4 90.58 367.05 91.05C365.11 91.73 362.96 92.03 361.08 92.86C358.03 94.22 355.8 96.59 352.99 98.24C351.29 99.25 349.64 100.04 347.95 100.83Z" fill="#003F5F"/>
<path d="M427.6 49.02C427.28 50.73 425.75 52.2 425.02 53.78C423.26 57.6 420.7 60.89 419.14 64.81C417.67 68.5 415.94 71.52 413.23 74.45C410.19 77.74 406.66 80.61 403.56 83.85C400.54 87.01 398.71 91.12 396.52 94.84C394.64 98.03 392.23 100.9 390 103.85C386.76 108.15 382.68 111.88 379.04 115.83C375.78 119.36 372.21 122.55 368.79 125.91C364.35 130.27 360.05 134.72 355.5 138.97L365 147.47C366.5 146.91 366.91 146.79 367.49 145.48C367.83 144.7 368.27 144.21 368.85 143.53C373.72 137.8 378.93 132.41 383.86 126.72C386.96 123.13 390.24 119.44 394.1 116.65C397.13 114.46 400.59 112.66 403.75 110.67C406.18 109.14 408.54 106.97 411.08 105.65C411.64 105.36 412.45 105.34 412.91 104.9C413.48 104.35 413.58 103.17 413.79 102.44C414.35 100.51 414.97 98.62 415.48 96.67C416.07 94.41 416.83 92.23 417.51 90.01C418.49 86.81 419.12 83.52 420.58 80.49C421.84 77.88 423.27 75.4 424.4 72.73C425.77 69.5 426.94 66.23 428.09 62.92C429.68 58.32 431.58 52.94 435.02 49.4C434.71 48.49 428.71 48.7 427.6 49.02Z" fill="#003F5F"/>
<path d="M240.92 44.41C244.48 43.21 248.06 41.73 251.67 40.47C247 44.42 241.93 48.1 238.62 53.35C237.03 55.86 235.33 57.93 233.02 59.9C231.65 61.06 230.32 62.15 229.05 63.42C223.8 68.67 216.54 71.24 210.57 75.47C209.11 76.5 208.21 78.21 206.99 79.49C204.21 82.41 201.02 84.75 198.51 87.94C195.74 91.47 192.54 94.8 189.44 98.05C186.94 100.67 184.5 103.32 182.03 105.96C176.79 111.54 171.21 116.78 165.79 122.17C162.72 125.23 159.68 128.28 156.93 131.64C156.54 132.11 156.16 132.64 155.77 133.2C154.46 135.08 153.05 137.22 151.09 138.12C150.34 138.47 149.79 138.41 149 138.54C146.98 138.87 145.07 139.56 143.03 139.84C139.8 140.28 136.56 140.53 133.36 141.12C132.68 141.24 131.66 141.7 131 141.42C130.99 140.94 131.25 140.8 131.53 140.42C133.12 138.28 135.18 136.4 137.01 134.46C137.07 134.4 137.12 134.34 137.18 134.28C140.38 130.85 143.41 127.27 146.72 123.96C150.89 119.8 155.02 115.58 159.42 111.67C162.49 108.93 165.51 106.16 168.28 103.1C171.06 100.04 173.72 96.71 175.96 93.23C177.67 90.57 179.02 87.68 180.71 85C183.11 81.22 185.22 77.22 187.76 73.54C188.86 71.95 190.13 70.45 191.11 68.77C191.99 67.28 192.43 65.58 193.04 63.96C195.44 57.58 199.94 52.28 204.8 47.55C210.54 48.3 216.26 49.22 222.08 49.04C228.19 48.84 235.26 46.32 240.92 44.41Z" fill="#003F5F"/>
<path d="M258.01 34.73C257.66 34.96 257.32 35.2 257 35.46C257.24 35 257.58 34.76 258.01 34.73Z" fill="#003F5F"/>
<path d="M39.56 0.430025C36.98 2.39003 34.41 4.35001 31.94 6.45001C29.5 8.53001 27.09 10.69 24.92 13.05C23.6 14.49 22.44 16.15 21.01 17.49C20.32 18.13 19.65 18.61 19.02 19.29C17.77 20.65 16.84 22.23 15.45 23.55C13.53 25.35 11.51 27.05 9.53 28.79C8.87 29.36 8.21 29.94 7.56 30.53C5.12 32.73 2.58 34.73 0 36.71V4.82001C9.16 2.18001 19.2 0.570012 28.71 0.510012C32.22 0.470012 36.01 0.110025 39.56 0.430025Z" fill="#003F5F"/>
<path d="M153.57 48.64C153.4 48.97 153.2 49.3 152.97 49.61C151.44 51.75 148.73 53.48 147.12 55.36C146.79 55.75 146.47 56.14 146.16 56.54C145.88 56.9 145.61 57.2601 145.35 57.6301C144.16 59.2901 143.09 61.05 142.05 62.83C141.9 63.08 141.76 63.34 141.61 63.59C141.07 64.53 140.53 65.46 139.98 66.4C139.86 66.6 139.73 66.81 139.6 67.02C139.59 67.06 139.56 67.1 139.54 67.14C139.36 67.43 139.18 67.73 139.01 68.02C138.84 68.3 138.66 68.57 138.49 68.84C138.3 69.15 138.1 69.46 137.89 69.76C137.81 69.89 137.73 70.02 137.64 70.15C137.37 70.56 137.1 70.96 136.84 71.36C136.65 71.65 136.46 71.93 136.28 72.21C136.08 72.53 135.88 72.84 135.69 73.15C135.46 73.52 135.24 73.89 135.02 74.26C135.01 74.26 135.01 74.27 135.01 74.28C134.84 74.56 134.67 74.85 134.51 75.14C134.33 75.45 134.16 75.76 134.01 76.07C133.63 76.75 133.28 77.44 132.96 78.16C132.86 78.37 132.76 78.58 132.67 78.8C132.41 79.39 132.16 80 131.93 80.6301C131.85 80.8501 131.77 81.08 131.69 81.3C131.61 81.5 131.54 81.69 131.47 81.89C131.43 82.01 131.39 82.12 131.35 82.24C130.51 84.57 129.69 86.86 128.63 89.12C127.7 91.11 126.65 93.05 125.81 95.08C125.37 96.14 125.07 97.32 124.45 98.3C124.02 98.98 123.51 99.59 122.99 100.18C122.27 101.02 121.53 101.84 120.95 102.84C120.79 103.12 120.63 103.41 120.48 103.7C119.78 104.99 119.18 106.36 118.53 107.66C117.58 109.56 116.59 111.38 115.52 113.16C115.31 113.51 115.1 113.86 114.88 114.21C114.5 114.83 114.1 115.44 113.7 116.05C113.13 116.9 112.43 117.6 111.67 118.22C110.58 119.13 109.36 119.9 108.22 120.81C107.19 121.64 106.34 122.62 105.58 123.67C105.35 123.97 105.14 124.28 104.94 124.59C104.1 125.82 103.34 127.11 102.49 128.32C100.67 130.92 98.79 133.48 97.04 136.13C96.29 137.25 95.56 138.39 94.88 139.56C93.87 141.29 92.74 142.96 91.8 144.72C91.09 146.05 90.73 147.45 89.97 148.75C88.7 150.93 87.07 153.16 85.3 155.22C84.09 156.65 82.8 158.01 81.53 159.22C79.62 161.04 77.8 160.39 75.22 160.49C72.95 160.57 70.67 160.66 68.4 160.75C68.4 160.75 68.4 160.75 68.39 160.75C65.68 160.85 62.96 160.95 60.24 161.04H60.23C50.33 161.38 40.42 161.6 30.5 161.37C20.37 161.14 10.18 160.6 0 160.38V88.46C1.29 86.92 2.56 85.35 3.8 83.77V83.76C4.03 83.49 4.24 83.22 4.46 82.94C4.46 82.94 4.46 82.94 4.47 82.93C4.62 82.73 4.78 82.53 4.93 82.33C5.63 81.42 6.33 80.51 7.01 79.59C7.76 78.59 8.5 77.58 9.23 76.57C9.84 75.73 10.43 74.89 11.02 74.04C12.24 72.28 13.31 70.46 14.35 68.62H14.36C15.39 66.79 16.41 64.9401 17.51 63.1301C18.51 61.4901 19.6 59.92 20.75 58.42C20.76 58.41 20.77 58.39 20.78 58.3801C21.06 58 21.35 57.63 21.65 57.26C21.67 57.22 21.68 57.21 21.7 57.2C24.15 54.11 26.82 51.2 29.41 48.19C30.84 46.53 32.12 44.78 33.48 43.07C35.19 40.95 37.21 39.36 39.08 37.42C40.57 35.87 41.56 34.45 43.33 33.11C45.57 31.41 47.54 29.64 50.02 28.31C51.96 27.27 53.58 25.92 55.36 24.66H55.37C55.43 24.61 55.49 24.57 55.55 24.53C56.37 23.96 57.5 23.11 58.51 22.92C59.71 22.69 60.36 23.22 60.5 24.29C60.51 24.34 60.52 24.38 60.52 24.43C60.54 24.65 60.54 24.86 60.52 25.06C60.34 27.43 57.75 28.61 56.58 30.45C54.47 33.77 53.07 37.74 52.01 41.53C50.39 47.34 47.92 52.85 45.85 58.51C45.31 59.97 44.75 61.43 44.17 62.8801C44.03 63.25 43.88 63.6 43.74 63.97V63.98C43.21 65.3 42.67 66.61 42.14 67.93C42.02 68.21 41.9 68.5 41.79 68.78C41.61 69.21 41.44 69.65 41.26 70.08C41.26 70.09 41.26 70.09 41.25 70.09C41.17 70.33 41.07 70.56 40.97 70.8C40.24 72.62 39.53 74.44 38.86 76.29V76.3C38.84 76.34 38.82 76.38 38.81 76.42C38.62 76.93 38.44 77.44 38.26 77.95C38.24 78.01 38.22 78.06 38.2 78.12C38.17 78.21 38.14 78.2901 38.11 78.3801C37.82 79.2401 37.5 80.09 37.18 80.93C37.18 80.94 37.17 80.96 37.16 80.97C36.8 81.92 36.43 82.86 36.04 83.79C36.01 83.87 35.97 83.95 35.95 84.02C35.94 84.03 35.94 84.04 35.94 84.04C35.36 85.42 34.77 86.7901 34.18 88.16L34 88.55C33.92 88.75 33.83 88.9601 33.74 89.16C33.71 89.23 33.68 89.3 33.65 89.37C33.14 90.55 32.63 91.74 32.13 92.93C32.13 92.95 32.12 92.96 32.11 92.97C31.68 94.0201 31.26 95.08 30.85 96.15C30.79 96.31 30.72 96.48 30.67 96.64C30.64 96.7 30.62 96.75 30.6 96.81C29.89 98.74 29.47 100.68 28.89 102.6C28.58 103.61 28.23 104.61 27.78 105.61C26.92 107.47 25.98 109.46 24.98 111.27C24.29 112.52 23.36 113.68 22.83 115.02C22.7 115.34 22.12 116.33 22.1 116.58C21.99 117.89 23.31 119.49 23.64 120.92C24.26 123.66 25.25 127.18 24.13 129.94C24.84 128.52 26.37 127.1 27.3 125.95C30.29 122.27 33.91 119 37.26 115.67C42.57 110.4 48.38 105.67 53.14 99.86C54.02 98.78 54.85 97.67 55.65 96.54C55.67 96.49 55.71 96.44 55.75 96.4C56.7 95.05 57.63 93.68 58.54 92.31C59.1 91.47 59.66 90.63 60.24 89.79C60.39 89.57 60.54 89.3501 60.7 89.1301C60.77 89.0201 60.85 88.9 60.93 88.79C60.96 88.75 60.99 88.71 61.02 88.67C61.2 88.41 61.39 88.16 61.58 87.9L61.59 87.89C61.69 87.73 61.81 87.56 61.94 87.4V87.39C62.03 87.28 62.11 87.16 62.2 87.05C62.43 86.73 62.67 86.4101 62.92 86.1001C63.13 85.8201 63.34 85.54 63.57 85.26C63.63 85.18 63.69 85.09 63.76 85.01C63.76 84.99 63.76 84.97 63.77 84.95C64.14 84.52 64.44 84.15 64.79 83.72C65.16 83.25 65.53 82.79 65.91 82.33C67.73 80.09 69.59 77.87 71.35 75.59C71.77 75.05 72.18 74.51 72.58 73.96C72.65 73.86 72.73 73.76 72.8 73.66C73.45 72.76 74.12 71.88 74.78 70.99C75.95 69.42 77.13 67.86 78.25 66.26C80.46 63.1 81.41 60.03 84.49 57.53C85.44 56.76 86.46 56.02 87.52 55.31C90.68 53.2 94.24 51.42 97.84 50.18C99.17 49.71 100.51 49.32 101.84 49.02C101.94 49 102.05 48.97 102.15 48.95C103.27 48.7 104.38 48.41 105.48 48.08C105.48 48.08 105.48 48.08 105.49 48.08C106.08 47.91 106.65 47.73 107.23 47.53C110.31 46.52 113.3 45.25 116.25 43.85C118.94 42.5601 121.23 40.97 124.23 40.96C125.5 40.95 126.72 40.81 127.9 41.42C128.8 41.87 129.5 42.9 130.55 42.96C128.51 42.99 127.99 43.54 126.67 45.47C123 50.79 120.24 56.58 117.01 62.16C117 62.18 116.98 62.21 116.97 62.23C116.96 62.25 116.95 62.27 116.94 62.29C115.81 64.24 114.83 66.23 113.88 68.24V68.25C113.39 69.28 112.9 70.3 112.41 71.33C111.9 72.41 111.33 73.46 110.73 74.49C110.7 74.55 110.66 74.62 110.62 74.68C110.44 75 110.25 75.32 110.06 75.64C110.02 75.7 109.99 75.75 109.96 75.8C109.84 76 109.72 76.2 109.6 76.39C109.22 77 108.84 77.61 108.45 78.21C108.22 78.59 107.98 78.96 107.74 79.34C107.73 79.35 107.73 79.35 107.72 79.36C107.51 79.69 107.3 80.02 107.09 80.36C106.8 80.82 106.51 81.28 106.22 81.75C106.16 81.84 106.11 81.92 106.05 82.02V82.03C105.96 82.17 105.88 82.31 105.79 82.45C105.67 82.64 105.56 82.83 105.43 83.03C103.48 86.16 101.04 89.47 99.85 92.94C101.96 90.01 104.3 87.3 106.76 84.69C107.09 84.33 107.43 83.98 107.78 83.62C108.29 83.09 108.8 82.57 109.31 82.06C109.39 81.96 109.48 81.88 109.57 81.8C109.8 81.55 110.04 81.32 110.27 81.09C110.45 80.91 110.63 80.72 110.82 80.54C110.95 80.42 111.08 80.2901 111.21 80.16C111.44 79.93 111.67 79.7 111.9 79.47C111.95 79.43 111.99 79.39 112.04 79.34C112.22 79.16 112.41 78.98 112.59 78.8C112.62 78.77 112.65 78.74 112.68 78.71C112.77 78.62 112.87 78.53 112.96 78.44C113.39 78.0201 113.82 77.6 114.25 77.18C114.49 76.95 114.73 76.72 114.96 76.48H114.97C115.05 76.4 115.13 76.32 115.21 76.24C115.37 76.1 115.52 75.95 115.67 75.79C115.88 75.6 116.08 75.4 116.28 75.2C116.87 74.63 117.46 74.05 118.04 73.46C118.14 73.37 118.24 73.27 118.33 73.17C118.38 73.13 118.43 73.08 118.47 73.03C118.74 72.77 119.01 72.5 119.27 72.23C119.87 71.62 120.46 71.02 121.02 70.42C121.47 69.96 121.9 69.5 122.32 69.03C122.47 68.87 122.62 68.7 122.76 68.54C123.68 67.5 124.54 66.42 125.34 65.24C125.42 65.13 125.49 65.02 125.57 64.9C125.73 64.66 125.89 64.42 126.05 64.18C126.39 63.67 126.74 63.16 127.09 62.67C127.09 62.66 127.1 62.66 127.1 62.66C127.62 61.94 128.14 61.26 128.72 60.58C128.92 60.34 129.13 60.1 129.34 59.86C129.37 59.82 129.41 59.78 129.44 59.74C129.83 59.31 130.22 58.84 130.61 58.36C130.6 58.35 130.62 58.3501 130.62 58.3501C131.92 56.7801 133.28 55.12 134.96 54.34C136.9 53.44 138.9 52.85 140.96 52.28C141.05 52.25 141.13 52.23 141.22 52.2C141.22 52.21 141.23 52.2 141.23 52.2C141.62 52.09 142.02 51.98 142.42 51.87C143.04 51.69 149.96 50.2 152.7 49.07C153.08 48.92 153.38 48.78 153.57 48.64Z" fill="#003F5F"/>
</svg>
