<svg width="532" height="75" viewBox="0 0 532 75" fill="none" xmlns="http://www.w3.org/2000/svg">
<path d="M36.8 74.5C15.9 74.5 0.4 58.8 0.4 37.9C0.4 17.1 15.7 1.5 36.4 1.5C57.7 1.5 67.7 13.1 69.1 26.5H55.9C54.3 20.6 50.5 14.1 36.5 14.1C23.6 14.1 13.5 22.9 13.5 38C13.5 53 23.5 61.9 36.5 61.9C51.2 61.9 55.1 55.4 56.8 49.5H70C68.1 65.1 57.5 74.5 36.8 74.5ZM77.1625 47.9C77.1625 31.8 88.4625 21.5 105.663 21.5C122.963 21.5 134.263 32.5 134.263 47.9C134.263 63.4 122.963 74.6 105.663 74.6C88.4625 74.6 77.1625 64 77.1625 47.9ZM90.1625 47.9C90.1625 56.1 94.6625 62.8 105.663 62.8C116.763 62.8 121.263 56.1 121.263 47.9C121.263 39.7 116.763 33.3 105.663 33.3C94.5625 33.3 90.1625 39.7 90.1625 47.9ZM182.753 26.9V0.499998L195.053 0.399999V72.9L182.753 73V69.4C182.753 66.4 184.453 62.9 185.453 60L183.253 59.3C182.353 62.2 181.853 66.3 179.753 68.4C176.053 72.3 170.953 74.6 164.253 74.6C149.253 74.6 138.953 63 139.253 48.2C139.553 33.8 149.753 21.5 164.153 21.5C170.853 21.5 176.053 24.1 179.653 28C181.753 30.1 182.353 34.2 183.353 37L185.453 36.3C184.453 33.4 182.753 29.9 182.753 26.9ZM165.853 63.1C175.253 63.1 180.553 56.8 180.553 48.4C180.553 39.9 175.253 32.9 165.853 32.9C156.453 32.9 151.453 39.9 151.453 48.4C151.453 56.8 156.453 63.1 165.853 63.1ZM234.516 74.6C214.216 74.6 203.316 62.6 203.316 47.7C203.316 32.8 215.216 21.5 232.116 21.5C249.516 21.5 260.316 33.7 260.216 47.5C260.216 48.5 260.216 50.9 260.116 51.8L218.016 51.7C218.016 57.2 223.016 64.1 233.316 64.1C240.016 64.1 244.116 61.2 245.116 58.7H259.116C257.616 63.9 250.216 74.6 234.516 74.6ZM218.016 43.5H245.916C245.916 36.6 240.816 31.2 232.416 31.2C223.916 31.2 218.016 37.2 218.016 43.5ZM302.816 74.5C281.916 74.5 266.416 58.8 266.416 37.9C266.416 17.1 281.716 1.5 302.416 1.5C323.716 1.5 333.716 13.1 335.116 26.5H321.916C320.316 20.6 316.516 14.1 302.516 14.1C289.616 14.1 279.516 22.9 279.516 38C279.516 53 289.516 61.9 302.516 61.9C317.216 61.9 321.116 55.4 322.816 49.5H336.016C334.116 65.1 323.516 74.5 302.816 74.5ZM362.571 26.5C367.871 22.4 373.371 21.5 383.171 21.5V32.9C370.771 32.9 357.871 37.3 357.871 51.2V73H345.671V23H357.871V24.5C357.871 28.3 355.771 32.9 354.271 36.4L356.371 37.3C357.871 33.8 359.471 28.8 362.571 26.5ZM430.058 68C426.358 72.1 421.158 74.6 414.458 74.6C399.558 74.6 389.058 62.6 389.058 47.7C389.058 32.8 399.558 21.5 414.458 21.5C421.158 21.5 426.358 23.8 429.958 27.7C432.058 29.9 432.458 34 433.458 36.9L435.558 36.2C434.658 33.3 432.858 29.8 432.858 26.8L432.758 23H445.058V73H432.758L432.858 68.9C432.858 65.9 434.658 62.3 435.558 59.5L433.358 58.8C432.458 61.6 432.058 65.7 430.058 68ZM401.358 47.7C401.358 56.1 406.858 63.2 415.158 63.2C423.358 63.2 428.858 55.9 429.158 47.7C429.158 38.9 424.258 32.9 415.158 32.9C406.858 32.9 401.358 39.2 401.358 47.7ZM463.216 18.8C463.416 9.09999 470.216 3 477.616 3H489.216V12.9H482.016C477.316 12.9 475.416 15.1 475.416 18.8V23H487.916V32.7H475.416V72.7H463.216V32.7H453.316V23H463.216V18.8ZM506.015 56.2V33.7H496.015V23H506.015V4.1H518.215V23H531.215V33.7H518.215V56.2C518.215 60.4 520.115 61.6 524.815 61.6H530.715V73H518.615C509.215 73 506.015 64.2 506.015 56.2Z" fill="#8CDCBE"/>
</svg>
