<svg width="750" height="180" viewBox="0 0 750 180" fill="none" xmlns="http://www.w3.org/2000/svg">
<path d="M750 101.98V146.57C744.59 148.03 739.28 149.81 733.87 151.24C733.26 151.4 732.65 151.55 732.04 151.69C729.28 152.32 726.49 152.75 723.68 153.04C723.67 153.05 723.65 153.05 723.64 153.05C722.8 153.13 721.96 153.21 721.11 153.27C719.68 153.38 718.26 153.47 716.83 153.53C716.83 153.53 716.83 153.53 716.82 153.53C716.72 153.53 716.62 153.53 716.53 153.54C714.28 153.63 712.04 153.68 709.8 153.71C708.3 153.73 706.8 153.75 705.3 153.78C705.3 153.78 705.3 153.78 705.29 153.78C705 153.78 704.71 153.78 704.41 153.79C704.29 153.79 704.17 153.79 704.04 153.8C701.12 153.83 698.18 153.87 695.25 153.89C694.72 153.9 694.2 153.9 693.68 153.9C693.4 153.91 693.12 153.91 692.84 153.91H692.42C692.41 153.9 692.41 153.91 692.41 153.91C691.77 153.91 691.14 153.92 690.51 153.91C689.65 153.92 688.79 153.92 687.93 153.92H687.92C687.36 153.92 686.8 153.92 686.24 153.91H686.1C683.4 153.9 680.71 153.87 678.02 153.81C677.54 153.8 677.05 153.78 676.57 153.77C673.65 153.69 670.74 153.58 667.83 153.43C667.82 153.43 667.82 153.43 667.82 153.43C665.93 153.33 664.04 153.21 662.15 153.07C661.49 153.02 660.84 152.98 660.18 152.94H660.17C659.87 152.91 659.56 152.89 659.25 152.88C656.29 152.7 653.33 152.58 650.36 152.52C650.16 152.51 649.96 152.5 649.76 152.5C649.22 152.49 648.69 152.48 648.16 152.47C646.04 152.43 643.91 152.42 641.79 152.41C640.95 152.41 640.1 152.41 639.26 152.42C637.85 152.41 636.45 152.42 635.05 152.44C634.95 152.43 634.85 152.43 634.75 152.44C631.71 152.45 628.67 152.48 625.64 152.49C624.37 152.51 623.09 152.51 621.82 152.51C621.4 152.51 620.97 152.51 620.55 152.5C620.26 152.51 619.96 152.5 619.67 152.5C616.93 152.48 614.18 152.44 611.43 152.41C610.79 152.4 610.15 152.39 609.51 152.39C608.08 152.38 606.66 152.38 605.25 152.39C604.44 152.39 603.64 152.4 602.84 152.42C602.84 152.42 602.84 152.43 602.83 152.42C601.16 152.45 599.5 152.5 597.84 152.59C597.26 152.62 596.69 152.65 596.11 152.69C595.54 152.72 594.96 152.75 594.39 152.79C593.5 152.84 592.62 152.9 591.73 152.96C591.5 152.98 591.26 152.99 591.03 153.01C590.8 153.02 590.56 153.04 590.33 153.06C586.03 153.36 581.75 153.73 577.48 154.15H577.47C575.44 154.35 573.42 154.56 571.39 154.79C570.31 154.9 569.23 155.02 568.16 155.16C567.52 155.22 566.88 155.3 566.24 155.38C565.68 155.44 565.12 155.51 564.56 155.58H564.55C563.5 155.71 562.44 155.84 561.39 155.98H561.36C561.1 156.01 560.85 156.05 560.59 156.08C559.93 156.17 559.27 156.25 558.61 156.34C558.23 156.39 557.86 156.44 557.49 156.49C557.21 156.53 556.93 156.56 556.66 156.6C556.13 156.67 555.61 156.74 555.09 156.82C554.66 156.88 554.23 156.94 553.8 157C553.55 157.03 553.29 157.07 553.04 157.1C547.97 157.82 542.9 158.6 537.82 159.42C537.31 159.5 536.8 159.59 536.29 159.67H536.28C534.96 159.89 533.64 160.11 532.32 160.33C530.13 160.7 527.94 161.07 525.75 161.44H525.74C524.16 161.71 522.6 161.97 521.02 162.24H521.01C519.82 162.43 518.63 162.63 517.45 162.83C517.02 162.9 516.6 162.97 516.18 163.04H516.17C508.79 164.26 501.43 165.45 494.06 166.57C476.55 169.22 459.02 171.45 441.29 172.71C437.87 172.96 434.43 173.16 430.99 173.33C425.56 173.6 420.12 173.8 414.67 173.96H414.66C407.47 174.17 400.28 174.29 393.08 174.33C388.66 174.37 384.23 174.37 379.81 174.35C377.4 174.35 375 174.35 372.59 174.32C369.74 174.3 366.89 174.26 364.05 174.22C359.59 174.16 355.13 174.08 350.68 173.99C350.68 173.99 350.68 173.99 350.67 173.99C341.74 173.8 332.82 173.55 323.92 173.29C321.65 173.22 319.38 173.15 317.12 173.08C313.91 172.98 310.7 172.89 307.49 172.78C289.63 172.21 271.67 171.45 253.82 169.87H253.81C250.01 169.54 246.21 169.16 242.43 168.74C235.71 168.01 229.01 167.14 222.35 166.09C214.43 164.85 206.56 163.5 198.7 162.19H198.69C192.73 161.19 186.78 160.21 180.81 159.31C175.74 158.55 170.66 157.84 165.56 157.22C165.29 157.18 165.01 157.15 164.74 157.12C163.89 157.02 163.05 156.92 162.2 156.82C156.29 156.15 150.38 155.46 144.47 154.74C142.6 154.52 140.74 154.29 138.88 154.05C137.42 153.88 135.96 153.7 134.5 153.51C133.89 153.44 133.28 153.36 132.67 153.28C132.29 153.23 131.91 153.19 131.53 153.13C131.33 153.11 131.14 153.09 130.94 153.06C130.2 152.97 129.45 152.87 128.71 152.78C128.66 152.77 128.61 152.76 128.56 152.76C128.3 152.73 128.05 152.69 127.79 152.66C126.77 152.53 125.75 152.4 124.73 152.26H124.7C123.93 152.16 123.16 152.06 122.39 151.95C122.38 151.95 122.38 151.95 122.38 151.95C122.22 151.93 122.06 151.91 121.9 151.89C121.27 151.81 120.64 151.72 120.01 151.64C119.15 151.53 118.29 151.41 117.44 151.3C116.81 151.21 116.18 151.13 115.56 151.05C115.44 151.03 115.32 151.01 115.2 151C115.12 150.98 115.05 150.97 114.97 150.96H114.96C114.34 150.88 113.72 150.79 113.11 150.71C112.43 150.62 111.76 150.52 111.09 150.43C110.77 150.39 110.45 150.34 110.13 150.3C110.07 150.29 110.02 150.28 109.96 150.28C109.87 150.26 109.79 150.25 109.7 150.24C109.25 150.18 108.81 150.12 108.36 150.05C107.48 149.93 106.59 149.8 105.71 149.67C104.77 149.54 103.83 149.41 102.9 149.27C102.21 149.17 101.52 149.07 100.83 148.97C100.5 148.92 100.18 148.87 99.85 148.83C99.16 148.72 98.46 148.62 97.77 148.52C97.45 148.47 97.12 148.43 96.8 148.38C96.28 148.3 95.76 148.23 95.24 148.16C94.6 148.06 93.96 147.96 93.32 147.87H93.31C92.7 147.78 92.11 147.7 91.5 147.61H91.49C91.4 147.6 91.3 147.58 91.21 147.57C91.02 147.54 90.83 147.52 90.64 147.49H90.63C90.51 147.47 90.4 147.46 90.28 147.44C89.86 147.38 89.44 147.32 89.02 147.27C87.74 147.08 86.46 146.91 85.18 146.74C85.05 146.72 84.92 146.7 84.79 146.69C84.22 146.61 83.65 146.54 83.08 146.47C82.59 146.4 82.09 146.34 81.6 146.28C80.84 146.18 80.08 146.09 79.32 146C77.81 145.81 76.29 145.64 74.78 145.47C73.28 145.31 71.79 145.16 70.29 145.02C69.48 144.94 68.67 144.87 67.85 144.81C67.84 144.8 67.82 144.8 67.8 144.8C67.47 144.77 67.13 144.74 66.8 144.72C66.62 144.7 66.43 144.69 66.25 144.67C65.31 144.6 64.36 144.53 63.42 144.47C62.46 144.41 61.49 144.34 60.52 144.28H60.51C60.39 144.27 60.27 144.27 60.14 144.26C55.73 143.98 51.28 143.71 46.8 143.49C46.72 143.48 46.64 143.48 46.55 143.48C45.35 143.41 44.15 143.36 42.95 143.31C42.57 143.29 42.18 143.27 41.79 143.26C38.12 143.1 34.43 142.99 30.74 142.93C30.3 142.93 29.86 142.92 29.42 142.92H29.41C25.24 142.86 21.07 142.88 16.92 143.01C16.33 143.03 15.75 143.05 15.16 143.07C14.89 143.08 14.63 143.09 14.36 143.1H14.35C13.03 143.15 11.72 143.21 10.4 143.29C9.53 143.34 8.66 143.39 7.79 143.46C5.18 143.63 2.58 143.86 0 144.13V7.89001C0.26 7.98001 0.53 8.07999 0.79 8.17999C3.29 9.15999 5.46 10.64 7.9 11.67C10.95 12.96 13.94 13.7 16.93 15.28C18.52 16.11 20.09 16.94 21.65 17.74C25.8 19.86 29.95 21.8 34.58 23.17C35.7 23.5 36.82 23.82 37.94 24.13C38.73 24.34 39.51 24.55 40.3 24.76C43.25 25.54 46.2 26.28 49.13 27.09C51.59 27.77 54.03 28.6 56.52 29.18C57.68 29.47 58.85 29.7 60.03 29.84C60.63 29.91 61.23 29.96 61.84 29.98C64.4 30.06 67.44 30.3 70.14 30.1C70.7 30.08 71.24 30.02 71.76 29.94C74.38 29.56 77.73 27.62 79.98 26.59C84.6 24.52 89.4 23 94.02 20.96C95.67 20.23 97.27 19.43 98.86 18.62C98.87 18.62 98.88 18.61 98.89 18.61C100.15 17.96 101.41 17.3 102.67 16.66C102.9 16.54 103.13 16.42 103.36 16.31C103.78 16.1 104.2 15.89 104.62 15.68C105.02 15.49 105.42 15.3 105.82 15.11C106.28 14.89 106.75 14.68 107.22 14.47C107.74 14.24 108.26 14.01 108.79 13.8C109.43 13.54 109.97 13.25 110.48 13C111.73 12.36 112.78 11.83 114.5 11.88C114.54 11.87 114.59 11.88 114.63 11.88C115.56 11.93 116.55 12.1 117.56 12.33C120.53 13.04 123.7 14.39 126.19 15.42C128.61 16.51 130.97 17.7 133.28 19C134.08 19.44 134.87 19.89 135.66 20.36C136.43 20.7 137.2 21 137.98 21.3C139.91 22.04 141.88 22.67 143.87 23.22C144.2 23.32 144.53 23.41 144.87 23.5C150.37 24.94 154.27 29.52 159.27 32.25C159.98 32.64 160.71 33.02 161.43 33.39C161.43 33.39 161.44 33.39 161.44 33.4L161.45 33.41C161.46 33.41 161.46 33.42 161.47 33.42C162.03 33.69 162.57 33.97 163.14 34.24C165.25 35.27 167.39 36.22 169.56 37.12C175.3 39.5 181.19 41.51 187 43.64C190.35 44.88 193.37 46.02 196.53 46.87C198.8 47.49 201.14 47.96 203.73 48.2C205.87 48.41 207.98 48.59 210.07 48.8C214.76 49.27 219.34 49.87 224 51.25C229.95 53.02 235.6 54.8 240.68 58.46C241.69 59.2 242.5 59.96 243.68 60.42C247.66 62.02 252.57 62.28 256.82 63.23H256.84C256.92 63.24 257 63.26 257.08 63.28C257.18 63.3 257.27 63.32 257.36 63.34C261.7 64.38 266.01 65.54 270.3 66.78C273.96 67.82 277.6 68.92 281.23 70.04C282.72 70.5 284.2 70.96 285.68 71.42C291.64 73.26 297.42 75.32 302.96 77.88C306.23 79.39 309.42 81.1 312.51 83.04C312.98 83.34 313.44 83.64 313.9 83.94C318.53 87.02 325.07 89.4 330.45 90.68C333.88 91.5 336.45 92.7 339.92 92.84C342.53 92.96 345.11 93.7 347.73 93.92C350.71 94.17 353.78 94.25 356.86 94.21C360.21 94.17 363.55 94 366.78 93.76C368.75 93.62 370.71 93.5 372.66 93.41C374.57 93.31 376.48 93.23 378.39 93.17C383.23 93.02 388.06 92.96 392.92 92.92C393.85 92.9 394.79 92.89 395.72 92.89H395.73C395.89 92.88 396.06 92.88 396.22 92.88C396.58 92.88 396.93 92.89 397.27 92.92C400.28 93.15 402.82 94.42 405.98 93.94C406.67 93.84 407.36 93.72 408.05 93.56C408.6 93.44 409.16 93.3 409.71 93.15C410.02 93.07 410.33 92.98 410.64 92.89C410.91 92.81 411.18 92.73 411.46 92.64C411.9 92.5 412.35 92.36 412.79 92.2C414.45 91.63 416.1 90.97 417.71 90.25C417.72 90.26 417.72 90.25 417.72 90.25C419.87 89.31 421.94 88.28 423.88 87.28C424.75 86.83 425.63 86.36 426.49 85.89C427.64 85.27 428.78 84.64 429.92 84C431.06 83.36 432.2 82.72 433.33 82.07C434.93 81.15 436.53 80.23 438.13 79.3C439.38 78.59 440.62 77.87 441.87 77.17C443.95 75.99 446.04 74.83 448.15 73.73C448.85 73.36 449.56 72.99 450.27 72.63C451.09 72.21 451.92 71.8 452.75 71.4C453.15 71.21 453.55 71.02 453.95 70.83C454.05 70.77 454.15 70.73 454.26 70.68C454.26 70.68 454.26 70.68 454.27 70.68C454.34 70.64 454.42 70.61 454.49 70.58C454.92 70.38 455.35 70.18 455.78 69.99C456.54 69.65 457.3 69.32 458.07 69C458.84 68.67 459.61 68.36 460.39 68.06C463.66 66.8 467.11 66 470.45 64.94C471.75 64.54 473.03 64.08 474.28 63.54C475.74 62.92 476.35 62.66 477.88 62.5C479.72 62.32 481.69 62.58 483.54 62.56C487.34 62.53 491.09 62.01 494.87 61.66H494.88C496.54 61.5 498.19 61.37 499.87 61.33C501.57 61.29 503.26 61.26 504.96 61.23C511.88 61.1 518.8 61.03 525.72 60.85C529.32 60.76 532.92 60.64 536.51 60.46C543.63 60.11 550.74 59.56 557.83 58.62C559.76 58.37 561.69 58.1 563.61 57.81H563.62C566.49 57.39 569.37 56.94 572.23 56.49H572.24C574.4 56.15 576.56 55.81 578.72 55.48C579.22 55.4 579.72 55.33 580.22 55.25C582.21 54.94 583.88 54.85 585.47 54.9C587.6 54.95 589.61 55.27 592.12 55.67C593.68 55.92 595.02 55.96 596.32 55.72H596.33C596.55 55.68 596.77 55.63 596.99 55.58C597.06 55.56 597.13 55.54 597.2 55.52C597.26 55.51 597.32 55.49 597.38 55.47C597.53 55.43 597.68 55.39 597.82 55.34C597.91 55.31 598 55.28 598.09 55.24C598.26 55.18 598.43 55.12 598.6 55.04C598.73 54.99 598.86 54.94 598.99 54.87C599.12 54.82 599.25 54.76 599.38 54.7C614.63 47.38 628.76 39.08 642.63 29.36C642.77 29.27 642.9 29.17 643.04 29.07C644.88 27.77 646.89 26.19 648.96 24.72C651.14 23.17 653.39 21.75 655.57 20.86C659.16 19.42 664.11 18.92 667.96 18C671.83 17.08 675.69 16.25 679.56 15.49C688.01 13.81 696.46 12.39 704.98 10.75C705.86 10.58 706.75 10.42 707.64 10.28H707.65C711.56 9.63 715.55 9.19 719.52 8.66C719.53 8.66 719.54 8.65999 719.55 8.64999C720.33 8.53999 721.11 8.44001 721.89 8.32001H721.9C727.73 7.45001 733.45 6.25001 738.78 3.76001C742.49 2.04001 746.15 1.07 750 0V99.82C750.27 100.39 750.19 101.18 750 101.98Z" fill="#0A6684"/>
<path d="M317.06 110.45C317.19 108.89 314.52 107.42 313.62 106.6C310.66 103.94 307.53 101.36 304.24 99.11C301.65 97.34 298.6 96.35 296.09 94.76C295.62 94.09 295.02 93.57 294.28 93.2C293.12 92.71 291.97 92.22 290.82 91.7C288.95 90.8 287.1 90.16 285.14 89.45C280.79 87.88 276.87 85.15 272.76 83.07C269 81.17 265.31 79.38 261.91 76.87C259.61 75.17 257.16 73.61 254.81 72.02C253.26 70.97 251.9 69.58 250.3 68.62C248.43 67.49 245.5 66.94 244.41 64.95C244.6 66.28 246.34 67.49 247.2 68.49C249.25 70.89 251.06 73.46 253.34 75.66C257.51 79.68 261.39 83.74 264.41 88.74C266.39 92.01 267.41 95.79 269.05 99.22C270.22 101.68 271.07 104.72 272.48 107C274.26 109.9 277.78 110.99 279.94 113.54C282.17 116.17 282.77 118.7 284.21 121.73C284.91 123.19 285.88 125.8 286.9 126.9C287.9 127.97 287.2 127.41 288.34 127.6C289.6 126.87 290.97 126.4 292.43 126.19C295.02 125.81 297.61 125.43 300.2 125.07C308.58 123.8 316.83 123.26 325.3 123.19L317.06 110.45Z" fill="#045A78"/>
<path d="M270.05 123.96C268.32 121.76 266.77 120.05 265.31 117.59C262.35 112.62 259.07 107.45 255.41 102.97C249.65 95.92 243.58 89.39 237.28 82.82C234.98 80.42 233.08 77.46 230.66 75.21C228.47 73.17 225.3 73.28 222.5 72.77C219.73 72.26 217.52 71.29 215.11 69.95C213.76 69.2 212.3 68.86 210.93 68.11C209.2 67.17 207.65 65.98 206.03 64.87C204.45 63.78 202.86 63.11 201.52 61.71C200.87 61.03 200.24 59.8 199.47 59.52C199.17 61.15 198.09 62.38 197.76 63.96C197.32 66.11 198.36 68.1 199.28 69.95C200.04 71.46 200.64 73.11 201.67 74.47C202.69 75.82 204.01 76.82 204.89 78.28C206.76 81.39 207.27 85.22 207.54 88.76C207.8 92.09 208.55 95.51 209.75 98.63C210.81 101.36 212.62 103.38 213.85 105.97C215.03 108.46 216.19 110.38 217.89 112.63C220.5 116.09 222.65 120.17 224.73 123.95C225.72 125.76 227.53 128.48 227.79 130.72L266.79 128.47C268.61 127.92 270.93 127.88 272.59 126.98C271.27 126.61 270.84 124.97 270.05 123.96Z" fill="#045A78"/>
<path d="M572.69 60.96C571.58 61.19 571.33 62.45 570.64 63.19C569.17 64.77 567.59 65.36 565.67 66.37C562.47 68.06 559.59 70.57 557.79 73.71C555.81 77.18 552.43 78.99 550.46 82.53C549.06 85.03 547.48 87.44 546.73 90.23C546.07 92.7 544.99 95.05 543.91 97.37C541.74 102.02 540.19 107.05 536.85 111.04C533.6 114.94 530.17 118.91 526.28 122.17C524.57 123.6 522.14 125.76 519.83 124.48C521.2 116.34 525.93 109.44 528.01 101.59C528.54 99.6 529.59 97.67 529.93 95.63C530.21 93.97 530.11 92.32 530.49 90.67C531.4 86.7 532.36 83.01 532.32 78.88C532.28 75.06 532.69 71.04 532.33 67.23C532.24 66.29 531.74 63.9 530.89 63.29C529.73 62.46 526.14 64.1 524.98 64.49C521.54 65.64 516.52 66.84 513.71 69.35C510.91 71.86 509.51 76.44 507.79 79.69C505.88 83.3 503.49 86.65 501.5 90.2C499.52 93.73 497.88 97.3 495.59 100.68C492.09 105.84 488.18 110.45 483.18 114.2C481.5 115.46 479.86 116.79 478.18 118.05C477.3 118.71 476.49 119.5 475.28 119.45L480.53 130.7C481.32 133.06 481.48 134.74 483.99 135.27C485.71 135.63 488.25 135.2 489.94 135.2C503.81 135.2 517.59 135.1 531.43 134.24C536.99 133.9 542.53 133.64 548.1 133.68C548.61 133.68 551.07 134.03 551.83 133.75C553.77 133.04 554.06 128.85 554.45 127.23C555.86 121.47 557.77 115.8 559.29 110.06C560.94 103.82 561.49 97.39 563.03 91.11C563.83 87.84 564.28 84.43 565.43 81.26C566.57 78.1 568.37 75.04 569.72 71.95C570.88 69.38 574.06 64.02 572.69 60.96Z" fill="#045A78"/>
<path d="M750 36.85V62.64C749.76 64.12 749.51 65.59 749.25 67.07C747.89 74.66 746.16 82.1 744.07 89.51C743.95 89.94 743.82 90.38 743.7 90.81C743.06 93.02 742.41 95.23 741.72 97.43C740.59 101.06 739.37 104.66 737.98 108.19C737.24 110.08 736.55 112.69 735.57 114.87C735.56 114.87 735.56 114.88 735.56 114.88C735.56 114.89 735.55 114.89 735.55 114.9C735.55 114.91 735.54 114.91 735.54 114.92C735.54 114.93 735.53 114.95 735.52 114.96V114.97C735.02 116.06 734.45 117.04 733.76 117.77C733.64 117.9 733.51 118.02 733.39 118.13C733.38 118.14 733.37 118.15 733.36 118.16C732.42 118.99 731.46 119.28 730 119.54C723.89 120.66 717.61 120.24 711.42 120.15C711.02 120.14 710.62 120.13 710.22 120.13C708.22 120.11 706.22 120.14 704.22 120.21C703.34 120.24 702.46 120.27 701.57 120.31C688.72 120.87 675.94 122.6 663.06 122.52C662.91 122.52 662.77 122.52 662.62 122.51C662.49 122.51 662.36 122.51 662.24 122.5C659.37 122.45 656.51 122.16 653.65 121.94C651.46 121.77 649.26 121.65 647.06 121.7L637.31 118.7C644.72 115.55 650.47 107.78 655.79 102.01C655.84 101.96 655.88 101.92 655.92 101.87C659.26 98.25 662.51 94.56 665.73 90.84C667.51 88.8 669.27 86.74 671.03 84.68C674.19 80.98 677.77 77.52 680.54 73.51C682.97 69.99 682.94 66.5 683.87 62.58C684.66 59.23 686.95 56.48 688.38 53.42C689.29 51.47 689.99 49.47 690.74 47.46C691.51 45.41 692.3 43.3 693.14 41.22C693.86 39.4 694.61 37.58 695.39 35.83C696.7 32.91 698.76 30.31 700.34 27.53C702.26 24.15 704.91 21.05 707.65 18.29C709.32 16.6 711.35 15.36 713.06 13.73C714.52 12.33 715.76 10.7 717.5 9.63002C717.97 9.34002 718.72 8.95001 719.52 8.65001C719.53 8.65001 719.54 8.65003 719.55 8.64003C720.36 8.35003 721.22 8.16001 721.89 8.31001H721.9C722.26 8.39001 722.57 8.55002 722.79 8.85002C723.35 9.60002 722.82 12.94 722.75 13.82C722.05 21.88 720.94 29.8 719.56 37.69C718.79 42.09 717.93 46.47 717.01 50.88V50.89C716.85 51.73 716.67 52.56 716.49 53.4C715.18 59.6 713.7 65.93 713.1 72.23C712.47 78.81 710 85.18 707.74 91.35C707.46 92.09 707.26 92.85 707.1 93.61C706.82 94.96 706.65 96.32 706.42 97.66C706.23 98.72 706 99.78 705.64 100.8C706.14 99.73 706.62 98.65 707.1 97.56C707.65 96.31 708.2 95.05 708.74 93.79C710.54 89.66 712.39 85.57 714.78 81.8C717.25 77.92 719.57 74 721.93 70.04C723.71 67.06 725.69 64.36 727.59 61.45C729.91 57.89 732.48 54.44 734.5 50.71C735.83 48.25 737.15 45.36 738.96 43.01C739.73 42.01 740.59 41.1 741.57 40.37C744.07 38.51 747.27 38.17 750 36.85Z" fill="#045A78"/>
<path d="M110.48 12.99C110.07 13.57 109.65 14.16 109.25 14.76C108.18 16.34 107.19 17.97 106.42 19.69C104.53 23.9 102.51 28.19 100.97 32.53C99.82 35.76 99.16 39.32 97.63 42.37C96.38 44.86 96.16 47.93 94.57 50.21C94.02 50.99 93.26 51.58 92.73 52.37C91 54.92 89.9 58.11 88.63 60.91C85.97 66.8 83.42 72.74 80.55 78.53C79.34 80.97 77.7 83.32 75.73 85.22C74.75 86.16 73.55 86.8 72.38 87.49C71.52 87.99 70.68 88.52 69.95 89.2C66.69 92.23 63.55 95.46 60.5 98.77C60.28 99 60.06 99.24 59.85 99.48C56.78 102.82 53.79 106.23 50.84 109.6C48.23 112.58 46.47 116.15 44.62 119.61C42.55 123.48 40.14 127.22 37.87 130.99C37.64 131.37 37.41 131.76 37.18 132.14C35.02 135.76 32.58 139.15 30.74 142.93C30.56 143.25 30.41 143.58 30.26 143.91C29.62 145.34 29.15 147.48 28.01 148.69C27.76 148.96 27.48 149.19 27.15 149.35C26.14 149.85 24.96 150.17 23.72 150.38C23.36 150.44 22.99 150.5 22.62 150.54C21.2 150.72 19.76 150.8 18.45 150.9C18.12 150.92 17.8 150.95 17.49 150.98C17.4 150.99 17.3 151 17.21 151.01C16.35 151.1 15.53 151.24 14.74 151.42C13.96 151.6 13.2 151.83 12.44 152.11C11.81 152.33 11.19 152.59 10.55 152.87C10.02 153.11 9.51 153.32 8.99 153.51C8.34 153.74 7.68 153.93 7.01 154.07C6.36 154.21 5.68 154.29 4.98 154.32C4.74 154.33 4.5 154.33 4.25 154.33C2.86 154.32 1.43 154.35 0 154.36V134.44C2.96 131.73 5.97 129.1 9.47 127.39C12.44 125.94 15.42 124.67 18.5 123.49C23.06 121.74 25.96 117.37 29.91 114.63C36.03 110.38 41.93 105.44 47.24 100.22C47.68 99.78 48.11 99.34 48.52 98.88H48.53C49.51 97.79 50.41 96.64 51.26 95.42C53.96 91.54 56.71 87.52 59.06 83.32C60.78 80.23 62.29 77.05 63.39 73.74C63.88 72.28 63.79 70.91 64.11 69.44C64.54 67.5 65.54 65.6 66.16 63.71C67.69 58.99 69.85 54.49 71.8 49.93C72.57 48.13 72.34 46.69 72.68 44.79C72.87 43.73 73.33 42.82 73.3 41.73C73.25 39.2 71.66 37.51 70.71 35.41C70.69 35.38 70.68 35.34 70.66 35.31C70.01 33.82 70.06 31.85 70.14 30.09C70.7 30.07 71.24 30.01 71.76 29.93C74.38 29.55 77.73 27.61 79.98 26.58C84.6 24.51 89.4 22.99 94.02 20.95C95.67 20.22 97.27 19.42 98.86 18.61C98.87 18.61 98.88 18.6 98.89 18.6C100.15 17.95 101.41 17.29 102.67 16.65C102.9 16.53 103.13 16.41 103.36 16.3C103.78 16.09 104.2 15.88 104.62 15.67C105.02 15.48 105.42 15.29 105.82 15.1C106.28 14.88 106.75 14.67 107.22 14.46C107.74 14.23 108.26 14 108.79 13.79C109.43 13.53 109.97 13.24 110.48 12.99Z" fill="#045A78"/>
<path d="M211.29 130.87C209.56 131.58 206.41 130.2 204.55 130.15C203.3 130.12 201.96 130.41 200.75 130.04C198.61 129.38 195.64 127.28 193.93 125.86C192.24 124.47 191.11 123.32 190.44 121.21C189.41 118.02 187.88 115.7 185.92 112.98C184.67 111.26 184.06 109.26 182.79 107.53C181.84 106.24 180.64 105.15 179.69 103.9C177.43 100.91 175.42 97.74 173.07 94.81C168.9 89.58 164.94 84.33 161.71 78.43C160.73 76.65 159.76 74.88 158.88 73.07C159.23 74.35 159.4 75.71 159.95 76.91C160.4 77.9 161.31 78.7 161.64 79.75C162.18 81.47 161.76 83.7 161.74 85.47C161.68 92.26 164.31 99.63 167.11 105.7C169.99 111.95 172.63 118.26 175.36 124.58C176.02 126.12 176.66 127.44 176.82 129.1C176.87 129.65 176.73 130.12 176.87 130.67C175.52 129.55 172.99 129.66 171.36 129.29C168.94 128.74 166.5 127.88 164.12 127.17C160.63 126.13 156.5 124.14 152.87 124.1C152.24 122.7 152.73 120.11 152.76 118.56C152.8 115.74 151.77 113.92 150.48 111.43C149.13 108.83 148.43 106.06 148.23 103.13C148.04 100.29 147.32 97.63 146.92 94.81C146.45 91.51 145.98 87.8 146 84.47C146.02 81.41 145.22 78.56 145.24 75.51C145.26 73.21 145.17 70.91 145.22 68.62C145.28 66.22 146.04 64.01 146.01 61.62C145.93 55.71 146 49.8 146 43.88C146 41.07 146.26 38.4 145.32 35.73C143.7 31.13 141.49 26.28 138.69 22.28C138.46 21.95 138.22 21.62 137.98 21.29C139.91 22.03 141.88 22.67 143.87 23.22C144.19 24.36 144.4 25.43 144.5 25.92C145.03 28.65 146.59 30.89 147.71 33.44C148.34 34.88 148.66 36.04 149.55 37.34C150.41 38.6 151.76 39.92 152.41 41.27C153.18 42.87 152.41 44.53 152.71 46.17C153.1 48.32 153.65 50.63 154.62 52.59C155.78 54.95 156.75 57.4 157.98 59.73C158.7 61.09 159.84 61.95 160.65 63.2C161.58 64.66 162.33 66.8 162.9 68.38C163.82 70.96 165.34 73.02 166.62 75.44C168.27 78.57 170.5 80.07 172.98 82.5C175.67 85.14 177.95 87.98 180.01 91.1C182.94 95.53 187.14 98.73 190.22 103.1C194.04 108.51 197.41 114.28 201.46 119.52C203.52 122.18 205.93 124.81 208.16 127.33C208.97 128.25 210.75 129.63 211.29 130.87Z" fill="#045A78"/>
<path d="M470.45 64.94C470.43 64.96 470.42 64.98 470.4 65C469.14 66.58 468.12 68.59 467.02 70.3C464.33 74.48 462.36 79.08 459.7 83.3C454.58 91.44 450.07 99.82 446 108.51C443.92 112.94 441.64 116.56 440.53 121.33C440.05 123.39 439.04 124.05 437.91 125.67C436.6 127.57 435.6 129.32 434.05 131.11C431.56 133.97 428.45 135.18 425.73 137.65C423.03 140.1 420.69 141.97 417.45 143.69C415.35 144.8 413.9 146.61 412.12 148.13C406.98 152.51 401.99 156.92 397.22 161.73C395.15 163.82 392.94 165.47 390.79 167.41C389.16 168.87 387.32 169.75 385.57 171.06C383.81 172.37 381.75 173.29 379.81 174.36C379.12 174.73 378.46 175.13 377.82 175.56C376.55 176.43 372.85 179.91 371.1 179.63C370.57 177.68 371.41 175.93 372.59 174.32C373.55 172.99 374.74 171.77 375.59 170.61C378.92 166.03 382.6 161.49 385.25 156.46C386.16 154.75 387.45 153.21 388.28 151.51C389.28 149.45 389.67 146.94 390.49 144.79C392.32 140.03 393.79 135.12 395.75 130.39C398.01 124.94 398.74 119.03 401.04 113.61C403.3 108.29 404.49 102.52 406.68 97.16C407.15 96.01 407.6 94.8 408.05 93.55C413.5 92.36 419.09 89.76 423.88 87.28C436.1 80.94 447.46 73.06 460.39 68.06C463.66 66.8 467.11 66 470.45 64.94Z" fill="#045A78"/>
<path d="M648.96 24.72C648.83 24.93 648.7 25.13 648.58 25.33C644.81 31.38 641.78 38.08 639.81 44.94C637.49 53.03 634.95 61.57 630.48 68.72C627.26 73.87 622.95 77.37 618.49 81.5C615.43 84.32 612.53 87.48 609.63 90.47C607.16 93.01 605.2 96.27 602.53 98.61C599.57 101.2 594.87 101.48 592.45 104.57C591.07 106.32 589.98 108.24 588.47 109.92C586.74 111.85 585.18 113.8 583.94 116.07C581.75 120.07 580.26 124.32 578.27 128.38C576.46 132.06 572.23 133.01 568.99 135.26C566.35 137.1 563.49 138.64 560.79 140.38C557.78 142.33 554.19 145.48 550.62 146.19C556.66 140.83 561.58 135.03 565.87 128.22C570.18 121.38 574.17 114.37 578.69 107.66C581.49 103.49 584.75 99.26 586.98 94.75C589.3 90.05 592 84.92 593.4 79.84C593.94 77.88 593.52 75.91 593.9 73.94C594.23 72.24 594.84 70.62 595.1 68.9C595.71 64.86 594.72 60.92 595.9 56.94C596.02 56.52 596.16 56.11 596.32 55.71H596.33C597.35 55.53 598.33 55.19 599.38 54.69C614.63 47.37 628.76 39.08 642.63 29.36C644.58 27.99 646.74 26.29 648.96 24.72Z" fill="#045A78"/>
</svg>
