<svg width="750" height="132" viewBox="0 0 750 132" fill="none" xmlns="http://www.w3.org/2000/svg">
<path d="M732.69 4.57001C738.45 2.95001 744.23 1.51 750 0V123.43C748.9 123.34 747.8 123.2 746.71 122.99C745.06 122.67 743.39 122.34 741.72 122.01C739.35 121.55 736.98 121.11 734.61 120.79C733.27 120.61 731.92 120.49 730.57 120.39C727.27 120.15 723.95 120.08 720.65 119.81C719.54 119.72 718.44 119.6 717.33 119.45C714.49 119.07 711.62 118.71 708.74 118.37C708.2 118.31 707.65 118.24 707.1 118.19C702.59 117.67 698.06 117.24 693.58 116.9C688.27 116.49 683.06 115.86 677.78 115.57C675.7 115.44 673.62 115.37 671.51 115.39C669.59 115.41 667.66 115.42 665.73 115.42C659.71 115.44 653.69 115.42 647.68 115.4C645.73 115.39 643.81 115.4 641.91 115.46C634.23 115.63 626.84 116.27 619.07 117.61C617.92 117.81 616.76 117.97 615.6 118.09C612.65 118.41 609.68 118.5 606.7 118.51C603.04 118.52 599.37 118.4 595.73 118.4H587.44C579.47 118.41 571.5 118.4 563.52 118.33H562.48C556.68 118.33 550.92 118.73 545.16 119.2H545.15C540.07 119.62 534.99 120.1 529.9 120.41C527.03 120.58 524.17 120.7 521.29 120.73C514.66 120.79 507.2 119.65 500.78 121.59C499.58 121.95 498.42 122.34 497.24 122.65C496.3 122.91 495.34 123.11 494.33 123.21C488.66 123.79 482.84 123.45 477.14 123.57C468.59 123.79 460.03 124.15 451.5 124.85C451 124.89 450.49 124.93 449.99 124.98H449.98C447.89 125.15 445.8 125.32 443.71 125.49C441.09 125.7 438.47 125.9 435.85 126.08C435.06 126.13 434.26 126.18 433.47 126.23H433.37C432.96 126.26 432.56 126.29 432.16 126.31C431.61 126.34 431.06 126.37 430.52 126.4H430.51C426.4 126.62 422.3 126.75 418.18 126.74C415.73 126.74 413.29 126.69 410.85 126.6C410.76 126.6 410.67 126.6 410.58 126.59H410.55C410.29 126.58 410.05 126.58 409.8 126.56H409.79C408.28 126.51 406.78 126.44 405.27 126.37C405.19 126.36 405.1 126.36 405.02 126.36C404.66 126.34 404.3 126.32 403.94 126.3C403.21 126.26 402.49 126.22 401.76 126.18C400.12 126.09 398.48 125.99 396.84 125.89C396.71 125.88 396.58 125.87 396.45 125.87C395.52 125.81 394.6 125.76 393.68 125.72C388.99 125.49 384.33 125.41 379.67 125.42H379.66C376.94 125.43 374.24 125.48 371.53 125.56C366.62 125.69 361.73 125.91 356.82 126.18C348.74 126.62 340.65 127.18 332.5 127.65C330.02 127.79 327.54 127.91 325.06 128C322.66 128.1 320.27 128.17 317.87 128.22C316.96 128.24 316.04 128.26 315.12 128.27H315.09C313.5 128.3 311.91 128.32 310.32 128.32H310.31C297 128.4 283.69 127.9 270.4 127.03C267.35 126.84 264.3 126.62 261.25 126.38C260.17 126.3 259.09 126.22 258 126.13C257.11 126.06 256.21 125.99 255.31 125.91C254.86 125.87 254.42 125.84 253.97 125.8C239.19 124.58 224.51 123.61 209.79 123.23C202.03 123.03 194.26 123 186.46 123.18C183.04 123.27 179.61 123.4 176.17 123.57H176.1C172.27 123.77 168.45 124.02 164.62 124.28C159.07 124.65 153.52 125.05 147.96 125.35C144.37 125.55 140.78 125.71 137.18 125.79C132.86 125.88 128.54 125.92 124.21 125.93C119.02 125.95 113.82 125.93 108.63 125.93C99.3 125.93 89.95 125.83 80.62 125.52C79.47 125.49 78.33 125.44 77.18 125.4C76.61 125.38 76.04 125.35 75.47 125.32C70.47 125.06 65.5 124.54 60.52 124.12C60.3 124.1 60.07 124.08 59.85 124.06C58.35 123.93 56.87 123.82 55.37 123.72H55.36C53.53 123.6 51.69 123.51 49.85 123.47C49.41 123.46 48.97 123.45 48.53 123.46H48.52C38.36 123.38 27.7 125.27 17.75 126.67C15.01 127.06 12.27 127.46 9.53 127.85C6.36 128.3 3.18 128.73 0 129.11V58.66C0.24 58.41 0.46 58.16 0.67 57.9C1.81 56.54 2.73 55.05 3.5 53.4C6.51 46.94 14.52 42.96 21.65 42.31C21.79 42.29 21.92 42.28 22.06 42.27C27.5 41.87 31.21 37.21 36.2 35.47C37.41 35.05 38.72 34.73 40.07 34.43C42.11 33.99 44.25 33.63 46.3 33.13C47.65 32.79 49.5 32.61 50.73 32.19C52.86 31.48 54.75 30.24 56.84 29.33C57.38 29.09 57.94 28.87 58.52 28.69C67.32 25.9 77.4 28.24 86.5 27.11C89.73 26.71 94.39 26.77 98 25.57C98.97 25.25 99.86 24.85 100.62 24.32C100.66 24.3 100.69 24.27 100.73 24.24C100.83 24.17 100.93 24.1 101.02 24.01C101.23 23.86 101.42 23.69 101.6 23.51L101.65 23.46C101.66 23.45 101.66 23.45 101.67 23.43C104.05 21 106.27 18.07 108.35 15.33C108.55 15.05 108.75 14.79 108.95 14.52C109.25 14.12 109.52 13.73 109.77 13.34C109.97 13.04 110.15 12.74 110.32 12.44C110.41 12.29 110.5 12.13 110.58 11.98C111.03 11.17 111.42 10.35 111.81 9.47C112.09 8.87 112.36 8.25001 112.65 7.59001C112.88 7.07001 113.45 5.45001 114.21 4.23001C114.73 3.38001 115.33 2.73001 115.97 2.73001H116C117.57 2.79001 117.71 5.07 118.53 6.05C118.54 6.05 118.56 6.07001 118.56 6.09001C119.59 7.27001 120.06 7.25 121.6 7.41C122.74 7.53 123.76 7.19 124.92 7.53C124.95 7.55 124.99 7.55001 125.02 7.57001C128.24 8.59001 130.2 12.09 133.73 12.93C133.96 12.97 134.18 13.03 134.41 13.07C139.6 13.95 144.61 10.95 149.94 12.49C150.17 12.55 150.39 12.63 150.62 12.71C154.47 14.11 155.42 16.85 157.73 20.11C161.49 25.43 165.73 29.86 170.18 34.43C170.93 35.2 171.68 35.97 172.44 36.75C176.42 40.37 179.12 45.09 182.87 48.95C187.06 53.25 191.55 54.51 197.17 56.87C200.3 58.16 203.07 60.17 206.05 61.77C210.78 64.31 215.71 66.32 220.73 68.19C223.03 69.03 225.1 69.87 227.39 70.37C228.07 70.53 228.58 70.97 229.25 71.09C229.87 71.21 230.57 70.97 231.16 71.11C232.4 71.4 232.71 71.95 234.28 71.91C234.74 71.9 235.18 71.85 235.61 71.77C237.39 71.47 239.01 70.74 240.82 70.24C246.18 68.74 250.82 66.17 255.97 64.21C258.34 63.32 261.14 62.55 263.95 62.05C266.3 61.63 268.66 61.4 270.79 61.4C278.59 61.41 286.3 62.15 294.12 62.15C295.91 62.15 297.68 61.9 299.43 61.49C299.69 61.43 299.93 61.37 300.19 61.3C300.19 61.3 300.19 61.3 300.2 61.3C301.94 60.86 303.66 60.28 305.35 59.63C305.47 59.59 305.58 59.55 305.69 59.51C307.05 58.99 308.4 58.44 309.76 57.9C313.1 56.58 316.42 55.24 319.76 53.92C321.68 53.17 323.6 52.42 325.53 51.69C326.01 51.5 326.49 51.32 326.97 51.14C327.91 50.78 328.86 50.43 329.81 50.09C330.65 49.79 331.48 49.48 332.31 49.16C332.77 48.99 333.22 48.81 333.68 48.64C335.47 47.95 337.26 47.25 339.06 46.58C339.56 46.39 340.06 46.21 340.56 46.03C340.61 46 340.67 45.98 340.73 45.97C341.39 45.73 342.04 45.5 342.7 45.28C343.01 45.17 343.33 45.06 343.64 44.96H343.65L343.83 44.9C343.94 44.86 344.05 44.82 344.16 44.79C344.57 44.65 344.99 44.53 345.41 44.4C346.63 44.03 347.86 43.71 349.09 43.38C350.57 42.98 352.05 42.57 353.49 42.03C355.32 41.33 357.45 40.16 359.58 39.69C360.1 39.58 360.6 39.51 361.11 39.49C361.78 39.48 362.43 39.56 363.07 39.77C363.8 39.99 364.59 40.77 365.28 41.13C366.27 41.65 367.33 42.07 368.38 42.48C369.14 42.77 369.9 43.06 370.63 43.39C373.44 44.61 376.1 46.15 378.81 47.59C383.27 49.94 387.8 52.08 392.38 54.11C392.59 54.21 392.81 54.3 393.02 54.39C397.21 56.24 401.45 58 405.71 59.74C406.22 59.95 406.74 60.16 407.25 60.36C409.33 61.2 411.43 62.02 413.53 62.82C418.83 64.87 424.17 66.84 429.49 68.85C432.45 69.98 434.87 71.9 437.81 73.03C441.14 74.32 444.56 75.13 447.94 76.23C449.13 76.61 450.32 76.87 451.51 76.99C456.58 77.55 461.59 76.05 466.7 75.07C468.63 74.69 470.47 74.45 472.34 74.31C473.59 74.21 474.86 74.15 476.17 74.13C480.34 74.09 484 75.63 488.04 76.43C488.69 76.57 489.37 76.69 490.06 76.79C493.17 77.27 496.58 77.51 499.62 77.16C502.4 76.83 504.71 75.19 507.23 74.13C508.54 73.57 509.9 73.19 511.41 73.21C513.78 73.24 515.93 73.49 518.29 72.97C518.36 72.95 518.43 72.93 518.5 72.91C524.72 71.41 530.66 66.61 535.04 62.13C536.72 60.4 537.49 58.24 539.34 56.74C539.71 56.43 540.1 56.17 540.51 55.95C541.8 55.27 543.24 54.97 544.73 54.63C547.15 54.07 550.17 54.07 552.67 53.71C555.13 53.37 557.59 52.87 560.05 52.57C562.7 52.24 565.25 52.09 567.87 51.49C569.73 51.09 571.29 50.11 573.1 49.57C576.18 48.63 579.33 48.17 582.27 46.97C582.91 46.69 583.57 46.51 584.24 46.35C584.56 46.27 584.88 46.19 585.19 46.1C585.64 45.99 586.08 45.86 586.51 45.71C587.03 45.52 587.54 45.28 588.04 45C588.09 44.98 588.13 44.95 588.18 44.93C588.33 44.85 588.49 44.76 588.64 44.67C588.93 44.51 589.21 44.33 589.49 44.15C590.32 43.62 591.14 43.04 591.99 42.51C597.31 39.24 602.47 35.69 607.7 32.27C607.72 32.25 607.75 32.24 607.77 32.23C607.91 32.13 608.06 32.04 608.2 31.94C608.47 31.77 608.74 31.59 609.01 31.4C610.24 30.56 611.47 29.69 612.73 28.89C613.07 28.67 613.41 28.45 613.76 28.25C614.01 28.1 614.26 27.95 614.51 27.81C614.67 27.72 614.82 27.63 614.98 27.55C615.27 27.39 615.57 27.24 615.87 27.09C616.87 26.59 617.78 26.01 618.76 25.67C619.5 25.43 620.27 25.35 621.13 25.57C622.93 26.05 624.91 26.79 626.54 27.47C628.89 28.43 630.51 30.21 632.96 31.23C634.78 31.99 636.58 32.57 638.42 33.17C639.09 33.39 639.77 33.62 640.46 33.85C642.29 34.49 643.93 35.16 645.88 35.15C647.73 35.13 648.98 35.45 650.71 35.83C654.57 36.69 658.62 35.69 662.5 35.81C667.56 35.95 672.65 37.05 677.72 36.67C678.51 36.61 679.28 36.48 680.03 36.27C682.08 35.69 683.98 34.65 685.79 33.51C689.74 31.07 693.81 28.23 697.57 25.49C703.69 21.05 708.99 15.03 715.79 11.75C716.8 11.27 717.59 10.51 718.38 9.81C719.11 9.15 719.85 8.51001 720.79 8.15001C724.56 6.69001 728.77 5.67001 732.69 4.57001Z" fill="#56BDB5"/>
<path d="M472.34 74.31C471.87 74.69 471.42 75.1 471.01 75.59C468.76 78.32 467.11 80.92 466 84.27C464.92 87.55 462.8 89.54 459.76 91C457.33 92.17 455.05 93.8 453.5 95.99C452.49 97.42 451.94 98.88 451.25 100.48C450.48 102.29 449.34 103.47 448 104.91C446.51 106.52 444.73 107.49 442.79 108.51C439.42 110.29 436.12 112.19 432.75 113.96C428.87 116 424.75 117.74 420.49 118.83C418.36 119.37 415.75 120.43 413.51 120.45C414.23 118.94 415.81 116.96 416.98 115.64C418.72 113.67 420.86 111.6 422.92 109.98C425.21 108.17 427.17 105.85 429.01 103.61C429.9 102.52 430.86 101.85 431.99 101.04C433.21 100.16 434.07 99.21 435.1 98.14C437 96.17 440.06 94.96 441.5 92.56C441.85 91.68 442.35 90.9 443 90.21C443.56 89.82 444.08 89.39 444.56 88.91C444.98 88.25 445.15 87.15 445.37 86.4C446.03 84.16 445.93 82.38 447.52 80.53C448.57 79.3 449.78 78.36 451.03 77.36C451.16 77.26 451.33 77.13 451.51 77C456.58 77.56 461.59 76.05 466.7 75.07C468.63 74.7 470.47 74.45 472.34 74.31Z" fill="#41AEB2"/>
<path d="M507.5 74.52C505.78 76.4 506.07 79.45 505.64 81.78C505.38 83.15 505.25 84.69 504.91 86.03C504.63 87.18 503.67 88.07 503 89.01C502.22 90.1 501.68 91.26 500.99 92.41C500.26 93.62 500.11 94.8 499.51 96.06C499.15 96.82 498.08 99.36 497.1 99.47C496.76 98.44 497.01 97.11 497.01 96.04C497.01 94.08 496.44 92.41 496.11 90.51C495.85 89.04 495.66 87.87 495 86.5C494.43 85.31 493.98 84.27 493.52 83.02C493.02 81.69 492.17 80.52 491.5 79.26C491.09 78.48 490.48 77.66 490.06 76.8C493.17 77.28 496.58 77.52 499.62 77.17C502.4 76.84 504.71 75.2 507.23 74.14L507.5 74.52Z" fill="#41AEB2"/>
<path d="M458 120.52C458.12 117.36 459.13 114.57 459.65 111.49C459.94 109.73 460.19 108.01 460.56 106.27C460.89 104.72 461.64 103.31 462.02 101.77C462.3 100.6 463.04 98.88 463.05 97.66C461.81 100.24 459.35 102.72 457.22 104.57C455.39 106.16 453.75 107.88 452 109.56C450.64 110.85 449.04 111.33 447.5 112.32C445.93 113.33 444.88 114.07 443.04 114.53C441.37 114.96 439.37 115.61 437.95 116.63C436.7 117.52 435.41 118.7 434.55 119.96C434.05 120.68 433.07 121.56 432.98 122.47C433.82 122.81 435.04 122.53 435.93 122.42C439.55 121.98 443.13 122.01 446.78 122.03C448.69 122.04 450.89 122.39 452.74 121.81C454.69 121.2 455.43 119.7 456.48 118.03L458 120.52Z" fill="#41AEB2"/>
<path d="M539 67.15V76.02C539 77.22 539.18 78.56 539.02 79.75C538.87 80.93 538.04 81.92 537.5 83C534.89 88.2 532.6 93.76 531.56 99.48C531.35 100.66 530.76 101.6 530.39 102.75C529.92 104.19 529.21 105.45 528.49 106.78C527.52 108.56 526.94 110.92 525.47 112.34C525.62 111.57 525.29 111.16 525.11 110.46C524.76 109.05 525 107.39 525 105.96C525 102.06 524.97 98.35 525.56 94.52C525.74 93.4 525.92 92.37 526 91.24C526.05 90.53 526.32 90.3 526.46 89.73C526.77 88.41 526.47 86.72 525.8 85.55C525.04 84.24 523.7 82.82 522.74 81.63C521.75 80.41 521.26 79.22 520.52 77.88C519.5 76.07 518.49 75.19 518.5 73.11V72.92C524.72 71.42 530.66 66.61 535.04 62.13C536.72 60.41 537.49 58.25 539.34 56.74C539.71 56.44 540.1 56.18 540.51 55.96C540.5 57.18 540.32 58.31 540 59.53C539.32 62.08 539 64.51 539 67.15Z" fill="#41AEB2"/>
<path d="M619.5 26.02C618.85 26.59 619.06 27.28 618.93 28.02C618.44 30.69 617.41 33.38 616.75 36.03C615.61 40.6 614.67 44.81 612.02 48.75C609.74 52.13 607.97 55.46 607.12 59.42C606.65 61.65 605.86 63.78 605.47 66.04C604.72 70.41 600.82 73.8 599.5 78.04C598.36 81.7 595.73 85.05 594.1 88.53C593.17 90.52 592.45 92.39 591.26 94.25C590.07 96.12 588.89 98.04 587.87 100C586.98 101.7 585.99 103.5 585.29 105.28C584.98 106.06 584.91 107.74 584.1 108.07C583.66 106.39 583.91 104.14 583.97 102.42C584.05 100.58 584.31 98.76 584.5 96.94C584.74 94.63 585.46 92.42 585.55 90.08C585.63 88.21 585.61 86.33 585.56 84.45C585.45 80.28 585.38 76.07 585.48 71.9C585.51 70.79 585.68 69.8 585.88 68.7C585.97 68.17 586.17 67.67 585.89 67.17C584.18 69.36 583.15 72.17 581.74 74.56C580.07 77.39 578.53 80.39 576.99 83.3C576.09 85 575.47 86.8 574.42 88.42C572.25 91.77 570.16 95.19 568.01 98.56C565.79 102.04 563.83 105.65 561.47 109.04C560.39 110.59 558.53 112.52 558.39 114.48C556.38 114.75 554.22 114.51 552.18 114.51C550.47 114.51 547.22 115.11 545.62 114.43C546.63 112.96 548.07 111.86 549.08 110.34C551.83 106.21 553.88 101.52 556.44 97.26C559.53 92.12 561.63 86.71 564.1 81.26C567.12 74.6 571.83 69.62 576.99 64.5C579.05 62.46 581.18 60.77 582.3 58.08C583.41 55.43 584.73 52.55 584.84 49.63C584.87 48.8 584.26 47.7 584.48 46.91C584.6 46.46 584.78 46.38 585.14 46.13C586 45.51 587.45 45.35 588.42 44.8C589.65 44.11 590.79 43.25 591.99 42.51C597.31 39.24 602.47 35.68 607.7 32.27C610.39 30.52 612.99 28.49 615.87 27.08C616.87 26.59 617.78 26 618.76 25.67L619.5 26.02Z" fill="#41AEB2"/>
<path d="M718.38 9.81C717.67 10.77 717.03 11.79 716.39 12.88C713.89 17.16 711.52 21.73 709.64 26.31C708.74 28.49 708.61 30.5 708.23 32.79C707.89 34.8 706.98 36.38 705.98 38.11C704.76 40.21 703.41 42.23 702.45 44.46C702.02 45.46 701.62 46.46 701.04 47.38C699.23 50.22 696.62 52.64 694.62 55.36C693.01 57.54 691.84 59.85 690.4 62.14C689.01 64.37 687.41 66.43 685.9 68.58C682.61 73.28 679.86 78.34 676.53 83C674 86.54 671.32 90.03 669 93.71C667.93 95.42 667.29 97.35 666.24 99.07C665.68 99.99 664.8 100.88 664.45 101.9C664.62 100.73 664.4 99.55 664.53 98.38C664.83 95.68 665.97 93.21 666.76 90.63C667.4 88.51 667.89 86.34 668.52 84.22C670.19 78.6 670.51 72.69 672.14 67.11C672.77 64.95 673.48 62.66 673.51 60.4C673.55 57.83 673.75 54.65 674.78 52.27C675.01 51.73 675.45 51.31 675.71 50.78C676.05 50.09 676.12 49.36 676.36 48.63C676.74 47.5 677.34 46.46 677.75 45.34C678.82 42.4 679.94 39.93 680.02 36.74C680.03 36.58 680.03 36.42 680.03 36.27C682.08 35.7 683.98 34.65 685.79 33.52C689.74 31.07 693.81 28.23 697.57 25.5C703.69 21.05 708.99 15.04 715.79 11.76C716.8 11.27 717.59 10.52 718.38 9.81Z" fill="#41AEB2"/>
<path d="M740.37 44.08C738.81 44.3 737.16 48.89 736.53 49.89C734.37 53.31 731.73 57.01 728.9 59.92C727.38 61.48 725.62 62.74 724.18 64.4C722.9 65.87 721.93 67.6 720.89 69.24C718.59 72.88 716.36 76.54 714.06 80.18C710.84 85.28 705.18 88.52 701.98 93.64C701.47 94.46 701.29 94.89 700.64 95.58C697.56 98.82 693.36 101.27 689.91 104.12C686.15 107.23 682.56 110.55 679.2 114.09C676.92 116.49 674.79 118.43 673.5 121.52L702.5 131.02C706.85 129.98 711.24 129.18 715.67 128.61C718.61 128.41 721.54 128.51 724.46 128.89C724.54 128.9 728.42 129.49 728.89 128.94C729.67 128.02 729.67 125.33 729.86 124.07C730.33 121.02 731.14 118.09 731.67 115.06C732.1 112.6 731.83 110.18 732.09 107.71C732.26 106.15 732.62 104.59 732.86 103.04C733.19 100.86 733.54 98.65 734.47 96.62C735.32 94.77 736.08 93.33 736.51 91.31C737.36 87.36 738.23 83.59 738.49 79.53C738.61 77.69 738.95 75.89 739.02 74.05C739.12 71.16 738.76 68.26 739.07 65.38C739.54 61.07 741.57 57.13 741.5 52.76C741.47 50.18 742.12 46.22 740.37 44.08Z" fill="#41AEB2"/>
<path d="M650.27 77.55C649.38 78.49 649 79.83 648.43 80.95C647.13 83.49 645.31 85.89 643.71 88.24C641.78 91.09 639.94 94.01 637.55 96.5C635.32 98.82 633.27 101.24 631.08 103.6C627.05 107.95 622.14 111.32 617.98 115.49C615.19 118.28 612.99 121.54 609.93 124.09C610.28 124.91 611.92 124.56 612.59 124.46C614.86 124.12 617.11 123.58 619.38 123.24C625.75 122.28 632.13 121.46 638.5 120.53L643 121.03C642.37 118.89 641.85 117.44 641.92 115.17C642.04 111.48 642.79 107.99 644.01 104.5C645.65 99.8 647.73 95.17 649.15 90.42C650.11 87.22 650.86 83.78 651.42 80.48C651.57 79.53 652.06 75.66 650.27 77.55Z" fill="#41AEB2"/>
<path d="M310.85 103.67C309.72 100.3 309.06 96.62 307.49 93.42C305.83 90.04 303.22 87.43 301.52 84.05C300.56 82.15 300.36 80.29 299.72 78.3C299.11 76.37 297.61 74.83 296.72 72.99C295.93 71.37 295.68 69.57 295.11 67.86C294.74 66.75 294.93 65.41 293.51 65.47C291.48 65.56 290.19 68.26 289.48 69.74C288.71 71.35 288.15 73.2 287.49 74.87C286.67 76.94 285.48 78.94 284.83 81.05C284.37 82.54 284.07 84.08 283.49 85.53C282.76 87.36 282.78 89.06 282.26 90.91C281.74 92.77 281.2 94.61 280.69 96.48C280.34 97.78 279.78 99 279.57 100.35C279.48 100.93 279.62 101.68 279.15 102.05C280.6 101.78 282.02 102.09 283.39 102.6C288.46 104.47 292.98 107.69 298.08 109.52C302.45 111.08 307.01 111.89 311.4 113.31C311.43 113.21 311.45 113.11 311.48 113.01L316.98 115.01C314.57 111.43 312.24 107.81 310.85 103.67Z" fill="#41AEB2"/>
<path d="M283.51 66C283.36 64.97 283.43 65.01 282.25 65.01C280.29 65.01 278.92 67.53 277.52 68.79C274.14 71.83 271.7 75.99 267.98 78.68C264.42 81.26 261.46 84.56 257.96 87.19C256.08 88.6 254.41 89.9 253.01 91.8C252.36 92.68 250.93 93.89 250.65 94.96C251.29 95.39 252.11 94.36 252.49 94.02L265.99 98.52C268.47 93.82 271.67 89.54 274.22 84.88C275.24 83.02 276.31 81.22 277.21 79.29C277.86 77.9 278.2 76.42 278.8 75.04C279.28 73.94 279.78 72.48 280.59 71.61C281.45 70.68 282.43 70.1 283.02 68.9C283.47 68.02 283.65 66.99 283.51 66Z" fill="#41AEB2"/>
<path d="M149.94 12.5C149.05 13.23 148.25 13.78 147.51 14.86C146.45 16.42 145.62 18 145.05 19.8C144.45 21.7 143.13 22.93 141.5 24.01C139.11 25.59 137.99 28.25 136.5 30.54C136.14 31.1 135.43 32.36 134.61 31.97C134.21 31.77 133.65 29.63 133.54 29.22C133.15 27.79 133.3 25.26 133.48 23.77C133.73 21.68 134.51 19.71 134.5 17.52C134.49 16.52 134.5 15.52 134.5 14.52C134.5 14.21 134.43 13.64 134.41 13.07C139.6 13.96 144.61 10.96 149.94 12.5Z" fill="#41AEB2"/>
<path d="M135.53 38.05C135.41 38.56 134.98 39.25 134.77 39.76C134.31 40.84 133.85 41.73 133.5 42.81C133.43 43.02 133.13 44.28 132.91 44.43C132.46 44.75 131.45 44.52 130.93 44.52C128.24 44.52 125.71 44.02 122.99 44.02H118.25C116.94 44.02 115.33 44.33 114.6 42.92C114.11 41.98 114.5 39.83 114.5 38.77C114.5 38.02 114.51 37.27 114.5 36.52C114.5 36.2 114.45 35.81 114.49 35.51C114.56 34.91 114.78 34.81 114.89 34.3C115.04 33.56 114.91 32.84 115.11 32.13C115.31 31.42 115.54 31.17 115.5 30.27C115.44 28.86 115.34 29.59 114.61 28.91C113.92 28.26 113.99 27.84 114 26.92C114.03 24.03 114.29 21.28 114.99 18.5C115.52 16.34 115.87 14.08 116.88 12.01C117.34 11.05 117.78 10.14 118.14 9.13C118.51 8.07 118.39 7.33 118.54 6.25C118.55 6.2 118.55 6.14001 118.56 6.09001C119.59 7.28001 120.06 7.26 121.6 7.42C122.74 7.54 123.76 7.19001 124.92 7.54001C124.95 7.55001 124.99 7.56 125.02 7.58C125.08 9.09 125.31 10.36 126 11.9C126.95 14 127.05 16.15 128.39 18.04C129.24 19.25 129.4 20.76 130.61 21.64C131.2 22.07 131.99 22.46 132.51 22.99C133.22 23.73 133.44 24.61 134.19 25.33C134.68 25.81 135.38 26.35 135.54 27.01C135.68 27.59 135.5 28.41 135.5 29.02V33.77C135.5 35.04 135.81 36.82 135.53 38.05Z" fill="#41AEB2"/>
<path d="M113.64 8.56C113.22 10.91 112.5 13.25 112.1 15.58C111.94 16.52 112.08 17.48 111.89 18.4C111.71 19.27 111.25 20.67 110.9 21.63C110.44 22.92 109.7 24.37 109 25.53C108.54 26.29 107.72 27.16 107.48 27.98C107.15 29.08 107.77 30.4 107.4 31.52C107.21 32.1 106.76 32.52 106.6 33.13C106.43 33.74 106.6 34.33 106.4 34.92C106.13 35.72 105.11 36.77 104.62 37.51C103.32 39.48 102.37 41.89 101.5 44.08C100.86 45.72 101 47.12 100.81 48.8C100.6 50.71 99.06 51.67 97.9 53.04C96.92 54.2 96.53 56.32 95 56.91C94.56 57.08 93.95 57.29 93.49 57.41C92.81 57.58 92.12 57.34 91.46 57.5C91.01 57.61 90.97 57.94 90.51 58.05C89.97 58.18 89.35 57.96 88.8 58.07C87.55 58.32 86.24 58.85 84.92 59.15C81.23 60 77.69 60.01 73.93 60.02C69.72 60.03 65.37 59.87 61.19 59.41C58.87 59.16 56.44 58.37 54.12 58.55C56.9 57.36 59.36 55.45 61.2 53.07C62.48 51.4 63.3 49.58 65.29 48.78C67.1 48.05 68.68 47.26 70.12 46.03C70.68 45.55 71.11 45.08 71.6 44.54C72.36 43.7 73.29 43.32 74 42.43C74.91 41.29 75.77 40.1 76.69 38.95C78.2 37.05 80.09 35.57 81.54 33.61C82.13 32.81 82.82 31.73 83.63 31.12C84.16 30.72 84.97 30.74 85.52 30.53C87.07 29.94 88.85 28.92 90.54 28.49C92.92 27.89 95.35 27.27 97.59 26.22C102.58 23.89 105.78 18.77 108.96 14.52C110.66 12.25 111.49 10.24 112.66 7.59001C112.89 7.07001 113.46 5.45001 114.22 4.23001C114.32 5.72001 113.79 7.64 113.64 8.56Z" fill="#41AEB2"/>
<path d="M56.84 29.34C56.17 31.96 53.82 34.54 52.51 36.77C51.66 38.23 50.5 40.72 49.02 41.65C47.67 42.5 46.52 43.31 45.51 44.62C44.87 45.45 44.32 46.36 43.51 47.06C42.77 47.69 41.86 47.96 41.09 48.51C40.38 49.01 40.12 49.75 39.52 50.3C38.97 50.79 38.26 51.01 37.72 51.52C36.85 52.35 35.86 53 34.95 53.84C34.81 52.65 36.42 51.36 37 50.42C37.83 49.07 38.53 47.56 39 46.05C39.72 43.74 39.5 41.31 39.5 38.91C39.5 37.48 39.24 35.96 39.93 34.67C39.97 34.59 40.01 34.52 40.07 34.44C42.11 34 44.25 33.64 46.3 33.13C47.65 32.8 49.5 32.61 50.73 32.2C52.86 31.48 54.75 30.25 56.84 29.34Z" fill="#41AEB2"/>
<path d="M169.9 56.62C169.62 56.09 168.97 55.6 168.64 55.03C168.2 54.27 167.68 53.61 167.14 52.91C165.71 51.03 164.44 48.94 163.5 46.77C163.24 46.17 162.66 45.3 162.55 44.73C162.27 43.28 162.58 43.41 161.34 42.24C159.64 40.62 158.33 39.08 157.39 37.04C156.88 35.92 156.06 35.01 155.49 33.94C155.03 33.08 154.84 32.1 154.4 31.22C153.96 30.35 153.15 29.52 153.01 28.53L152.51 31.03C152.89 32.35 153.47 33.66 153.52 35.02C153.55 35.83 153.34 36.69 153.58 37.48C155.49 37.72 155.41 38.57 156.49 40.03C157.7 41.64 158.23 43.11 158.89 45.04C159.36 46.4 159.96 47.85 160.01 49.28C160.07 50.92 159.49 52.38 159.51 54.03C159.52 54.71 159.34 55.64 159.49 56.3C159.7 57.24 160.23 57.15 161.01 57.63C161.84 58.15 162.05 58.88 162.63 59.55C163.06 60.05 163.58 60.3 163.95 60.83C164.9 62.19 165.34 63.9 165.56 65.55C165.8 67.36 166.24 69.14 166.45 70.96C166.58 72.09 167.09 73.25 166.99 74.37C167.68 73.86 167.56 72.77 167.75 72.02C168.03 70.97 167.9 70.04 168.04 68.98C168.38 66.51 168.87 63.91 169.62 61.51C169.99 60.34 170.52 57.81 169.9 56.62Z" fill="#41AEB2"/>
<path d="M263.95 62.06C262.65 63.25 261.21 64.25 260 65.51C258.8 66.76 258.5 67.83 257.88 69.41C257.4 70.63 257.01 71.79 256.62 73.03C256.33 73.99 256.32 75.2 256.01 76.07C255.53 77.42 253.76 78.61 252.75 79.56C251.14 81.06 250.99 83.49 249.57 85.05C248.51 84.78 247.99 83.65 247.29 82.88C246.28 81.75 245.25 80.65 244.06 79.7C243.21 79.01 242.08 78.44 241.29 77.72C240.1 76.63 239.02 75.38 238.13 73.99C237.59 73.15 236.56 72.43 235.61 71.78C237.39 71.47 239.01 70.75 240.82 70.24C246.18 68.74 250.82 66.18 255.97 64.22C258.34 63.32 261.14 62.56 263.95 62.06Z" fill="#41AEB2"/>
<path d="M354.08 49.92C353.76 51.86 353.96 54.04 354 56.02C354.04 58.28 352.2 59.18 350.73 60.76C348.63 63.02 347.11 65.63 345.92 68.46C345.46 69.55 344.81 70.44 344.24 71.46C343.55 72.69 343.15 74.12 342.62 75.42C342.14 76.61 341.91 77.8 341.49 79.02C340.56 81.74 341.57 84.57 340.89 87.3C340.54 88.7 339.71 90.42 339 91.64C337.62 94 337.29 96.06 337.53 98.79C337.83 102.13 337.99 105.28 337.99 108.66C337.99 109.71 338.71 113.42 337.36 113.85C336.19 112.38 335.36 110.71 334.87 108.92C334.55 107.75 333.95 106.68 333.6 105.53C333.3 104.52 332.79 103.99 332.34 103.06C331.77 101.89 331.27 100.72 330.69 99.55C329.91 97.98 328.6 96.77 328.1 95.04C327.38 92.58 326.12 90.37 325.24 88.03C324.53 86.15 324.11 84.8 322.24 83.78C320.14 82.64 318.93 81.38 317.51 79.53C316.77 78.57 315.87 77.73 315.54 76.53C315.24 75.45 315.07 74.44 314.29 73.54C312.65 71.62 309.95 70.62 308.04 69.04C306.41 67.7 304.59 66.51 303.01 65.11C302.42 64.59 302.15 64.06 301.74 63.42C301.2 62.58 300.34 62.3 299.79 61.57C301.25 60.48 303.94 60.19 305.68 59.52C307.04 59 308.39 58.45 309.75 57.91C316.44 55.27 323.03 52.55 329.8 50.1C335.01 48.22 340.1 46 345.4 44.4C348.09 43.59 350.84 43.02 353.48 42.03C355.31 41.34 357.44 40.17 359.57 39.7C356.8 42.3 354.66 46.26 354.08 49.92Z" fill="#41AEB2"/>
<path d="M412.5 94.95C412.14 94.53 411.78 94.11 411.42 93.7C408.63 90.49 405.3 87.49 402.27 84.51C401.29 83.54 400.15 82.92 399.03 82.15C394.92 79.31 393.23 74.32 389.01 71.49C387.62 70.56 386.08 69.69 384.61 68.88C384.1 68.59 383.56 68.41 383.14 67.95C382.86 67.64 382.74 67.05 382.54 66.68C381.98 65.67 381.22 64.76 380.43 63.92C378.73 62.11 376.92 60.57 375.49 58.52C371.76 53.17 368.31 48.28 362.51 45.02C363.72 45.7 366.34 47.8 367 48.99C367.56 50 367.32 51.7 367.69 52.83C367.94 53.61 368.42 54.25 368.74 54.99C369.75 57.32 369.53 59.99 370.45 62.37C370.79 63.25 371.45 64.21 371.85 65.12C373.1 67.99 374.34 71.43 376.63 73.5C377.99 74.73 379.47 75.65 380.95 76.76C382.81 78.16 383.69 79.42 384.54 81.65C385.21 83.41 385.71 85.09 386.73 86.69C387.35 87.67 388.44 88.61 388.89 89.69C389.23 90.49 389.22 91.69 389.4 92.54C389.9 94.9 390.72 97.14 391.28 99.46C391.84 101.77 392.92 103.87 393.53 106.15C394.84 111.1 396.48 116.09 398.78 120.75C399.62 122.44 400.71 124.09 401.62 125.75C402.06 126.55 401.55 126.71 402.47 127.1C403.26 127.44 404.8 126.6 405.39 126.35C410.35 124.23 415.53 122.66 420.6 120.83C424.58 119.39 429.01 116.97 433.24 116.37C433.02 115.48 430.97 114.19 430.17 113.58C427.58 111.6 425.32 109.4 423.03 107.06C419.26 103.22 415.96 99.01 412.5 94.95Z" fill="#41AEB2"/>
<path d="M374 58.02C375.02 59.96 377.7 61.53 379.58 62.56C382.37 64.09 385.42 64.54 388.48 65.12C390.45 65.49 392.16 66.58 394.01 67.3C396.44 68.25 399.01 69.64 401.25 71C406.41 74.14 411.57 77.47 416.54 80.92C418.47 82.26 420.45 83.25 422.61 84.13C424.18 84.77 425.37 85.82 426.84 86.55C424.74 86.62 422.55 85.77 420.47 85.53C417.41 85.18 414.42 84.48 411.5 83.64C410.25 83.28 409.58 82.84 408.58 82.05C405.67 79.76 401.88 78.62 398.83 76.52C396.57 74.96 394.45 73.33 392.02 72.02C389.89 70.87 387.78 70.32 385.54 69.52C381.49 68.08 374.78 68.29 375 62.52L374 58.02Z" fill="#41AEB2"/>
<path d="M186 57.52C185.99 58.71 187.41 60.12 188.11 61.01C189.94 63.33 191.85 65.61 193.73 67.89C196.31 71.02 198.71 74.34 201.14 77.58C202.4 79.26 204.04 81.14 205.97 82.04C208.16 83.07 210.42 83.18 212.49 84.52C214.26 85.66 215.92 86.76 217.62 88.02C219.37 89.32 220.74 90.92 222.34 92.39C224.1 94 226.12 95.71 228 97.18C228.61 97.66 229.49 97.95 230.02 98.51C230.68 99.2 230.48 99.84 231.36 99.08C231.51 98.95 231.88 97.76 231.92 97.7C232.22 97.17 232.67 96.65 233.02 96.16C233.49 95.5 235.17 93.87 235.05 92.97C235 92.61 234.55 92.25 234.29 92.04C232.98 90.98 231.44 90.11 230.1 89.03C228.53 87.77 227.15 86.33 225.63 85.02C224 83.62 222.21 82.41 220.58 81.01C219.38 79.98 218.3 78.87 216.98 77.99C215.64 77.09 214.17 76.43 212.83 75.53C210.1 73.69 207.97 71.59 206 69.03C205.07 67.81 204.02 66.77 203.1 65.52C202.45 64.63 201.82 63.75 201.1 62.9C200.33 61.98 199.34 61.68 198.37 61.17C197.81 60.88 197.32 60.43 196.77 60.16C195.76 59.66 194.61 59.58 193.61 59.06C191.51 57.99 189.34 56.97 187.27 55.78C186.41 55.28 185.58 54.71 184.73 54.22C184.16 53.89 183.36 53.63 182.89 53.21C183.46 54.42 184.72 55.4 185.45 56.56C187.01 59.05 188.28 61.63 189.98 64.04L186 57.52Z" fill="#41AEB2"/>
</svg>
