<svg width="590" height="143" viewBox="0 0 590 143" fill="none" xmlns="http://www.w3.org/2000/svg">
<path d="M590 1.31862V93.8786C587.17 95.3686 584.23 96.7286 581.24 97.9386C578.15 99.2086 575.02 100.329 571.9 101.309C570.83 101.649 569.76 101.959 568.68 102.259C568.68 102.259 568.68 102.269 568.67 102.259C565.67 103.089 562.63 103.789 559.56 104.389C554.78 105.339 549.94 106.059 545.16 106.669C541.2 107.179 537.18 107.629 533.14 107.919C531.33 108.049 529.52 108.139 527.7 108.189C524.46 108.279 521.22 108.219 518.01 107.959C516.23 107.809 514.45 107.609 512.68 107.349C506.51 106.449 500.39 104.929 494.47 103.179C491.37 102.269 488.74 101.599 485.5 101.629L484.54 99.3386L483.04 95.7586L476.5 80.1286C476.35 78.2986 476.55 77.0686 477.97 75.6986C478.12 75.5486 478.27 75.4186 478.42 75.2886C479.34 74.5386 480.35 74.1386 481.62 74.0486C482.54 73.9786 483.68 74.0186 484.56 74.3286C485.29 74.5886 486.14 75.5386 486.93 75.6186C486.97 73.9786 488.68 73.0786 489.97 72.3886C491.27 71.6786 492.1 71.8486 493.46 71.5986C494.01 70.0986 492.54 68.3886 493.1 66.7086C493.26 66.2286 493.77 65.9086 493.9 65.5486C494.15 64.8486 493.96 64.0186 493.98 63.2886C494.05 60.6786 495.27 57.7186 498.14 57.1686C499.03 56.9886 499.97 57.0286 500.79 57.3986C501.45 57.7086 502.15 58.7586 502.93 58.5786C502.83 57.3386 504.63 56.6086 505.59 56.3386C507.3 55.8686 508.41 56.3086 509.93 56.9586C509.95 55.4786 511.33 53.2986 512.69 52.5486C513.17 52.2786 515.98 51.6286 517.52 51.7586C515.6 49.8786 514.29 45.9186 515.08 43.6786C515.96 43.6286 516.43 43.8186 516.5 42.8886C516.59 41.6286 514.93 40.5286 515.5 39.1286C515.93 38.0786 518.5 36.9386 519.52 36.6886C520.3 36.4986 521.04 36.5386 521.73 36.9286C522.2 37.1786 522.38 37.6186 522.95 37.6086C522.98 36.5386 522.18 35.4386 522.03 34.3386C521.82 32.7586 521.98 30.9386 522.75 29.5286C523.69 27.7986 525.82 26.6386 527.46 25.6286C529.41 24.4286 531.71 23.3886 534 23.1586C536.78 22.8786 540.61 22.7286 542.54 25.2186C543.27 26.1686 543.74 27.2186 544.52 28.1586C544.9 28.6086 545.69 29.3686 545.46 29.9886C543.5 28.6586 541.81 27.1886 539.23 27.8886C538.38 28.1186 534.76 29.8086 535.03 31.0986C535.64 31.1086 535.94 30.6686 536.47 30.4286C537.2 30.0986 537.8 30.1086 538.6 30.1286C540.27 30.1586 541.47 30.0086 543 30.6286C545.27 31.5386 546.56 32.7286 547.53 34.9886C547.22 33.6586 547.94 32.0286 549.29 31.6286C551.13 31.0786 551.64 32.3986 552.99 32.9886C554.59 32.1886 555.22 31.0986 557.21 31.0586C559.05 31.0286 560.35 31.7886 561.96 32.4586C560.93 30.1186 559.37 26.7886 559.92 24.0386C560.38 21.7086 563.14 22.9186 564.83 22.5686C563.64 19.9086 563.53 17.6486 566.48 16.4186C567.89 15.8286 567.53 15.3286 567.49 13.8186C567.41 10.7086 568.05 8.14862 570.42 5.94862C575.06 1.65862 582.13 -1.28138 588.46 0.558621C589.02 0.718621 589.52 0.988615 590 1.31862Z" fill="#FFFFCA"/>
<path d="M451.44 77.2386C450.31 75.9486 448.08 74.2986 446.47 73.7786C444.22 73.0586 440.3 74.2286 440 76.8686C440.29 74.3586 434.57 73.6386 432.99 74.1586C430.54 74.9586 427.73 78.9586 428.05 81.5186C427.15 79.7786 425.38 78.7186 423.47 78.6186C422.07 78.5486 421.43 78.8586 420.36 79.3686C419.66 78.0686 419.67 76.0286 417.98 75.6386C417.01 75.4086 416.34 75.6986 415.62 76.1186C414.87 74.4686 414.02 72.2386 411.92 72.9086C410.19 73.4586 409.31 73.9486 408.87 75.6286C408.02 74.7486 407.5 73.3686 406.91 72.3086C405.97 70.5986 405.02 68.8886 403.91 67.2886C402.92 65.8586 401.65 64.1886 399.95 63.5586C397.4 62.5986 392.11 64.4686 391.93 67.1186C391.82 68.6986 392.3 70.4886 391.91 72.0186C389.85 70.6286 388.52 68.5486 385.65 69.0986C384.06 69.4086 384.41 70.6086 384.51 71.9886C383.52 68.8886 378.06 69.8386 376.44 71.6686C374.34 74.0186 372.83 77.4886 372.49 80.5886C372.26 82.7786 372.84 84.2386 373.61 86.1886C372.85 87.2686 370.97 86.4486 370.21 87.6886C369.73 88.4686 370.13 89.2986 369.9 90.1186C369.2 90.2886 368.5 89.0686 367.94 88.7186C366.67 87.9286 365.32 88.0086 363.97 88.4186C363.35 88.6086 361.54 89.8286 360.94 90.9986C359.22 89.0286 356.12 87.0286 353.69 87.1086C351.42 87.1886 349.28 88.8686 348.99 91.0786C349.04 88.1786 348.61 85.2886 345.66 83.8486C343.68 82.8786 339.56 83.6186 338.96 86.0386C338.43 83.9786 338.53 81.5286 336.9 79.9386C336.2 79.2586 333.82 77.8386 332.94 78.9586C333.79 75.1686 328.97 74.8986 326.52 75.1786C324.67 75.3886 319.72 76.7186 318.96 78.6986C318.52 79.8486 319.67 81.1186 319.32 82.0786C318.2 82.2186 317 82.3786 315.91 82.6486C314.79 82.9186 314.85 83.0486 314.94 84.2186C314.95 84.9986 315.13 85.7486 315.47 86.4586C315.61 86.7186 315.75 86.9786 315.89 87.2286C315.82 88.4486 315.65 88.2086 314.13 88.5286C311.69 89.0386 308.68 89.2886 308.04 92.1686C307.66 93.8686 308.41 95.8486 307.9 97.4786C306.69 96.8486 305.46 96.3086 304.15 96.9186C303.02 97.4486 301.98 98.3286 301.86 99.6086C301.29 99.4086 301.7 99.0786 301.4 98.6586C300.88 97.8986 300.31 97.4386 299.4 97.2186C297.33 96.6986 296.05 97.4986 294.84 99.0186C294.05 98.1086 294.34 97.0586 292.86 97.1086C292.07 97.1386 290.65 97.5986 290.46 98.4886C290.6 97.1486 288.24 95.5586 287.25 94.6686C285.61 93.1886 284.76 93.0486 282.64 93.1886C283.79 92.0786 284.3 91.6586 285.86 92.0186C286.54 92.1786 287.34 92.3186 287.92 92.7286C287.58 92.0786 287.59 91.3486 287.25 90.6386C286.54 89.1586 284.78 89.1386 283.38 89.1386C281.34 89.1386 278.43 89.4486 277.56 91.7586C277.19 92.7486 277.43 94.4486 277.52 95.4986C276.26 92.3786 272.33 92.6786 270.05 94.4186C269.28 95.0086 269.37 95.3886 268.87 96.0386C268.48 96.5386 267.84 96.7286 267.46 97.2386C266.69 98.2586 266.97 99.2886 267.23 100.399C267.33 100.819 268.15 102.749 268.05 103.179C267.83 104.049 266.87 103.499 266.22 103.629C265.55 103.759 265.43 104.109 264.89 104.459C263.65 103.549 263.12 103.409 261.53 103.879C260.72 104.119 259.94 104.819 259.12 104.569C258.67 104.429 258.31 103.819 257.72 103.659C257.05 103.489 256.01 103.469 255.33 103.719C254.46 104.029 253.66 104.829 252.98 105.439C252.33 104.359 250.76 103.819 249.58 103.639C246.98 103.239 244.61 104.629 244 107.139C243.66 108.519 242.68 108.669 243.12 110.099C243.67 111.899 245.95 114.559 247.14 115.809C253.29 122.259 261.75 124.839 269.73 128.129C280.08 132.409 290.14 136.659 301.08 139.179C312 141.689 322.82 142.649 334.01 142.649C340.7 142.649 347.34 142.029 354.04 142.149C356.85 142.199 359.56 142.179 362.31 141.569C365.58 140.439 368.81 139.189 372 137.819C373.85 137.069 375.71 136.319 377.56 135.559C394.07 128.839 411.46 124.359 427.67 116.929C430.03 115.809 432.38 114.689 434.74 113.569C437.19 112.349 439.49 110.899 441.65 109.229C443.74 106.849 442.95 105.319 441.51 102.619L452.01 80.6186C453.38 80.5986 451.91 77.7686 451.44 77.2386ZM359.5 91.6386C359.93 91.7086 360.35 91.6986 360.77 91.6686C360.76 91.9186 360.85 92.1486 361.03 92.3586C360.59 92.1286 359.28 91.7286 359.5 91.6386Z" fill="#FFFFCA"/>
<path d="M288.56 93.4486C288.42 93.1286 288.2 92.8986 287.95 92.7186C288.08 92.9786 288.27 93.2286 288.56 93.4486Z" fill="#FFFFCA"/>
<path d="M191.99 97.3886C191.92 96.0986 191.78 95.1086 191.38 93.8986C191.01 92.7786 190.35 91.4386 189.46 90.5486C188.58 89.6686 187.33 89.1686 186.38 88.3686C185.13 87.3086 183.57 86.7986 182.01 87.1686C180.26 87.5786 178.27 87.4786 176.51 88.1486C174.47 88.9186 173.25 90.5086 173.56 92.5086C173.28 91.1686 170.52 90.5686 169.27 91.0786C167.9 91.6286 166.24 93.8186 166.54 95.1586C165.89 93.0586 161.41 91.6386 159.11 91.7086C157.99 91.7386 156.52 91.9386 155.45 92.2986C154.84 92.3786 154.39 92.6486 154.1 93.0986C154.1 93.4686 153.91 93.6886 153.52 93.7486C152.55 92.9286 152.63 91.1786 151.97 90.1386C151.18 88.9086 149.79 87.5786 148.68 86.5786C147.42 85.4486 145.85 84.7886 144.06 84.5786C142.75 84.4286 142.57 84.8186 141.64 85.1686C140.63 83.9586 140.94 82.4486 139.66 81.2586C138.09 79.7986 135.36 78.5886 133.11 78.2386C131.5 77.9886 130.07 78.1786 129 79.2986C128.11 80.2186 128.19 80.1686 126.76 80.0086C121.45 79.3886 118.6 83.2386 117.38 87.3586C117.18 88.0186 116.76 95.0386 115.13 94.3586C114.76 92.3686 112.07 90.8386 109.95 90.4986C108.34 90.2386 106.1 90.3686 104.55 90.8786C103.79 91.1286 103.02 91.8586 102.29 92.0086C101.28 92.2186 101.53 92.0186 100.8 91.3486C99.92 90.5386 98.96 90.3286 97.67 90.4886C96.18 90.6686 92.72 91.6586 92.14 92.9786C91.78 92.5086 91.79 91.5486 91.69 90.9786C91.45 89.5686 91.18 88.7686 90.29 87.6086C88.14 84.8086 83.88 82.5586 80.63 85.5586C80.23 85.9286 79.77 86.5586 79.1 86.5086C78.68 85.6886 79.15 84.4686 78.95 83.5786C78.63 82.2186 77.75 81.3386 76.74 80.3486C75.6 79.2386 75.24 78.0386 74.56 76.6686C73.59 74.7386 69.83 73.4086 67.48 73.3586C66.07 73.3286 63.46 73.6086 63.02 75.0186C62.37 73.5086 61.86 72.9286 59.89 72.9386C58.2 72.9486 56.71 73.7786 56.1 75.2386C55.69 76.2286 56.1 77.6186 55.07 78.3386C54.43 78.7886 53.85 78.5086 53.14 78.6186C52.15 78.7686 51.76 79.1586 51.13 79.9086C50.38 80.8086 49.91 81.8886 49.49 82.9386C49.34 83.3286 49.21 84.7086 48.54 84.8486C48.15 84.9286 47.47 84.3886 47.04 84.3086C46.32 84.1686 45.48 84.4586 44.75 84.3486C43.27 84.1286 42.67 83.6686 41.04 84.1286C39.34 84.6086 38.1 85.7186 37 86.8686C37.43 83.8186 35.85 81.3286 33.8 79.0886C32.8 77.9986 31.45 76.4686 29.77 76.4186C28.17 76.3686 26.62 76.5686 25.17 77.1286C25.77 75.3686 26.46 74.2486 28.63 74.2386C29.54 74.2286 31.35 74.3386 32.06 74.9886C32.12 73.8486 30.99 72.8786 30.03 72.1886C29.46 71.7786 28.8 71.4386 28.28 70.9586C27.65 70.3686 27.45 69.9186 26.52 69.6686C23.88 68.9586 20.34 69.1786 18.69 71.2786C17.7 72.5486 17.48 73.6586 17.51 75.1486C17.52 75.8186 17.66 76.5886 17.44 77.2186C16.89 76.8986 16.57 76.3386 15.94 76.0986C15.14 75.7986 13.8 75.9886 12.92 75.9986C10.31 76.0386 5.99002 78.1586 6.52002 80.8486L0.52002 116.749C8.45002 121.179 16.5 125.219 25.47 127.819C33.54 130.159 41.86 131.149 50.34 131.269C56.7 131.359 63 131.059 69.34 130.769C77.57 130.389 85.8 130.389 94.03 130.099C104.55 129.719 115.12 128.799 125.54 127.389C141.69 125.209 156.89 120.079 171.61 114.049C177.37 111.689 183.02 108.959 188.91 106.849C190.23 106.379 191.79 106.269 193.06 105.769C192.93 102.939 192.13 100.179 191.99 97.3886Z" fill="#FFFFCA"/>
</svg>
